<svg width="20" height="20" viewBox="0 0 20 20" fill="none" xmlns="http://www.w3.org/2000/svg">
<path fill-rule="evenodd" clip-rule="evenodd" d="M13.3333 19.8624C13.0555 19.8852 12.7785 19.9051 12.5021 19.9223C10.8198 20.0266 9.16268 20.0259 7.49777 19.9203C7.221 19.9027 6.94401 19.8823 6.66666 19.8589C6.3893 19.8355 6.11158 19.8093 5.83333 19.7801C5.5217 19.7474 5.20943 19.7111 4.89629 19.6712C2.31055 19.3414 1.08509 18.3509 0.612642 16.1919C-0.243889 12.2777 -0.012299 8.80011 0.184438 7.49374C0.324936 6.56081 5.28938 2.74617 8.11619 0.641487C9.2604 -0.210427 10.8163 -0.21428 11.9642 0.632705C14.8147 2.7361 19.8278 6.56148 19.8895 7.49374C19.8915 7.52314 19.8935 7.55365 19.8956 7.58525C19.9868 8.95449 20.2141 12.366 19.4609 16.1919C19.0328 18.3664 17.7638 19.3481 15.1772 19.6712C14.8388 19.7134 14.502 19.7516 14.1667 19.7857C13.888 19.8141 13.6102 19.8396 13.3333 19.8624ZM14.1667 18.1101C14.4335 18.0819 14.7014 18.051 14.9707 18.0173C16.1194 17.8739 16.733 17.6091 17.0847 17.3265C17.3946 17.0776 17.6656 16.6832 17.8257 15.87C18.4954 12.4678 18.3428 9.40004 18.2483 7.93363C18.161 7.82848 18.0304 7.68542 17.8482 7.50338C17.3805 7.03626 16.7063 6.44405 15.9113 5.78743C14.3297 4.48114 12.393 3.02045 10.9746 1.97379C10.4176 1.5628 9.66759 1.56429 9.11151 1.97831C7.70462 3.02581 5.78395 4.48547 4.20521 5.79129C3.41215 6.44727 2.73345 7.0414 2.25544 7.51251C2.04225 7.72262 1.89267 7.88519 1.79737 8.00112C1.63458 9.32805 1.48962 12.4029 2.24078 15.8356C2.42195 16.6635 2.69837 17.0687 3.01206 17.3232C3.36043 17.6059 3.96385 17.8721 5.10718 18.0179C5.34984 18.0489 5.59186 18.0775 5.83333 18.1039V13.4283C5.83333 12.7403 6.16821 12.1216 6.59759 11.6913C7.02686 11.2611 7.64499 10.9246 8.33333 10.9246H11.6667C12.355 10.9246 12.9731 11.2611 13.4024 11.6913C13.8318 12.1216 14.1667 12.7403 14.1667 13.4283V18.1101ZM7.5 18.2503C9.16276 18.3603 10.8169 18.3611 12.5 18.2524V13.4283C12.5 13.2811 12.4182 13.0646 12.2226 12.8685C12.0269 12.6724 11.8117 12.5913 11.6667 12.5913H8.33333C8.18834 12.5913 7.97313 12.6724 7.7774 12.8685C7.58178 13.0646 7.5 13.2811 7.5 13.4283V18.2503Z" fill="#94A1B2"/>
</svg>
