<svg width="36" height="36" viewBox="0 0 36 36" fill="none" xmlns="http://www.w3.org/2000/svg">
<circle cx="18" cy="18" r="18" fill="#2E4063"/>
<path fill-rule="evenodd" clip-rule="evenodd" d="M13.5556 12.4444C13.5556 11.2657 14.0238 10.1352 14.8573 9.30175C15.6908 8.46825 16.8213 8 18 8C19.1787 8 20.3092 8.46825 21.1427 9.30175C21.9762 10.1352 22.4444 11.2657 22.4444 12.4444C22.4444 13.6232 21.9762 14.7536 21.1427 15.5871C20.3092 16.4206 19.1787 16.8889 18 16.8889C16.8213 16.8889 15.6908 16.4206 14.8573 15.5871C14.0238 14.7536 13.5556 13.6232 13.5556 12.4444ZM13.5556 19.1111C12.0821 19.1111 10.6691 19.6964 9.62718 20.7383C8.58532 21.7802 8 23.1932 8 24.6667C8 25.5507 8.35119 26.3986 8.97631 27.0237C9.60143 27.6488 10.4493 28 11.3333 28H24.6667C25.5507 28 26.3986 27.6488 27.0237 27.0237C27.6488 26.3986 28 25.5507 28 24.6667C28 23.1932 27.4147 21.7802 26.3728 20.7383C25.3309 19.6964 23.9179 19.1111 22.4444 19.1111H13.5556Z" fill="white"/>
</svg>
