<svg width="36" height="36" viewBox="0 0 36 36" fill="none" xmlns="http://www.w3.org/2000/svg">
<circle cx="18" cy="18" r="18" fill="#2E4063"/>
<path d="M22.2939 20.5786H21.3905L21.0703 20.2699C22.191 18.9663 22.8656 17.2739 22.8656 15.4328C22.8656 11.3276 19.538 8 15.4328 8C11.3276 8 8 11.3276 8 15.4328C8 19.538 11.3276 22.8656 15.4328 22.8656C17.2739 22.8656 18.9663 22.191 20.2699 21.0703L20.5786 21.3905V22.2939L26.2962 28L28 26.2962L22.2939 20.5786ZM15.4328 20.5786C12.5855 20.5786 10.287 18.2802 10.287 15.4328C10.287 12.5855 12.5855 10.287 15.4328 10.287C18.2802 10.287 20.5786 12.5855 20.5786 15.4328C20.5786 18.2802 18.2802 20.5786 15.4328 20.5786Z" fill="white"/>
</svg>
