<svg width="36" height="36" viewBox="0 0 36 36" fill="none" xmlns="http://www.w3.org/2000/svg">
<circle cx="18" cy="18" r="18" fill="#2E4063"/>
<path fill-rule="evenodd" clip-rule="evenodd" d="M24.2396 14.7799L26.9741 17.5144C27.6449 18.1852 27.7953 19.2644 27.1683 19.759L23.6379 22.5438C23.0105 23.0384 22.0637 23.02 21.3934 22.3496L19.4044 20.3611C18.734 19.6902 18.7151 18.7435 19.2101 18.116L21.995 14.5856C22.4896 13.9582 23.5687 14.1095 24.2396 14.7799ZM23.4838 16.193L25.5609 18.2701C25.8101 18.5193 25.8101 18.9267 25.5609 19.1758C25.3118 19.4249 24.9044 19.4249 24.6553 19.1758L22.5782 17.0987C22.4585 16.9784 22.3913 16.8156 22.3913 16.6459C22.3913 16.4762 22.4585 16.3134 22.5782 16.193C22.8273 15.9439 23.2347 15.9439 23.4838 16.193ZM22.4799 8.00001C25.076 8.00001 27.1813 10.1048 27.1813 12.7014C27.1813 13.9208 26.7167 15.0318 25.9549 15.8673L25.405 15.3174C26.0756 14.5699 26.4341 13.5938 26.4067 12.59C26.3794 11.5862 25.9682 10.631 25.2578 9.92123C24.5475 9.21143 23.5921 8.80097 22.5882 8.77435C21.5844 8.74773 20.6086 9.10697 19.8616 9.77813C19.6836 9.58876 19.4957 9.40888 19.2987 9.23925C20.1655 8.4407 21.3014 7.99821 22.4799 8.00001ZM19.9188 15.6745C20.048 15.7857 20.1841 15.889 20.3271 15.9827L19.8445 16.5949C19.7029 16.4989 19.5666 16.3952 19.4362 16.2844C19.5972 16.0906 19.7596 15.8862 19.9188 15.6745ZM11.1131 20.2042C12.2028 20.8889 13.1874 21.2169 14.3819 20.3971C16.112 19.209 21.4123 14.4952 20.8148 12.2045C20.4152 10.6723 18.6417 8.89922 17.11 8.49967C14.8193 7.90173 10.1054 13.202 8.91787 14.9326C8.09801 16.1275 8.42559 17.1116 9.11073 18.2014C9.61778 19.0121 10.3027 19.6969 11.1135 20.2037L11.1131 20.2042ZM11.8674 18.5936C12.4912 18.9857 13.055 19.1735 13.7387 18.7043C14.7298 18.0238 17.7642 15.3247 17.4219 14.0135C17.193 13.1365 16.178 12.1214 15.3009 11.8921C13.9893 11.5503 11.2907 14.5847 10.6106 15.5757C10.141 16.2595 10.3287 16.8228 10.7209 17.4466C11.0111 17.9109 11.4032 18.3032 11.8674 18.5936ZM18.6925 10.622C18.7795 10.709 18.8486 10.8123 18.8957 10.9261C18.9428 11.0398 18.967 11.1617 18.967 11.2847C18.967 11.4078 18.9428 11.5297 18.8957 11.6434C18.8486 11.7571 18.7795 11.8605 18.6925 11.9475C18.6055 12.0345 18.5021 12.1036 18.3884 12.1507C18.2747 12.1978 18.1528 12.222 18.0297 12.222C17.7811 12.222 17.5427 12.1233 17.367 11.9475C17.1912 11.7718 17.0924 11.5334 17.0924 11.2849C17.0923 11.0364 17.191 10.798 17.3667 10.6222C17.5425 10.4464 17.7808 10.3477 18.0293 10.3476C18.2779 10.3476 18.5163 10.4463 18.692 10.622H18.6925Z" fill="white"/>
<path fill-rule="evenodd" clip-rule="evenodd" d="M13.3277 12.2008L17.1137 15.9868L16.3284 16.7721L12.5424 12.9856L13.3277 12.2008ZM11.4877 14.0061L15.3079 17.8263L14.5235 18.6115L10.7034 14.7914L11.4877 14.0061ZM21.3043 22.8617L20.5347 23.6308L19.952 23.5607L18.7668 24.7455L17.7333 24.8825L17.5967 25.916L16.5633 26.0525L16.5545 26.9578L15.3932 27.223L15.2562 28L13.7835 27.97L13.754 26.4973L14.5309 26.3607L14.7957 25.199L15.701 25.1902L15.838 24.1568L16.8715 24.0202L17.008 22.9867L18.1937 21.8019L18.1227 21.2192L18.8923 20.4497C18.9527 20.5281 19.0191 20.6033 19.0907 20.6748L21.0792 22.6633C21.1507 22.7348 21.2259 22.8008 21.3043 22.8617Z" fill="white"/>
</svg>
