<svg width="20" height="20" viewBox="0 0 20 20" fill="none" xmlns="http://www.w3.org/2000/svg">
<path fill-rule="evenodd" clip-rule="evenodd" d="M16.2396 6.77986L18.9741 9.51441C19.645 10.1852 19.7954 11.2644 19.1684 11.759L15.638 14.5438C15.0105 15.0384 14.0638 15.02 13.3934 14.3496L11.4044 12.3611C10.734 11.6902 10.7151 10.7435 11.2102 10.116L13.995 6.58562C14.4896 5.95816 15.5688 6.10949 16.2396 6.77986ZM15.4839 8.19304L17.561 10.2701C17.8101 10.5193 17.8101 10.9267 17.561 11.1758C17.3118 11.4249 16.9044 11.4249 16.6553 11.1758L14.5782 9.09871C14.4585 8.97838 14.3914 8.81558 14.3914 8.64588C14.3914 8.47618 14.4585 8.31338 14.5782 8.19304C14.8273 7.9439 15.2347 7.9439 15.4839 8.19304ZM14.4799 5.4663e-06C17.0761 5.4663e-06 19.1813 2.10478 19.1813 4.70138C19.1813 5.92079 18.7167 7.03177 17.955 7.86731L17.405 7.31736C18.0756 6.5699 18.4341 5.59379 18.4068 4.58997C18.3794 3.58616 17.9682 2.63103 17.2579 1.92123C16.5475 1.21143 15.5921 0.800965 14.5883 0.774345C13.5844 0.747725 12.6086 1.10697 11.8616 1.77813C11.6836 1.58876 11.4957 1.40888 11.2988 1.23925C12.1655 0.440703 13.3014 -0.00179391 14.4799 5.4663e-06ZM11.9188 7.67446C12.048 7.78565 12.1841 7.889 12.3272 7.98266L11.8446 8.5949C11.7029 8.49886 11.5666 8.39521 11.4363 8.28439C11.5973 8.09062 11.7597 7.88623 11.9188 7.67446ZM3.11311 12.2042C4.20287 12.8889 5.18743 13.2169 6.38193 12.3971C8.11207 11.209 13.4123 6.49519 12.8148 4.20448C12.4153 2.67227 10.6418 0.899219 9.11002 0.499671C6.81931 -0.0982667 2.10547 5.20197 0.917902 6.93257C0.0980453 8.12753 0.425619 9.11163 1.11076 10.2014C1.61781 11.0121 2.3027 11.6969 3.11357 12.2037L3.11311 12.2042ZM3.86745 10.5936C4.49123 10.9857 5.05502 11.1735 5.73877 10.7043C6.7298 10.0238 9.76424 7.32474 9.4219 6.01352C9.19306 5.13645 8.17804 4.12144 7.30098 3.89214C5.9893 3.55026 3.29074 6.5847 2.61067 7.57573C2.141 8.25948 2.32878 8.82281 2.72094 9.44659C3.01115 9.91094 3.40321 10.3032 3.86745 10.5936ZM10.6925 2.62198C10.7796 2.70901 10.8486 2.81234 10.8957 2.92606C10.9428 3.03977 10.967 3.16165 10.967 3.28474C10.967 3.40783 10.9428 3.52971 10.8957 3.64342C10.8486 3.75714 10.7796 3.86047 10.6925 3.9475C10.6055 4.03453 10.5022 4.10358 10.3884 4.15068C10.2747 4.19778 10.1528 4.22202 10.0298 4.22202C9.78118 4.22202 9.54277 4.12327 9.367 3.9475C9.19122 3.77179 9.09245 3.53344 9.09241 3.2849C9.09236 3.03636 9.19105 2.79799 9.36677 2.62221C9.54248 2.44644 9.78083 2.34766 10.0294 2.34762C10.2779 2.34758 10.5163 2.44627 10.6921 2.62198H10.6925Z" fill="#ADB4BE"/>
<path fill-rule="evenodd" clip-rule="evenodd" d="M5.32768 4.20068L9.1137 7.9867L8.32844 8.77195L4.54243 4.98548L5.32768 4.20068ZM3.48773 6.00603L7.30789 9.82619L6.52356 10.6114L2.7034 6.79129L3.48773 6.00603ZM13.3043 14.8616L12.5348 15.6307L11.9521 15.5606L10.7668 16.7454L9.73332 16.8824L9.59675 17.9159L8.56328 18.0524L8.55451 18.9577L7.39324 19.2229L7.25621 19.9999L5.78352 19.9699L5.75399 18.4972L6.53094 18.3606L6.79576 17.1989L7.70098 17.1901L7.838 16.1567L8.87148 16.0201L9.00804 14.9866L10.1938 13.8018L10.1227 13.2191L10.8923 12.4495C10.9527 12.528 11.0192 12.6032 11.0907 12.6747L13.0792 14.6632C13.1507 14.7347 13.2259 14.8007 13.3043 14.8616Z" fill="#ADB4BE"/>
</svg>
