<svg width="19" height="20" viewBox="0 0 19 20" fill="none" xmlns="http://www.w3.org/2000/svg">
<path d="M5.275 8.075C4.89167 8.075 4.604 7.90433 4.412 7.563C4.22067 7.221 4.225 6.88333 4.425 6.55L8.15 0.475C8.35 0.158333 8.63333 0 9 0C9.36667 0 9.65 0.158333 9.85 0.475L13.575 6.55C13.775 6.88333 13.779 7.221 13.587 7.563C13.3957 7.90433 13.1083 8.075 12.725 8.075H5.275ZM14.5 19.075C13.25 19.075 12.1873 18.6377 11.312 17.763C10.4373 16.8877 10 15.825 10 14.575C10 13.325 10.4373 12.2623 11.312 11.387C12.1873 10.5123 13.25 10.075 14.5 10.075C15.75 10.075 16.8127 10.5123 17.688 11.387C18.5627 12.2623 19 13.325 19 14.575C19 15.825 18.5627 16.8877 17.688 17.763C16.8127 18.6377 15.75 19.075 14.5 19.075ZM1 18.575C0.716667 18.575 0.479333 18.479 0.288 18.287C0.0960001 18.0957 0 17.8583 0 17.575V11.575C0 11.2917 0.0960001 11.054 0.288 10.862C0.479333 10.6707 0.716667 10.575 1 10.575H7C7.28333 10.575 7.521 10.6707 7.713 10.862C7.90433 11.054 8 11.2917 8 11.575V17.575C8 17.8583 7.90433 18.0957 7.713 18.287C7.521 18.479 7.28333 18.575 7 18.575H1Z" fill="#C29F67"/>
</svg>
