<svg width="20" height="20" viewBox="0 0 20 20" fill="none" xmlns="http://www.w3.org/2000/svg">
<path d="M12.6597 9.10294L11.5445 8.71109C11.454 8.40967 11.3335 8.10825 11.1526 7.80683L11.665 6.75185C11.7253 6.63128 11.6952 6.48057 11.6047 6.42029L10.3086 5.12417C10.2182 5.03374 10.0675 5.0036 9.97706 5.06389L8.92209 5.5763C8.62066 5.42559 8.31924 5.30502 8.01782 5.18446L7.62597 4.06919C7.59583 3.94863 7.47526 3.8582 7.35469 3.8582H5.51602C5.39545 3.8582 5.27488 3.94863 5.2146 4.06919L4.82275 5.18446C4.52133 5.27488 4.21991 5.39545 3.91848 5.5763L2.89365 5.03374C2.77308 4.97346 2.65251 5.0036 2.53194 5.09403L1.23583 6.39014C1.1454 6.48057 1.11526 6.63128 1.17555 6.72171L1.68796 7.77668C1.53725 8.0781 1.41668 8.37953 1.32626 8.68095L0.210995 9.0728C0.0904266 9.13308 0 9.25365 0 9.37422V11.2129C0 11.3335 0.0904266 11.454 0.210995 11.5143L1.32626 11.9062C1.41668 12.2076 1.53725 12.509 1.7181 12.8104L1.20569 13.8654C1.1454 13.986 1.17555 14.1367 1.26597 14.2271L2.56209 15.5232C2.65251 15.6137 2.80322 15.6438 2.92379 15.5835L3.97877 15.0711C4.28019 15.2218 4.58161 15.3424 4.88303 15.4629L5.27488 16.5782C5.30502 16.6988 5.42559 16.7892 5.54616 16.7892H7.38483C7.5054 16.7892 7.62597 16.6988 7.65611 16.5782L8.04796 15.4629C8.34938 15.3725 8.65081 15.2519 8.95223 15.0711L10.0072 15.5835C10.1278 15.6438 10.2483 15.6137 10.3388 15.5232L11.6349 14.2271C11.7253 14.1367 11.7555 13.986 11.6952 13.8654L11.1526 12.7803C11.3033 12.4789 11.4239 12.1774 11.5445 11.876L12.6597 11.4842C12.7803 11.454 12.8707 11.3335 12.8707 11.1828V9.34408C12.8707 9.25365 12.7803 9.13308 12.6597 9.10294ZM6.42028 12.8707C5.0036 12.8707 3.8582 11.7253 3.8582 10.3086C3.8582 8.89194 5.0036 7.74654 6.42028 7.74654C7.83697 7.74654 8.98237 8.89194 8.98237 10.3086C8.98237 11.6952 7.83697 12.8707 6.42028 12.8707ZM19.08 3.10464L18.4772 2.89365C18.4169 2.74294 18.3566 2.59223 18.2963 2.47166L18.5676 1.89896C18.6279 1.77839 18.5977 1.65782 18.5073 1.53725L17.7839 0.783697C17.6935 0.69327 17.5428 0.663128 17.4523 0.723412L16.8796 0.994692C16.7289 0.934408 16.6083 0.874123 16.4576 0.813839L16.2466 0.210995C16.2165 0.0904266 16.0959 0 15.9754 0H14.8902C14.7697 0 14.6491 0.0904266 14.5888 0.210995L14.3778 0.813839C14.2271 0.874123 14.0764 0.934408 13.9558 0.994692L13.3831 0.723412C13.2626 0.663128 13.1118 0.69327 13.0214 0.783697L12.2679 1.53725C12.1774 1.62768 12.1473 1.77839 12.2076 1.89896L12.4789 2.47166C12.4186 2.62237 12.3583 2.74294 12.298 2.89365L11.6952 3.10464C11.5746 3.13479 11.4842 3.25536 11.4842 3.37592V4.46104C11.4842 4.58161 11.5746 4.70218 11.6952 4.73232L12.298 4.94332L12.4789 5.39545L12.2076 5.93801C12.1473 6.05858 12.1774 6.20929 12.2679 6.29972L13.0214 7.05327C13.1118 7.1437 13.2626 7.17384 13.3831 7.11355L13.9558 6.84228C14.1065 6.90256 14.2573 6.96284 14.3778 7.02313L14.5888 7.62597C14.619 7.74654 14.7395 7.83697 14.8902 7.83697H15.9754C16.0959 7.83697 16.2165 7.74654 16.2466 7.62597L16.4576 7.02313C16.6083 6.96284 16.7591 6.90256 16.8796 6.84228L17.4523 7.11355C17.5729 7.17384 17.6935 7.1437 17.814 7.05327L18.5676 6.29972C18.658 6.20929 18.6882 6.05858 18.6279 5.93801L18.3566 5.36531L18.5374 4.91318L19.1403 4.70218C19.2609 4.67204 19.3513 4.55147 19.3513 4.4309V3.34578C19.291 3.25536 19.2006 3.13479 19.08 3.10464ZM15.4027 5.42559C14.5587 5.42559 13.8955 4.76246 13.8955 3.91848C13.8955 3.10464 14.5587 2.41137 15.4027 2.41137C16.2165 2.41137 16.9098 3.0745 16.9098 3.91848C16.9098 4.76246 16.2165 5.42559 15.4027 5.42559Z" fill="#C29F67"/>
<path d="M19.08 12.9309L18.236 12.6295C18.1757 12.3883 18.0853 12.1773 17.9647 11.9663L18.3566 11.1525C18.4168 11.0319 18.3867 10.9114 18.2963 10.8209L17.2714 9.79609C17.181 9.70567 17.0303 9.67552 16.9097 9.73581L16.126 10.1578C15.915 10.0372 15.6739 9.9468 15.4629 9.88652L15.1916 9.04254C15.1615 8.92197 15.0409 8.83154 14.8902 8.83154H13.4434C13.3831 8.83154 13.353 8.83154 13.2927 8.86169C13.3831 9.0124 13.4434 9.19325 13.4434 9.3741V11.2128C13.4434 11.6046 13.2022 11.9362 12.8405 12.0568L11.9966 12.3582C11.9363 12.5089 11.876 12.6596 11.8157 12.7802L12.2076 13.5639C12.3884 13.9256 12.3281 14.3174 12.0267 14.6188L10.7306 15.915C10.5799 16.0657 10.399 16.1561 10.2182 16.1862L9.94689 16.7288C9.88661 16.8494 9.91675 16.9699 10.0072 17.0604L11.032 18.0852C11.1224 18.1756 11.2731 18.2058 11.3937 18.1455L12.2076 17.7536C12.4185 17.8742 12.6597 17.9646 12.8707 18.0249L13.1721 18.8689C13.2022 18.9895 13.3228 19.0799 13.4735 19.0799H14.9204C15.0409 19.0799 15.1615 18.9895 15.2218 18.8689L15.4931 18.0249C15.7342 17.9345 15.9452 17.8441 16.1562 17.7536L16.97 18.1455C17.0906 18.2058 17.2112 18.1756 17.3317 18.0852L18.3566 17.0604C18.447 16.9699 18.4771 16.8192 18.4168 16.7288L18.025 15.915C18.1456 15.704 18.236 15.4628 18.2963 15.2518L19.1403 14.9504C19.2608 14.9203 19.3513 14.7997 19.3513 14.649V13.2022C19.291 13.0816 19.2005 12.9912 19.08 12.9309ZM14.4682 15.9752C14.203 15.9752 13.9404 15.923 13.6954 15.8215C13.4504 15.72 13.2277 15.5713 13.0402 15.3837C12.8527 15.1962 12.7039 14.9736 12.6024 14.7286C12.5009 14.4835 12.4487 14.2209 12.4487 13.9557C12.4487 13.6905 12.5009 13.4279 12.6024 13.1829C12.7039 12.9379 12.8527 12.7152 13.0402 12.5277C13.2277 12.3402 13.4504 12.1914 13.6954 12.0899C13.9404 11.9884 14.203 11.9362 14.4682 11.9362C15.0038 11.9362 15.5175 12.149 15.8962 12.5277C16.275 12.9064 16.4877 13.4201 16.4877 13.9557C16.4877 14.4913 16.275 15.005 15.8962 15.3837C15.5175 15.7625 15.0038 15.9752 14.4682 15.9752Z" fill="#C29F67"/>
</svg>
