<svg width="12" height="20" viewBox="0 0 12 20" fill="none" xmlns="http://www.w3.org/2000/svg">
<path d="M5.724 19.08C4.0386 19.08 2.66325 18.8137 1.59795 18.281C0.53265 17.7484 0 17.0607 0 16.218C0 15.6615 0.23055 15.1765 0.69165 14.7631C1.15275 14.3497 1.78875 14.0238 2.59965 13.7853L3.1482 15.5979C2.8779 15.6774 2.63145 15.7768 2.40885 15.896C2.18625 16.0153 2.0352 16.1226 1.9557 16.218C2.1624 16.4724 2.6394 16.695 3.3867 16.8858C4.134 17.0766 4.9131 17.172 5.724 17.172C6.5349 17.172 7.31798 17.0766 8.07323 16.8858C8.82847 16.695 9.30945 16.4724 9.51615 16.218C9.43665 16.1226 9.2856 16.0153 9.063 15.896C8.8404 15.7768 8.59395 15.6774 8.32365 15.5979L8.8722 13.7853C9.6831 14.0238 10.3151 14.3497 10.7683 14.7631C11.2214 15.1765 11.448 15.6615 11.448 16.218C11.448 17.0607 10.9153 17.7484 9.85005 18.281C8.78475 18.8137 7.4094 19.08 5.724 19.08ZM5.724 16.218C5.5491 16.218 5.3901 16.1663 5.247 16.063C5.1039 15.9596 5.00055 15.8205 4.93695 15.6456C4.57125 14.5167 4.11015 13.5707 3.55365 12.8074C2.99715 12.0442 2.45655 11.3128 1.93185 10.6132C1.42305 9.91365 0.981825 9.1902 0.608175 8.4429C0.234525 7.6956 0.0477 6.7734 0.0477 5.6763C0.0477 4.0863 0.59625 2.74275 1.69335 1.64565C2.79045 0.54855 4.134 0 5.724 0C7.314 0 8.65755 0.54855 9.75465 1.64565C10.8517 2.74275 11.4003 4.0863 11.4003 5.6763C11.4003 6.7734 11.2175 7.6956 10.8517 8.4429C10.486 9.1902 10.0408 9.91365 9.51615 10.6132C9.00735 11.3128 8.47073 12.0442 7.90627 12.8074C7.34183 13.5707 6.87675 14.5167 6.51105 15.6456C6.44745 15.8205 6.3441 15.9596 6.201 16.063C6.0579 16.1663 5.8989 16.218 5.724 16.218ZM5.724 7.70355C6.2805 7.70355 6.7575 7.5048 7.155 7.1073C7.5525 6.7098 7.75125 6.2328 7.75125 5.6763C7.75125 5.1198 7.5525 4.6428 7.155 4.2453C6.7575 3.8478 6.2805 3.64905 5.724 3.64905C5.1675 3.64905 4.6905 3.8478 4.293 4.2453C3.8955 4.6428 3.69675 5.1198 3.69675 5.6763C3.69675 6.2328 3.8955 6.7098 4.293 7.1073C4.6905 7.5048 5.1675 7.70355 5.724 7.70355Z" fill="#C29F67"/>
</svg>
