<svg width="18" height="20" viewBox="0 0 18 20" fill="none" xmlns="http://www.w3.org/2000/svg">
<path d="M7.37216 9.61821L1.27964 6.30714C1.00864 6.15993 0.688614 6.16601 0.423427 6.32365C0.15824 6.48126 0 6.75953 0 7.06803V14.749C0.000167217 14.902 0.0407679 15.0522 0.117688 15.1844C0.194607 15.3166 0.305112 15.4261 0.438003 15.5019L6.53064 18.9655C6.66495 19.0419 6.81182 19.08 6.95872 19.08C7.10843 19.08 7.25809 19.0404 7.39419 18.9612C7.66374 18.8043 7.82467 18.5245 7.82467 18.2126V10.3791C7.82467 10.0615 7.65133 9.76993 7.37216 9.61821ZM15.9192 4.30921C15.9193 4.15066 15.8757 3.99514 15.7933 3.85972C15.7108 3.7243 15.5926 3.61421 15.4517 3.54153L8.80803 0.0971911C8.68406 0.0329249 8.54638 -0.000417937 8.40674 3.95436e-06C8.2671 0.000425846 8.12964 0.0345999 8.00605 0.0996141L1.46006 3.54395C1.32045 3.61719 1.20353 3.72722 1.12197 3.86213C1.04041 3.99705 0.997309 4.15171 0.997341 4.30936C0.996933 4.46699 1.03966 4.62172 1.12088 4.7568C1.20211 4.89189 1.31874 5.00218 1.45816 5.07573L8.00419 8.54158C8.12823 8.60726 8.26638 8.64179 8.40673 8.64221C8.54708 8.64262 8.68543 8.60891 8.80985 8.54397L15.4537 5.07819C15.5944 5.00514 15.7123 4.89472 15.7944 4.75907C15.8765 4.62342 15.9197 4.46778 15.9192 4.30921ZM16.6013 6.32365C16.3362 6.16601 16.0161 6.15978 15.7452 6.3071L9.65246 9.61821C9.51553 9.69257 9.40122 9.80251 9.32159 9.93643C9.24196 10.0704 9.19996 10.2233 9.20003 10.3791V18.2126C9.20003 18.5245 9.36095 18.8043 9.6305 18.9611C9.7666 19.0403 9.91623 19.0799 10.066 19.0799C10.2128 19.0799 10.3598 19.0418 10.4941 18.9655L16.5867 15.5018C16.7196 15.4261 16.8301 15.3165 16.907 15.1843C16.9839 15.0521 17.0245 14.9019 17.0247 14.749V7.06803C17.0247 6.75953 16.8665 6.48126 16.6013 6.32365Z" fill="#C29F67"/>
</svg>
