<svg width="14" height="20" viewBox="0 0 14 20" fill="none" xmlns="http://www.w3.org/2000/svg">
<path d="M3.66284 13.9557C3.9378 13.951 4.20872 14.0222 4.44575 14.1617C4.68278 14.3011 4.87671 14.5033 5.00616 14.7459C5.21286 14.5752 5.3812 14.3628 5.50015 14.1226C5.6191 13.8824 5.686 13.6197 5.69646 13.3519C5.72609 12.731 5.56479 12.116 5.23427 11.5896C4.87916 11.0275 4.56188 10.4425 4.28456 9.83822C3.81093 8.81007 3.46977 7.72595 3.26924 6.61186C3.23346 6.41506 3.19469 6.22571 3.15294 6.0468C3.08241 5.7361 2.90841 5.45859 2.65946 5.25975C2.41051 5.06092 2.10139 4.95257 1.78279 4.95246C1.71868 4.95246 1.66053 4.95843 1.59791 4.96439L1.57406 4.96588C1.5124 4.97553 1.45132 4.98862 1.39112 5.00509V4.39635C1.72054 4.39156 2.03728 4.26855 2.28358 4.04975C2.52989 3.83095 2.68937 3.53092 2.73295 3.20436L2.95167 1.54869C2.99907 1.18809 2.90154 0.823416 2.68047 0.534622C2.45939 0.245828 2.13282 0.0564876 1.77235 0.00811778C1.7142 0.000663171 0.506557 -0.144851 0.230737 1.18893L0.0115711 2.84579C-0.0332727 3.18911 0.0532222 3.5367 0.253738 3.81897C0.454254 4.10123 0.753992 4.29734 1.09294 4.36802V5.11751C0.739101 5.2875 0.458402 5.57935 0.302312 5.93953C0.146222 6.29971 0.125204 6.70409 0.243111 7.07852L2.51677 14.4675C2.66031 14.3055 2.83682 14.176 3.03448 14.0877C3.23213 13.9995 3.44637 13.9544 3.66284 13.9557ZM13.9234 14.8398C13.8967 14.6128 13.8241 14.3935 13.7101 14.1954C13.596 13.9973 13.4429 13.8244 13.2599 13.6873C13.0788 13.5466 12.8715 13.4436 12.65 13.3842C12.4285 13.3248 12.1974 13.3102 11.9703 13.3414L5.80231 14.1644C5.65878 14.5072 5.42673 14.8056 5.12991 15.0292C5.17952 15.1803 5.20468 15.3383 5.20446 15.4973C5.20402 15.9061 5.04148 16.298 4.75247 16.5871C4.46347 16.8762 4.07161 17.0388 3.66284 17.0394C3.61215 17.0394 3.56295 17.0364 3.51375 17.0319V17.6641H12.8111C12.8111 17.6641 14.1755 17.0823 13.9234 14.8398ZM3.51375 17.9618V18.169C3.51399 18.4106 3.61004 18.6421 3.78082 18.8129C3.95161 18.9837 4.18318 19.0798 4.4247 19.08H12.006C12.2473 19.0794 12.4786 18.9832 12.649 18.8125C12.8195 18.6417 12.9153 18.4103 12.9155 18.169V17.9529L12.9021 17.9618H3.51375Z" fill="#C29F67"/>
</svg>
