<svg width="18" height="20" viewBox="0 0 18 20" fill="none" xmlns="http://www.w3.org/2000/svg">
<path d="M15.264 1.908H14.31V0H12.402V1.908H4.77V0H2.862V1.908H1.908C0.84906 1.908 0.00953999 2.7666 0.00953999 3.816L0 17.172C0 18.2214 0.84906 19.08 1.908 19.08H15.264C16.3134 19.08 17.172 18.2214 17.172 17.172V3.816C17.172 2.7666 16.3134 1.908 15.264 1.908ZM15.264 17.172H1.908V7.632H15.264V17.172ZM5.724 11.448H3.816V9.54H5.724V11.448ZM9.54 11.448H7.632V9.54H9.54V11.448ZM13.356 11.448H11.448V9.54H13.356V11.448ZM5.724 15.264H3.816V13.356H5.724V15.264ZM9.54 15.264H7.632V13.356H9.54V15.264ZM13.356 15.264H11.448V13.356H13.356V15.264Z" fill="#C29F67"/>
</svg>
