<svg width="67" height="49" viewBox="0 0 67 49" fill="none" xmlns="http://www.w3.org/2000/svg">
<g clip-path="url(#clip0_2262_4233)" filter="url(#filter0_dd_2262_4233)">
<path d="M55.8333 6.875H11.1667C9.69391 6.875 8.5 8.0632 8.5 9.52893V35.4711C8.5 36.9368 9.69391 38.125 11.1667 38.125H55.8333C57.3061 38.125 58.5 36.9368 58.5 35.4711V9.52893C58.5 8.0632 57.3061 6.875 55.8333 6.875Z" fill="#2557D6"/>
<path d="M14.5001 21.778H16.3254L16.7369 20.7942H17.6583L18.0688 21.778H21.66V21.0258L21.9806 21.7812H23.8449L24.1655 21.0146V21.778H33.0905L33.0863 20.1631H33.259C33.3799 20.1672 33.4152 20.1783 33.4152 20.3762V21.778H38.0313V21.402C38.4036 21.5998 38.9827 21.778 39.7447 21.778H41.6867L42.1023 20.7942H43.0237L43.4301 21.778H47.1724V20.8435L47.7391 21.778H50.7379V15.6006H47.7701V16.3301L47.3545 15.6006H44.3092V16.3301L43.9275 15.6006H39.814C39.1255 15.6006 38.5202 15.6958 38.0313 15.9613V15.6006H35.1926V15.9613C34.8815 15.6877 34.4575 15.6006 33.9861 15.6006H23.6153L22.9195 17.1961L22.2049 15.6006H18.9384V16.3301L18.5795 15.6006H15.7937L14.5 18.5377L14.5001 21.778ZM26.0216 20.8869H24.9264L24.9224 17.418L23.3734 20.8869H22.4354L20.8824 17.415V20.8869H18.7096L18.2991 19.899H16.0749L15.6602 20.8869H14.5L16.413 16.4578H18.0001L19.817 20.6513V16.4578H21.5606L22.9586 19.4624L24.2429 16.4578H26.0214L26.0216 20.8869ZM17.934 18.9798L17.2029 17.2141L16.4759 18.9798H17.934ZM30.3799 20.8869H26.8113V16.4578H30.3799V17.3801H27.8796V18.1784H30.3199V19.0864H27.8796V19.9709H30.3799V20.8869ZM35.4089 17.6506C35.4089 18.3568 34.9333 18.7216 34.6562 18.8312C34.8899 18.9194 35.0896 19.0751 35.1846 19.2042C35.3354 19.4245 35.3615 19.6213 35.3615 20.0168V20.8869H34.284L34.2799 20.3284C34.2799 20.0619 34.3057 19.6786 34.1113 19.4655C33.9552 19.3097 33.7173 19.2759 33.3327 19.2759H32.1859V20.8869H31.1177V16.4578H33.5748C34.1207 16.4578 34.523 16.4721 34.8683 16.6699C35.2063 16.8678 35.4089 17.1566 35.4089 17.6506ZM34.0585 18.3083C33.9117 18.3966 33.7381 18.3996 33.5301 18.3996H32.2323V17.4158H33.5477C33.7339 17.4158 33.9282 17.4241 34.0543 17.4957C34.1929 17.5602 34.2786 17.6975 34.2786 17.8872C34.2786 18.0808 34.1971 18.2366 34.0585 18.3083ZM37.1221 20.8869H36.0321V16.4578H37.1221V20.8869ZM49.7756 20.8869H48.2618L46.2369 17.5626V20.8869H44.0613L43.6456 19.899H41.4265L41.0232 20.8869H39.7731C39.2539 20.8869 38.5964 20.7731 38.2241 20.397C37.8487 20.021 37.6534 19.5116 37.6534 18.7061C37.6534 18.0493 37.7701 17.4488 38.2292 16.9742C38.5746 16.6207 39.1154 16.4578 39.8516 16.4578H40.8858V17.4068H39.8733C39.4834 17.4068 39.2633 17.4643 39.0513 17.6692C38.8692 17.8557 38.7442 18.2082 38.7442 18.6725C38.7442 19.147 38.8394 19.4891 39.0379 19.7126C39.2024 19.8879 39.5012 19.9411 39.7824 19.9411H40.2622L41.7678 16.4579H43.3685L45.1771 20.6473V16.4579H46.8036L48.6814 19.5426V16.4579H49.7756V20.8869ZM43.2823 18.9798L42.543 17.2141L41.8078 18.9798H43.2823Z" fill="white"/>
<path d="M52.4978 27.9597C52.2383 28.3358 51.7327 28.5264 51.0481 28.5264H48.9851V27.5764H51.0398C51.2436 27.5764 51.3862 27.5498 51.4721 27.4667C51.5465 27.3982 51.5984 27.2987 51.5984 27.1778C51.5984 27.0487 51.5465 26.9463 51.4679 26.8848C51.3904 26.8172 51.2776 26.7865 51.0915 26.7865C50.0885 26.7527 48.8371 26.8172 48.8371 25.4153C48.8371 24.7727 49.2488 24.0963 50.3698 24.0963H52.4977L52.4978 23.2148H50.5207C49.924 23.2148 49.4906 23.3565 49.1837 23.5766V23.2148H46.2594C45.7918 23.2148 45.2429 23.3297 44.9832 23.5766V23.2148H39.7613V23.5766C39.3457 23.2795 38.6444 23.2148 38.3208 23.2148H34.8763V23.5766C34.5475 23.2611 33.8163 23.2148 33.3707 23.2148H29.5157L28.6336 24.161L27.8074 23.2148H22.0489V29.3965H27.699L28.608 28.4354L29.4642 29.3965L32.947 29.3996V27.9454H33.2894C33.7515 27.9525 34.2965 27.934 34.7773 27.728V29.3964H37.65V27.7852H37.7886C37.9654 27.7852 37.9828 27.7924 37.9828 27.9676V29.3962H46.7094C47.2634 29.3962 47.8425 29.2557 48.1632 29.0007V29.3962H50.9313C51.5073 29.3962 52.0698 29.3162 52.4978 29.1113V27.9597ZM35.195 25.5819C35.195 26.8126 34.2685 27.0667 33.3347 27.0667H32.0017V28.5527H29.9254L28.61 27.0861L27.243 28.5527H23.0115V24.1224H27.3081L28.6224 25.5746L29.9812 24.1224H33.3947C34.2424 24.1224 35.195 24.355 35.195 25.5819ZM26.7019 27.6208H24.0754V26.7394H26.4207V25.8355H24.0754V25.03H26.7537L27.9222 26.3211L26.7019 27.6208ZM30.934 28.1281L29.2938 26.3235L30.934 24.5762V28.1281ZM33.3595 26.1582H31.979V25.03H33.3719C33.7576 25.03 34.0253 25.1858 34.0253 25.5732C34.0253 25.9564 33.77 26.1582 33.3595 26.1582ZM40.5918 24.1224H44.1572V25.0386H41.6557V25.8441H44.0962V26.748H41.6557V27.6294L44.1572 27.6334V28.5527H40.5918V24.1224ZM39.2211 26.4939C39.4589 26.5808 39.6533 26.7367 39.7444 26.8658C39.8953 27.0821 39.9171 27.2839 39.9214 27.6744V28.5527H38.849V27.9984C38.849 27.7319 38.8748 27.3372 38.6763 27.1312C38.5202 26.9725 38.2822 26.9346 37.8925 26.9346H36.7509V28.5527H35.6775V24.1224H38.1438C38.6846 24.1224 39.0785 24.1461 39.4291 24.3315C39.7663 24.5334 39.9783 24.8099 39.9783 25.3153C39.9782 26.0224 39.5023 26.3832 39.2211 26.4939ZM38.6173 25.9338C38.4744 26.0178 38.2977 26.025 38.0898 26.025H36.7921V25.03H38.1075C38.2977 25.03 38.488 25.034 38.6173 25.11C38.7557 25.1818 38.8385 25.319 38.8385 25.5086C38.8385 25.6981 38.7557 25.8508 38.6173 25.9338ZM48.261 26.216C48.469 26.4293 48.5805 26.6987 48.5805 27.1546C48.5805 28.1077 47.9797 28.5525 46.9023 28.5525H44.8217V27.6026H46.894C47.0966 27.6026 47.2403 27.576 47.3303 27.4929C47.4038 27.4243 47.4565 27.3248 47.4565 27.2039C47.4565 27.0749 47.3995 26.9724 47.3261 26.9109C47.2445 26.8433 47.1318 26.8126 46.9457 26.8126C45.9467 26.7788 44.6956 26.8433 44.6956 25.4414C44.6956 24.7988 45.103 24.1224 46.2229 24.1224H48.3645V25.0653H46.4049C46.2107 25.0653 46.0843 25.0726 45.9769 25.1454C45.8599 25.2171 45.8165 25.3236 45.8165 25.4641C45.8165 25.6312 45.9158 25.7449 46.0502 25.7941C46.1629 25.833 46.284 25.8443 46.466 25.8443L47.041 25.8597C47.621 25.8737 48.019 25.9731 48.261 26.216ZM52.5 25.03H50.5531C50.3587 25.03 50.2295 25.0372 50.1208 25.11C50.0081 25.1818 49.9647 25.2883 49.9647 25.4288C49.9647 25.5959 50.0598 25.7096 50.1983 25.7588C50.311 25.7977 50.432 25.809 50.6099 25.809L51.1889 25.8244C51.7732 25.8387 52.1631 25.9382 52.4009 26.1809C52.4442 26.2147 52.4702 26.2527 52.5 26.2906V25.03Z" fill="white"/>
</g>
<defs>
<filter id="filter0_dd_2262_4233" x="0.5" y="0.875" width="66" height="47.25" filterUnits="userSpaceOnUse" color-interpolation-filters="sRGB">
<feFlood flood-opacity="0" result="BackgroundImageFix"/>
<feColorMatrix in="SourceAlpha" type="matrix" values="0 0 0 0 0 0 0 0 0 0 0 0 0 0 0 0 0 0 127 0" result="hardAlpha"/>
<feMorphology radius="2" operator="dilate" in="SourceAlpha" result="effect1_dropShadow_2262_4233"/>
<feOffset dy="2"/>
<feGaussianBlur stdDeviation="3"/>
<feColorMatrix type="matrix" values="0 0 0 0 0 0 0 0 0 0 0 0 0 0 0 0 0 0 0.15 0"/>
<feBlend mode="normal" in2="BackgroundImageFix" result="effect1_dropShadow_2262_4233"/>
<feColorMatrix in="SourceAlpha" type="matrix" values="0 0 0 0 0 0 0 0 0 0 0 0 0 0 0 0 0 0 127 0" result="hardAlpha"/>
<feOffset dy="1"/>
<feGaussianBlur stdDeviation="1"/>
<feColorMatrix type="matrix" values="0 0 0 0 0 0 0 0 0 0 0 0 0 0 0 0 0 0 0.3 0"/>
<feBlend mode="normal" in2="effect1_dropShadow_2262_4233" result="effect2_dropShadow_2262_4233"/>
<feBlend mode="normal" in="SourceGraphic" in2="effect2_dropShadow_2262_4233" result="shape"/>
</filter>
<clipPath id="clip0_2262_4233">
<rect width="50" height="31.25" fill="white" transform="translate(8.5 6.875)"/>
</clipPath>
</defs>
</svg>
