<svg width="32" height="20" viewBox="0 0 32 20" fill="none" xmlns="http://www.w3.org/2000/svg">
<path d="M30.08 0H1.92C0.861437 0 0 0.791762 0 1.76471V18.2353C0 19.2082 0.861437 20 1.92 20H30.08C31.1386 20 32 19.2082 32 18.2353V1.76471C32 0.791762 31.1386 0 30.08 0ZM30.72 18.2353C30.72 18.5588 30.432 18.8235 30.08 18.8235H1.92C1.56675 18.8235 1.28 18.5588 1.28 18.2353V1.76471C1.28 1.43997 1.56675 1.17647 1.92 1.17647H30.08C30.432 1.17647 30.72 1.43997 30.72 1.76471V18.2353Z" fill="#C29F67"/>
<path d="M0.639648 5.29395H31.3597V7.64689H0.639648V5.29395Z" fill="#C29F67"/>
<path d="M31.36 4.70605H0.64C0.28675 4.70605 0 4.96955 0 5.29429V7.64723C0 7.97197 0.28675 8.23547 0.64 8.23547H31.36C31.7133 8.23547 32 7.97197 32 7.64723V5.29429C32 4.96955 31.7133 4.70605 31.36 4.70605ZM30.72 7.059H1.28V5.88253H30.72V7.059ZM17.28 11.7649H5.76C5.40675 11.7649 5.12 12.0284 5.12 12.3531C5.12 12.6778 5.40675 12.9414 5.76 12.9414H17.28C17.6333 12.9414 17.92 12.6778 17.92 12.3531C17.92 12.0284 17.6333 11.7649 17.28 11.7649ZM12.16 14.1178H5.76C5.40675 14.1178 5.12 14.3814 5.12 14.7061C5.12 15.0307 5.40675 15.2943 5.76 15.2943H12.16C12.5132 15.2943 12.8 15.0307 12.8 14.7061C12.8 14.3814 12.5132 14.1178 12.16 14.1178Z" fill="#C29F67"/>
</svg>
