<svg width="16" height="10" viewBox="0 0 16 10" fill="none" xmlns="http://www.w3.org/2000/svg">
<path d="M15.04 0H0.96C0.430719 0 0 0.395881 0 0.882353V9.11765C0 9.60412 0.430719 10 0.96 10H15.04C15.5693 10 16 9.60412 16 9.11765V0.882353C16 0.395881 15.5693 0 15.04 0ZM15.36 9.11765C15.36 9.27941 15.216 9.41176 15.04 9.41176H0.96C0.783375 9.41176 0.64 9.27941 0.64 9.11765V0.882353C0.64 0.719985 0.783375 0.588235 0.96 0.588235H15.04C15.216 0.588235 15.36 0.719985 15.36 0.882353V9.11765Z" fill="#C29F67"/>
<path d="M0.319813 2.64697H15.6798V3.82344H0.319813V2.64697Z" fill="#C29F67"/>
<path d="M15.68 2.35303H0.32C0.143375 2.35303 0 2.48478 0 2.64715V3.82362C0 3.98598 0.143375 4.11773 0.32 4.11773H15.68C15.8566 4.11773 16 3.98598 16 3.82362V2.64715C16 2.48478 15.8566 2.35303 15.68 2.35303ZM15.36 3.5295H0.64V2.94126H15.36V3.5295ZM8.64 5.88244H2.88C2.70338 5.88244 2.56 6.01422 2.56 6.17656C2.56 6.3389 2.70338 6.47068 2.88 6.47068H8.64C8.81663 6.47068 8.96 6.3389 8.96 6.17656C8.96 6.01419 8.81663 5.88244 8.64 5.88244ZM6.08 7.05891H2.88C2.70338 7.05891 2.56 7.19069 2.56 7.35303C2.56 7.51537 2.70338 7.64715 2.88 7.64715H6.08C6.25662 7.64715 6.4 7.51537 6.4 7.35303C6.4 7.19069 6.25662 7.05891 6.08 7.05891Z" fill="#C29F67"/>
</svg>
