<svg xmlns="http://www.w3.org/2000/svg" xmlns:xlink="http://www.w3.org/1999/xlink" width="1080" zoomAndPan="magnify" viewBox="0 0 810 809.999993" height="1080" preserveAspectRatio="xMidYMid meet" version="1.0"><defs><clipPath id="709974a059"><path d="M 21.863281 247 L 298.613281 247 L 298.613281 248 L 21.863281 248 Z M 21.863281 247 " clip-rule="nonzero"/></clipPath></defs><g clip-path="url(#709974a059)"><path fill="#ebebeb" d="M 0 247.796875 L 324 247.796875 L 324 247.957031 L 0 247.957031 Z M 0 247.796875 " fill-opacity="1" fill-rule="nonzero"/></g><path fill="#ebebeb" d="M 188.054688 252.207031 L 204.554688 252.207031 L 204.554688 252.371094 L 188.054688 252.371094 Z M 188.054688 252.207031 " fill-opacity="1" fill-rule="nonzero"/><path fill="#ebebeb" d="M 256.03125 255.714844 L 295.125 255.714844 L 295.125 255.875 L 256.03125 255.875 Z M 256.03125 255.714844 " fill-opacity="1" fill-rule="nonzero"/><path fill="#ebebeb" d="M 144.152344 252.285156 L 184.542969 252.285156 L 184.542969 252.449219 L 144.152344 252.449219 Z M 144.152344 252.285156 " fill-opacity="1" fill-rule="nonzero"/><path fill="#ebebeb" d="M 109.511719 257.132812 L 117.960938 257.132812 L 117.960938 257.292969 L 109.511719 257.292969 Z M 109.511719 257.132812 " fill-opacity="1" fill-rule="nonzero"/><path fill="#ebebeb" d="M 126.171875 257.132812 L 164.648438 257.132812 L 164.648438 257.292969 L 126.171875 257.292969 Z M 126.171875 257.132812 " fill-opacity="1" fill-rule="nonzero"/><path fill="#ebebeb" d="M 33.992188 254.398438 L 58.910156 254.398438 L 58.910156 254.558594 L 33.992188 254.558594 Z M 33.992188 254.398438 " fill-opacity="1" fill-rule="nonzero"/><path fill="#ebebeb" d="M 153.574219 218.894531 L 28.453125 218.894531 C 27.964844 218.894531 27.492188 218.800781 27.039062 218.609375 C 26.585938 218.421875 26.1875 218.15625 25.839844 217.808594 C 25.496094 217.460938 25.226562 217.0625 25.042969 216.609375 C 24.855469 216.15625 24.761719 215.683594 24.761719 215.195312 L 24.761719 39.308594 C 24.765625 38.820312 24.859375 38.351562 25.050781 37.902344 C 25.238281 37.453125 25.507812 37.058594 25.851562 36.714844 C 26.199219 36.371094 26.597656 36.105469 27.046875 35.921875 C 27.496094 35.734375 27.964844 35.640625 28.453125 35.640625 L 153.574219 35.640625 C 154.066406 35.640625 154.539062 35.734375 154.992188 35.921875 C 155.445312 36.109375 155.84375 36.375 156.191406 36.722656 C 156.539062 37.070312 156.808594 37.472656 156.996094 37.925781 C 157.183594 38.378906 157.277344 38.847656 157.277344 39.339844 L 157.277344 215.195312 C 157.277344 215.683594 157.183594 216.15625 156.996094 216.609375 C 156.808594 217.0625 156.539062 217.464844 156.191406 217.8125 C 155.84375 218.15625 155.445312 218.425781 154.992188 218.613281 C 154.539062 218.800781 154.066406 218.894531 153.574219 218.894531 Z M 28.453125 35.769531 C 27.984375 35.769531 27.535156 35.859375 27.101562 36.039062 C 26.667969 36.222656 26.289062 36.476562 25.957031 36.808594 C 25.625 37.140625 25.371094 37.523438 25.191406 37.957031 C 25.011719 38.386719 24.921875 38.839844 24.921875 39.308594 L 24.921875 215.195312 C 24.921875 215.664062 25.011719 216.113281 25.191406 216.546875 C 25.371094 216.980469 25.625 217.363281 25.957031 217.695312 C 26.289062 218.027344 26.667969 218.28125 27.101562 218.460938 C 27.535156 218.640625 27.984375 218.730469 28.453125 218.730469 L 153.574219 218.730469 C 154.042969 218.730469 154.496094 218.640625 154.929688 218.460938 C 155.363281 218.28125 155.746094 218.027344 156.074219 217.695312 C 156.40625 217.363281 156.664062 216.980469 156.84375 216.546875 C 157.023438 216.113281 157.113281 215.664062 157.113281 215.195312 L 157.113281 39.308594 C 157.113281 38.839844 157.023438 38.386719 156.84375 37.953125 C 156.664062 37.523438 156.40625 37.140625 156.074219 36.808594 C 155.746094 36.476562 155.363281 36.21875 154.929688 36.039062 C 154.496094 35.859375 154.042969 35.769531 153.574219 35.769531 Z M 28.453125 35.769531 " fill-opacity="1" fill-rule="nonzero"/><path fill="#ebebeb" d="M 293.746094 218.894531 L 168.617188 218.894531 C 168.125 218.894531 167.652344 218.800781 167.199219 218.609375 C 166.75 218.421875 166.347656 218.15625 166 217.808594 C 165.65625 217.460938 165.386719 217.0625 165.199219 216.609375 C 165.011719 216.15625 164.917969 215.683594 164.914062 215.195312 L 164.914062 39.308594 C 164.921875 38.820312 165.019531 38.351562 165.207031 37.902344 C 165.398438 37.453125 165.667969 37.058594 166.011719 36.714844 C 166.359375 36.371094 166.757812 36.105469 167.207031 35.921875 C 167.660156 35.734375 168.128906 35.640625 168.617188 35.640625 L 293.746094 35.640625 C 294.230469 35.640625 294.699219 35.734375 295.148438 35.921875 C 295.597656 36.109375 295.996094 36.375 296.339844 36.71875 C 296.6875 37.058594 296.953125 37.457031 297.140625 37.90625 C 297.332031 38.351562 297.429688 38.820312 297.433594 39.308594 L 297.433594 215.195312 C 297.433594 215.683594 297.339844 216.15625 297.152344 216.605469 C 296.964844 217.058594 296.699219 217.460938 296.351562 217.804688 C 296.007812 218.152344 295.609375 218.421875 295.15625 218.609375 C 294.703125 218.796875 294.234375 218.894531 293.746094 218.894531 Z M 168.617188 35.769531 C 168.148438 35.769531 167.695312 35.859375 167.261719 36.039062 C 166.828125 36.21875 166.449219 36.476562 166.117188 36.808594 C 165.785156 37.140625 165.527344 37.523438 165.347656 37.953125 C 165.167969 38.386719 165.078125 38.839844 165.078125 39.308594 L 165.078125 215.195312 C 165.078125 215.664062 165.167969 216.113281 165.347656 216.546875 C 165.527344 216.980469 165.785156 217.363281 166.117188 217.695312 C 166.449219 218.027344 166.828125 218.28125 167.261719 218.460938 C 167.695312 218.640625 168.148438 218.730469 168.617188 218.730469 L 293.746094 218.730469 C 294.214844 218.730469 294.664062 218.640625 295.097656 218.460938 C 295.53125 218.28125 295.914062 218.027344 296.246094 217.695312 C 296.578125 217.363281 296.832031 216.980469 297.011719 216.546875 C 297.191406 216.113281 297.28125 215.664062 297.28125 215.195312 L 297.28125 39.308594 C 297.28125 38.839844 297.191406 38.386719 297.011719 37.953125 C 296.832031 37.523438 296.578125 37.140625 296.246094 36.808594 C 295.914062 36.476562 295.53125 36.21875 295.097656 36.039062 C 294.664062 35.859375 294.214844 35.769531 293.746094 35.769531 Z M 168.617188 35.769531 " fill-opacity="1" fill-rule="nonzero"/><path fill="#e6e6e6" d="M 126.980469 191.59375 L 83.953125 191.59375 L 81.34375 161.460938 L 124.371094 161.460938 Z M 126.980469 191.59375 " fill-opacity="1" fill-rule="nonzero"/><path fill="#f0f0f0" d="M 129.210938 191.59375 L 86.183594 191.59375 L 83.574219 161.460938 L 126.601562 161.460938 Z M 129.210938 191.59375 " fill-opacity="1" fill-rule="nonzero"/><path fill="#ffffff" d="M 92.066406 185.121094 L 90.628906 167.929688 L 120.714844 167.929688 L 122.15625 185.121094 Z M 92.066406 185.121094 " fill-opacity="1" fill-rule="nonzero"/><path fill="#e6e6e6" d="M 131.609375 191.59375 L 136.65625 191.59375 L 136.65625 247.796875 L 131.609375 247.796875 Z M 131.609375 191.59375 " fill-opacity="1" fill-rule="nonzero"/><path fill="#f0f0f0" d="M 134.746094 191.59375 L 138.25 191.59375 L 138.25 247.796875 L 134.746094 247.796875 Z M 134.746094 191.59375 " fill-opacity="1" fill-rule="nonzero"/><path fill="#f0f0f0" d="M 138.25 197.796875 L 89.386719 197.796875 L 89.386719 191.59375 L 138.25 191.59375 Z M 138.25 197.796875 " fill-opacity="1" fill-rule="nonzero"/><path fill="#e6e6e6" d="M 86.0625 197.796875 L 91.109375 197.796875 L 91.109375 247.796875 L 86.0625 247.796875 Z M 86.0625 197.796875 " fill-opacity="1" fill-rule="nonzero"/><path fill="#f0f0f0" d="M 89.195312 197.796875 L 92.703125 197.796875 L 92.703125 247.796875 L 89.195312 247.796875 Z M 89.195312 197.796875 " fill-opacity="1" fill-rule="nonzero"/><path fill="#e6e6e6" d="M 50.128906 197.796875 L 55.175781 197.796875 L 55.175781 247.796875 L 50.128906 247.796875 Z M 50.128906 197.796875 " fill-opacity="1" fill-rule="nonzero"/><path fill="#f0f0f0" d="M 53.265625 197.796875 L 56.769531 197.796875 L 56.769531 247.796875 L 53.265625 247.796875 Z M 53.265625 197.796875 " fill-opacity="1" fill-rule="nonzero"/><path fill="#e6e6e6" d="M 99.664062 197.796875 L 104.710938 197.796875 L 104.710938 247.796875 L 99.664062 247.796875 Z M 99.664062 197.796875 " fill-opacity="1" fill-rule="nonzero"/><path fill="#f0f0f0" d="M 102.792969 197.796875 L 106.296875 197.796875 L 106.296875 247.796875 L 102.792969 247.796875 Z M 102.792969 197.796875 " fill-opacity="1" fill-rule="nonzero"/><path fill="#e6e6e6" d="M 50.128906 191.59375 L 89.386719 191.59375 L 89.386719 197.796875 L 50.128906 197.796875 Z M 50.128906 191.59375 " fill-opacity="1" fill-rule="nonzero"/><path fill="#e0e0e0" d="M 83.921875 51.457031 L 235.769531 51.457031 L 235.769531 135.996094 L 83.921875 135.996094 Z M 83.921875 51.457031 " fill-opacity="1" fill-rule="nonzero"/><path fill="#f5f5f5" d="M 84.6875 51.457031 L 244.109375 51.457031 L 244.109375 135.996094 L 84.6875 135.996094 Z M 84.6875 51.457031 " fill-opacity="1" fill-rule="nonzero"/><path fill="#ffffff" d="M 241.503906 54.0625 L 241.503906 133.390625 L 87.292969 133.390625 L 87.292969 54.0625 Z M 241.503906 54.0625 " fill-opacity="1" fill-rule="nonzero"/><path fill="#f5f5f5" d="M 149.734375 133.390625 L 178.847656 54.0625 L 130.796875 54.0625 L 101.683594 133.390625 Z M 149.734375 133.390625 " fill-opacity="1" fill-rule="nonzero"/><path fill="#f5f5f5" d="M 195.980469 133.390625 L 225.097656 54.0625 L 188.847656 54.0625 L 159.730469 133.390625 Z M 195.980469 133.390625 " fill-opacity="1" fill-rule="nonzero"/><path fill="#e6e6e6" d="M 270.988281 167.054688 L 283.894531 167.054688 L 283.894531 247.796875 L 270.988281 247.796875 Z M 270.988281 167.054688 " fill-opacity="1" fill-rule="nonzero"/><path fill="#fafafa" d="M 280.5 247.796875 L 283.894531 247.796875 L 283.894531 241.582031 L 276.941406 241.582031 Z M 280.5 247.796875 " fill-opacity="1" fill-rule="nonzero"/><path fill="#e6e6e6" d="M 151.976562 167.054688 L 164.882812 167.054688 L 164.882812 247.796875 L 151.976562 247.796875 Z M 151.976562 167.054688 " fill-opacity="1" fill-rule="nonzero"/><path fill="#fafafa" d="M 161.921875 167.054688 L 283.894531 167.054688 L 283.894531 246.117188 L 161.921875 246.117188 Z M 161.921875 167.054688 " fill-opacity="1" fill-rule="nonzero"/><path fill="#e6e6e6" d="M 281.589844 192.566406 L 164.234375 192.566406 L 164.234375 170.234375 L 281.589844 170.234375 Z M 164.882812 191.917969 L 280.941406 191.917969 L 280.941406 170.882812 L 164.882812 170.882812 Z M 164.882812 191.917969 " fill-opacity="1" fill-rule="nonzero"/><path fill="#e6e6e6" d="M 260.929688 181.078125 L 187.167969 181.078125 C 183.746094 181.078125 180.449219 178.316406 178.097656 173.496094 L 177.875 173.035156 L 270.214844 173.035156 L 269.996094 173.496094 C 267.625 178.316406 264.382812 181.078125 260.929688 181.078125 Z M 178.9375 173.664062 C 181.128906 177.960938 184.121094 180.410156 187.167969 180.410156 L 260.929688 180.410156 C 263.988281 180.410156 266.96875 177.960938 269.160156 173.664062 Z M 178.9375 173.664062 " fill-opacity="1" fill-rule="nonzero"/><path fill="#fafafa" d="M 165.316406 247.796875 L 161.921875 247.796875 L 161.921875 241.582031 L 168.875 241.582031 Z M 165.316406 247.796875 " fill-opacity="1" fill-rule="nonzero"/><path fill="#e6e6e6" d="M 281.589844 217.726562 L 164.234375 217.726562 L 164.234375 195.425781 L 281.589844 195.425781 Z M 164.882812 217.078125 L 280.941406 217.078125 L 280.941406 196.070312 L 164.882812 196.070312 Z M 164.882812 217.078125 " fill-opacity="1" fill-rule="nonzero"/><path fill="#e6e6e6" d="M 260.929688 206.265625 L 187.167969 206.265625 C 183.746094 206.265625 180.449219 203.496094 178.097656 198.683594 L 177.875 198.214844 L 270.214844 198.214844 L 269.996094 198.683594 C 267.625 203.472656 264.382812 206.265625 260.929688 206.265625 Z M 178.9375 198.863281 C 181.128906 203.160156 184.121094 205.617188 187.167969 205.617188 L 260.929688 205.617188 C 263.988281 205.617188 266.96875 203.160156 269.160156 198.863281 Z M 178.9375 198.863281 " fill-opacity="1" fill-rule="nonzero"/><path fill="#e6e6e6" d="M 281.589844 242.933594 L 164.234375 242.933594 L 164.234375 220.605469 L 281.589844 220.605469 Z M 164.882812 242.289062 L 280.941406 242.289062 L 280.941406 221.253906 L 164.882812 221.253906 Z M 164.882812 242.289062 " fill-opacity="1" fill-rule="nonzero"/><path fill="#e6e6e6" d="M 260.929688 231.445312 L 187.167969 231.445312 C 183.746094 231.445312 180.449219 228.6875 178.097656 223.871094 L 177.875 223.40625 L 270.214844 223.40625 L 269.996094 223.871094 C 267.625 228.6875 264.382812 231.445312 260.929688 231.445312 Z M 178.9375 224.050781 C 181.128906 228.347656 184.121094 230.796875 187.167969 230.796875 L 260.929688 230.796875 C 263.988281 230.796875 266.96875 228.347656 269.160156 224.050781 Z M 178.9375 224.050781 " fill-opacity="1" fill-rule="nonzero"/><path fill="#e6e6e6" d="M 78.394531 177.734375 L 78.394531 179.300781 L 77.398438 179.300781 L 76.566406 191.59375 L 64.359375 191.59375 L 63.535156 179.300781 L 62.53125 179.300781 L 62.53125 177.734375 Z M 78.394531 177.734375 " fill-opacity="1" fill-rule="nonzero"/><path fill="#e6e6e6" d="M 74.378906 147.230469 C 73.378906 139.910156 63.496094 137.824219 50.957031 137.550781 C 39.027344 137.296875 35.207031 133.078125 35.207031 133.078125 C 35.207031 133.078125 35.246094 150.167969 52.4375 156.363281 C 68.757812 162.234375 75.382812 154.566406 74.378906 147.230469 Z M 74.378906 147.230469 " fill-opacity="1" fill-rule="nonzero"/><path fill="#e6e6e6" d="M 68.285156 163.828125 C 68.492188 160.820312 73.300781 155.285156 84.867188 157.800781 C 93.226562 159.621094 96.339844 155.285156 96.339844 155.285156 C 96.339844 155.285156 95.5625 167.519531 82.988281 171.195312 C 71.046875 174.6875 67.917969 169.128906 68.285156 163.828125 Z M 68.285156 163.828125 " fill-opacity="1" fill-rule="nonzero"/><path fill="#e6e6e6" d="M 70.921875 182.347656 C 71.0625 182.347656 71.175781 182.296875 71.265625 182.191406 C 72.101562 181.199219 71.417969 178.828125 70.46875 175.542969 C 69.25 171.332031 67.734375 166.082031 69.019531 162.277344 C 69.730469 160.269531 70.558594 158.304688 71.507812 156.394531 C 73.320312 152.558594 74.890625 149.265625 73.582031 145.78125 C 73.539062 145.664062 73.460938 145.578125 73.347656 145.527344 C 73.234375 145.476562 73.117188 145.472656 73.003906 145.515625 C 72.886719 145.5625 72.800781 145.640625 72.753906 145.753906 C 72.703125 145.867188 72.699219 145.980469 72.746094 146.097656 C 73.917969 149.203125 72.5 152.207031 70.695312 156.019531 C 69.738281 157.960938 68.894531 159.953125 68.167969 161.992188 C 66.800781 166.0625 68.359375 171.460938 69.609375 175.789062 C 70.347656 178.382812 71.113281 180.972656 70.585938 181.621094 C 70.5 181.714844 70.460938 181.828125 70.46875 181.957031 C 70.480469 182.085938 70.535156 182.191406 70.636719 182.269531 C 70.722656 182.332031 70.820312 182.355469 70.921875 182.347656 Z M 70.921875 182.347656 " fill-opacity="1" fill-rule="nonzero"/><path fill="#f5f5f5" d="M 287.640625 269.722656 C 287.640625 269.84375 287.589844 269.964844 287.488281 270.082031 C 287.386719 270.203125 287.238281 270.324219 287.035156 270.441406 C 286.835938 270.5625 286.582031 270.679688 286.28125 270.800781 C 285.980469 270.917969 285.628906 271.035156 285.226562 271.15625 C 284.824219 271.273438 284.375 271.390625 283.875 271.503906 C 283.375 271.621094 282.828125 271.738281 282.230469 271.851562 C 281.632812 271.96875 280.988281 272.082031 280.296875 272.195312 C 279.605469 272.308594 278.863281 272.417969 278.078125 272.53125 C 277.289062 272.640625 276.457031 272.75 275.578125 272.859375 C 274.699219 272.96875 273.773438 273.074219 272.804688 273.179688 C 271.835938 273.289062 270.824219 273.390625 269.765625 273.496094 C 268.707031 273.597656 267.609375 273.699219 266.464844 273.796875 C 265.324219 273.898438 264.140625 273.996094 262.914062 274.09375 C 261.691406 274.191406 260.425781 274.285156 259.121094 274.378906 C 257.816406 274.46875 256.472656 274.5625 255.09375 274.648438 C 253.710938 274.738281 252.296875 274.824219 250.839844 274.910156 C 249.386719 274.996094 247.898438 275.078125 246.375 275.160156 C 244.851562 275.238281 243.296875 275.316406 241.707031 275.394531 C 240.117188 275.46875 238.496094 275.542969 236.84375 275.617188 C 235.191406 275.6875 233.511719 275.757812 231.800781 275.824219 C 230.09375 275.890625 228.355469 275.953125 226.59375 276.015625 C 224.828125 276.078125 223.039062 276.136719 221.226562 276.191406 C 219.414062 276.25 217.578125 276.304688 215.71875 276.355469 C 213.859375 276.40625 211.980469 276.453125 210.082031 276.5 C 208.179688 276.546875 206.261719 276.589844 204.328125 276.628906 C 202.390625 276.671875 200.4375 276.707031 198.472656 276.742188 C 196.503906 276.777344 194.523438 276.808594 192.527344 276.839844 C 190.535156 276.867188 188.527344 276.894531 186.511719 276.917969 C 184.496094 276.941406 182.46875 276.960938 180.433594 276.980469 C 178.402344 276.996094 176.359375 277.011719 174.316406 277.023438 C 172.269531 277.035156 170.21875 277.042969 168.164062 277.050781 C 166.109375 277.054688 164.054688 277.058594 162 277.058594 C 159.945312 277.058594 157.890625 277.054688 155.835938 277.050781 C 153.78125 277.042969 151.730469 277.035156 149.683594 277.023438 C 147.640625 277.011719 145.597656 276.996094 143.566406 276.980469 C 141.53125 276.960938 139.503906 276.941406 137.488281 276.917969 C 135.472656 276.894531 133.464844 276.867188 131.472656 276.839844 C 129.476562 276.808594 127.496094 276.777344 125.527344 276.742188 C 123.5625 276.707031 121.609375 276.671875 119.671875 276.628906 C 117.738281 276.589844 115.820312 276.546875 113.917969 276.5 C 112.019531 276.453125 110.140625 276.40625 108.28125 276.355469 C 106.421875 276.304688 104.585938 276.25 102.773438 276.191406 C 100.960938 276.136719 99.171875 276.078125 97.40625 276.015625 C 95.644531 275.953125 93.90625 275.890625 92.199219 275.824219 C 90.488281 275.757812 88.808594 275.6875 87.15625 275.617188 C 85.503906 275.542969 83.882812 275.46875 82.292969 275.394531 C 80.703125 275.316406 79.148438 275.238281 77.625 275.160156 C 76.101562 275.078125 74.613281 274.996094 73.160156 274.910156 C 71.703125 274.824219 70.289062 274.738281 68.90625 274.648438 C 67.527344 274.5625 66.183594 274.46875 64.878906 274.378906 C 63.574219 274.285156 62.308594 274.191406 61.085938 274.09375 C 59.859375 273.996094 58.675781 273.898438 57.535156 273.796875 C 56.390625 273.699219 55.292969 273.597656 54.234375 273.496094 C 53.175781 273.390625 52.164062 273.289062 51.195312 273.179688 C 50.226562 273.074219 49.300781 272.96875 48.421875 272.859375 C 47.542969 272.75 46.710938 272.640625 45.921875 272.53125 C 45.136719 272.417969 44.394531 272.308594 43.703125 272.195312 C 43.011719 272.082031 42.367188 271.96875 41.769531 271.851562 C 41.171875 271.738281 40.625 271.621094 40.125 271.503906 C 39.625 271.390625 39.175781 271.273438 38.773438 271.15625 C 38.371094 271.035156 38.019531 270.917969 37.71875 270.800781 C 37.417969 270.679688 37.164062 270.5625 36.964844 270.441406 C 36.761719 270.324219 36.613281 270.203125 36.511719 270.082031 C 36.410156 269.964844 36.359375 269.84375 36.359375 269.722656 C 36.359375 269.601562 36.410156 269.484375 36.511719 269.363281 C 36.613281 269.242188 36.761719 269.125 36.964844 269.003906 C 37.164062 268.886719 37.417969 268.765625 37.71875 268.648438 C 38.019531 268.527344 38.371094 268.410156 38.773438 268.292969 C 39.175781 268.175781 39.625 268.058594 40.125 267.941406 C 40.625 267.824219 41.171875 267.710938 41.769531 267.59375 C 42.367188 267.480469 43.011719 267.367188 43.703125 267.253906 C 44.394531 267.140625 45.136719 267.027344 45.921875 266.917969 C 46.710938 266.804688 47.542969 266.695312 48.421875 266.585938 C 49.300781 266.480469 50.226562 266.371094 51.195312 266.265625 C 52.164062 266.160156 53.175781 266.054688 54.234375 265.953125 C 55.292969 265.847656 56.390625 265.746094 57.535156 265.648438 C 58.675781 265.546875 59.859375 265.449219 61.085938 265.355469 C 62.308594 265.257812 63.574219 265.164062 64.878906 265.070312 C 66.183594 264.976562 67.527344 264.886719 68.90625 264.796875 C 70.289062 264.707031 71.703125 264.621094 73.160156 264.535156 C 74.613281 264.453125 76.101562 264.367188 77.625 264.289062 C 79.148438 264.207031 80.703125 264.128906 82.292969 264.054688 C 83.882812 263.976562 85.503906 263.902344 87.15625 263.832031 C 88.808594 263.761719 90.488281 263.691406 92.199219 263.625 C 93.90625 263.558594 95.644531 263.492188 97.40625 263.433594 C 99.171875 263.371094 100.960938 263.3125 102.773438 263.253906 C 104.585938 263.199219 106.421875 263.144531 108.28125 263.09375 C 110.140625 263.042969 112.019531 262.992188 113.917969 262.945312 C 115.820312 262.902344 117.738281 262.855469 119.671875 262.816406 C 121.609375 262.777344 123.5625 262.738281 125.527344 262.703125 C 127.496094 262.667969 129.476562 262.636719 131.472656 262.609375 C 133.464844 262.578125 135.472656 262.550781 137.488281 262.527344 C 139.503906 262.503906 141.53125 262.484375 143.566406 262.46875 C 145.597656 262.449219 147.640625 262.433594 149.683594 262.421875 C 151.730469 262.410156 153.78125 262.402344 155.835938 262.398438 C 157.890625 262.390625 159.945312 262.386719 162 262.386719 C 164.054688 262.386719 166.109375 262.390625 168.164062 262.398438 C 170.21875 262.402344 172.269531 262.410156 174.316406 262.421875 C 176.359375 262.433594 178.402344 262.449219 180.433594 262.46875 C 182.46875 262.484375 184.496094 262.503906 186.511719 262.527344 C 188.527344 262.550781 190.535156 262.578125 192.527344 262.609375 C 194.523438 262.636719 196.503906 262.667969 198.472656 262.703125 C 200.4375 262.738281 202.390625 262.777344 204.328125 262.816406 C 206.261719 262.855469 208.179688 262.902344 210.082031 262.945312 C 211.980469 262.992188 213.859375 263.042969 215.71875 263.09375 C 217.578125 263.144531 219.414062 263.199219 221.226562 263.253906 C 223.039062 263.3125 224.828125 263.371094 226.59375 263.433594 C 228.355469 263.492188 230.09375 263.558594 231.800781 263.625 C 233.511719 263.691406 235.191406 263.761719 236.84375 263.832031 C 238.496094 263.902344 240.117188 263.976562 241.707031 264.054688 C 243.296875 264.128906 244.851562 264.207031 246.375 264.289062 C 247.898438 264.367188 249.386719 264.453125 250.839844 264.535156 C 252.296875 264.621094 253.710938 264.707031 255.09375 264.796875 C 256.472656 264.886719 257.816406 264.976562 259.121094 265.070312 C 260.425781 265.164062 261.691406 265.257812 262.914062 265.355469 C 264.140625 265.449219 265.324219 265.546875 266.464844 265.648438 C 267.609375 265.746094 268.707031 265.847656 269.765625 265.953125 C 270.824219 266.054688 271.835938 266.160156 272.804688 266.265625 C 273.773438 266.371094 274.699219 266.480469 275.578125 266.585938 C 276.457031 266.695312 277.289062 266.804688 278.078125 266.917969 C 278.863281 267.027344 279.605469 267.140625 280.296875 267.253906 C 280.988281 267.367188 281.632812 267.480469 282.230469 267.59375 C 282.828125 267.710938 283.375 267.824219 283.875 267.941406 C 284.375 268.058594 284.824219 268.175781 285.226562 268.292969 C 285.628906 268.410156 285.980469 268.527344 286.28125 268.648438 C 286.582031 268.765625 286.835938 268.886719 287.035156 269.003906 C 287.238281 269.125 287.386719 269.242188 287.488281 269.363281 C 287.589844 269.484375 287.640625 269.601562 287.640625 269.722656 Z M 287.640625 269.722656 " fill-opacity="1" fill-rule="nonzero"/><path fill="#2e4063" d="M 161.972656 233.960938 L 69.957031 233.960938 L 64.921875 85.976562 L 156.9375 85.976562 Z M 161.972656 233.960938 " fill-opacity="1" fill-rule="nonzero"/><path fill="#2e4063" d="M 166.570312 229.367188 L 74.550781 229.367188 L 69.511719 81.382812 L 161.527344 81.382812 Z M 166.570312 229.367188 " fill-opacity="1" fill-rule="nonzero"/><path fill="#ffffff" d="M 166.570312 229.367188 L 74.550781 229.367188 L 69.511719 81.382812 L 161.527344 81.382812 Z M 166.570312 229.367188 " fill-opacity="0.3" fill-rule="nonzero"/><path fill="#2e4063" d="M 134.800781 105.671875 C 135.417969 106.277344 136 106.910156 136.554688 107.570312 C 137.109375 108.230469 137.632812 108.914062 138.121094 109.621094 C 138.609375 110.332031 139.066406 111.0625 139.484375 111.8125 C 139.902344 112.5625 140.285156 113.332031 140.628906 114.117188 C 140.972656 114.902344 141.277344 115.703125 141.546875 116.515625 C 141.8125 117.332031 142.039062 118.152344 142.226562 118.984375 C 142.414062 119.820312 142.558594 120.65625 142.664062 121.5 C 142.769531 122.347656 142.832031 123.191406 142.851562 124.039062 C 142.875 124.886719 142.855469 125.734375 142.792969 126.574219 C 142.730469 127.417969 142.628906 128.253906 142.484375 129.085938 C 142.339844 129.914062 142.15625 130.734375 141.929688 131.542969 C 141.703125 132.351562 141.441406 133.148438 141.136719 133.929688 C 140.832031 134.707031 140.488281 135.46875 140.109375 136.214844 C 139.726562 136.960938 139.3125 137.679688 138.859375 138.382812 C 138.40625 139.082031 137.917969 139.757812 137.394531 140.410156 C 136.875 141.058594 136.324219 141.683594 135.738281 142.277344 C 135.152344 142.871094 134.539062 143.433594 133.898438 143.96875 C 133.257812 144.5 132.589844 145 131.898438 145.464844 C 131.203125 145.929688 130.488281 146.355469 129.75 146.75 C 129.011719 147.144531 128.257812 147.5 127.480469 147.816406 C 126.707031 148.132812 125.917969 148.414062 125.113281 148.652344 C 124.304688 148.890625 123.492188 149.089844 122.664062 149.25 C 121.835938 149.40625 121 149.523438 120.160156 149.601562 C 119.316406 149.675781 118.472656 149.710938 117.625 149.703125 C 116.777344 149.695312 115.929688 149.648438 115.082031 149.558594 C 114.238281 149.46875 113.398438 149.335938 112.5625 149.164062 C 111.726562 148.992188 110.898438 148.777344 110.082031 148.523438 C 109.261719 148.273438 108.457031 147.980469 107.667969 147.648438 C 106.875 147.316406 106.101562 146.949219 105.339844 146.542969 C 104.582031 146.136719 103.847656 145.695312 103.128906 145.21875 C 102.410156 144.742188 101.71875 144.230469 101.050781 143.6875 C 100.378906 143.144531 99.738281 142.570312 99.125 141.96875 C 98.507812 141.363281 97.921875 140.730469 97.367188 140.070312 C 96.8125 139.410156 96.292969 138.726562 95.804688 138.019531 C 95.3125 137.308594 94.859375 136.578125 94.441406 135.828125 C 94.023438 135.078125 93.640625 134.308594 93.296875 133.523438 C 92.953125 132.738281 92.644531 131.9375 92.378906 131.125 C 92.113281 130.3125 91.886719 129.488281 91.699219 128.65625 C 91.511719 127.820312 91.367188 126.984375 91.261719 126.140625 C 91.15625 125.292969 91.09375 124.449219 91.070312 123.601562 C 91.050781 122.753906 91.070312 121.90625 91.132812 121.066406 C 91.195312 120.222656 91.296875 119.386719 91.441406 118.554688 C 91.585938 117.726562 91.769531 116.90625 91.996094 116.097656 C 92.21875 115.289062 92.484375 114.492188 92.789062 113.714844 C 93.09375 112.933594 93.4375 112.171875 93.816406 111.425781 C 94.199219 110.683594 94.613281 109.960938 95.066406 109.257812 C 95.519531 108.558594 96.007812 107.882812 96.527344 107.230469 C 97.050781 106.582031 97.601562 105.957031 98.1875 105.363281 C 98.769531 104.769531 99.382812 104.207031 100.027344 103.671875 C 100.667969 103.140625 101.335938 102.644531 102.027344 102.179688 C 102.722656 101.710938 103.4375 101.285156 104.175781 100.890625 C 104.910156 100.496094 105.667969 100.140625 106.441406 99.824219 C 107.21875 99.507812 108.007812 99.226562 108.8125 98.988281 C 109.617188 98.75 110.433594 98.550781 111.261719 98.390625 C 112.089844 98.234375 112.925781 98.117188 113.765625 98.039062 C 114.609375 97.964844 115.453125 97.929688 116.300781 97.9375 C 117.148438 97.945312 117.996094 97.992188 118.839844 98.082031 C 119.6875 98.175781 120.527344 98.304688 121.363281 98.476562 C 122.199219 98.648438 123.027344 98.863281 123.84375 99.117188 C 124.664062 99.367188 125.46875 99.660156 126.257812 99.992188 C 127.050781 100.324219 127.824219 100.691406 128.582031 101.097656 C 129.339844 101.503906 130.078125 101.945312 130.796875 102.421875 C 131.511719 102.898438 132.207031 103.410156 132.875 103.953125 C 133.542969 104.496094 134.1875 105.070312 134.800781 105.671875 Z M 134.800781 105.671875 " fill-opacity="1" fill-rule="nonzero"/><path fill="#ffffff" d="M 138.328125 123.828125 C 138.464844 127.410156 137.71875 130.800781 136.09375 134 C 135.664062 134.84375 135.179688 135.652344 134.636719 136.429688 C 134.09375 137.207031 133.503906 137.941406 132.859375 138.632812 C 132.214844 139.328125 131.527344 139.972656 130.792969 140.574219 C 130.0625 141.171875 129.289062 141.714844 128.480469 142.207031 C 127.671875 142.699219 126.832031 143.132812 125.964844 143.507812 C 125.097656 143.882812 124.207031 144.195312 123.292969 144.449219 C 122.378906 144.699219 121.457031 144.886719 120.515625 145.011719 C 119.578125 145.132812 118.636719 145.191406 117.691406 145.183594 C 115.742188 145.175781 113.832031 144.910156 111.953125 144.398438 C 110.074219 143.886719 108.296875 143.136719 106.617188 142.15625 C 104.933594 141.175781 103.410156 139.992188 102.039062 138.609375 C 100.667969 137.226562 99.5 135.691406 98.535156 134 C 96.707031 130.855469 95.730469 127.464844 95.605469 123.828125 C 95.574219 123.132812 95.582031 122.441406 95.621094 121.75 C 95.664062 121.058594 95.738281 120.371094 95.847656 119.6875 C 95.957031 119 96.101562 118.324219 96.28125 117.65625 C 96.460938 116.984375 96.671875 116.328125 96.917969 115.679688 C 97.164062 115.03125 97.441406 114.398438 97.75 113.777344 C 98.058594 113.15625 98.402344 112.554688 98.773438 111.96875 C 99.144531 111.382812 99.542969 110.820312 99.972656 110.273438 C 100.398438 109.730469 100.855469 109.207031 101.335938 108.707031 C 101.816406 108.210938 102.320312 107.738281 102.851562 107.289062 C 103.378906 106.839844 103.929688 106.421875 104.5 106.03125 C 105.074219 105.640625 105.664062 105.277344 106.273438 104.945312 C 106.878906 104.613281 107.503906 104.3125 108.144531 104.042969 C 108.78125 103.777344 109.433594 103.539062 110.09375 103.335938 C 110.757812 103.136719 111.429688 102.964844 112.109375 102.832031 C 112.789062 102.699219 113.472656 102.597656 114.164062 102.53125 C 114.855469 102.46875 115.546875 102.4375 116.238281 102.441406 C 116.945312 102.449219 117.652344 102.484375 118.355469 102.558594 C 119.058594 102.628906 119.757812 102.734375 120.453125 102.875 C 121.144531 103.015625 121.832031 103.183594 122.507812 103.390625 C 123.1875 103.59375 123.851562 103.828125 124.507812 104.097656 C 125.160156 104.367188 125.800781 104.664062 126.429688 104.992188 C 127.054688 105.320312 127.664062 105.679688 128.257812 106.066406 C 128.847656 106.453125 129.421875 106.867188 129.976562 107.308594 C 130.527344 107.75 131.058594 108.21875 131.566406 108.710938 C 132.074219 109.203125 132.558594 109.714844 133.019531 110.253906 C 133.476562 110.792969 133.910156 111.351562 134.316406 111.929688 C 134.722656 112.511719 135.097656 113.109375 135.449219 113.722656 C 135.796875 114.339844 136.117188 114.96875 136.40625 115.617188 C 136.695312 116.261719 136.953125 116.917969 137.179688 117.589844 C 137.402344 118.261719 137.597656 118.941406 137.757812 119.628906 C 137.921875 120.316406 138.046875 121.011719 138.144531 121.714844 C 138.238281 122.414062 138.300781 123.121094 138.328125 123.828125 Z M 138.328125 123.828125 " fill-opacity="1" fill-rule="nonzero"/><path fill="#2e4063" d="M 136.078125 134 C 135.652344 134.84375 135.164062 135.652344 134.625 136.429688 C 134.082031 137.207031 133.488281 137.941406 132.847656 138.632812 C 132.203125 139.328125 131.515625 139.972656 130.78125 140.574219 C 130.046875 141.171875 129.277344 141.714844 128.46875 142.207031 C 127.660156 142.699219 126.820312 143.132812 125.953125 143.507812 C 125.082031 143.882812 124.191406 144.195312 123.28125 144.449219 C 122.367188 144.699219 121.441406 144.886719 120.503906 145.011719 C 119.566406 145.132812 118.625 145.191406 117.675781 145.183594 C 115.730469 145.175781 113.816406 144.910156 111.941406 144.398438 C 110.0625 143.886719 108.285156 143.136719 106.601562 142.15625 C 104.921875 141.175781 103.394531 139.992188 102.027344 138.609375 C 100.65625 137.226562 99.488281 135.691406 98.523438 134 C 101.261719 132.132812 104.21875 130.710938 107.386719 129.742188 C 110.558594 128.769531 113.804688 128.289062 117.121094 128.304688 C 120.488281 128.3125 123.789062 128.800781 127.015625 129.769531 C 130.242188 130.738281 133.265625 132.148438 136.078125 134 Z M 136.078125 134 " fill-opacity="0.6" fill-rule="nonzero"/><path fill="#2e4063" d="M 123.277344 109.832031 C 123.730469 110.28125 124.136719 110.761719 124.496094 111.285156 C 124.855469 111.808594 125.164062 112.359375 125.417969 112.9375 C 125.671875 113.519531 125.867188 114.113281 126.007812 114.730469 C 126.144531 115.34375 126.21875 115.960938 126.238281 116.585938 C 126.253906 117.210938 126.207031 117.832031 126.101562 118.441406 C 125.996094 119.054688 125.828125 119.648438 125.605469 120.222656 C 125.378906 120.796875 125.101562 121.34375 124.765625 121.859375 C 124.433594 122.378906 124.050781 122.855469 123.621094 123.292969 C 123.1875 123.730469 122.71875 124.121094 122.207031 124.464844 C 121.695312 124.808594 121.15625 125.097656 120.585938 125.332031 C 120.011719 125.566406 119.421875 125.738281 118.8125 125.855469 C 118.203125 125.972656 117.585938 126.03125 116.960938 126.023438 C 116.335938 126.019531 115.714844 125.953125 115.097656 125.824219 C 114.480469 125.699219 113.882812 125.511719 113.296875 125.269531 C 112.714844 125.023438 112.15625 124.726562 111.628906 124.375 C 111.101562 124.023438 110.609375 123.625 110.15625 123.179688 C 109.703125 122.734375 109.296875 122.25 108.9375 121.726562 C 108.574219 121.203125 108.269531 120.652344 108.015625 120.074219 C 107.761719 119.496094 107.5625 118.898438 107.425781 118.285156 C 107.289062 117.671875 107.210938 117.050781 107.195312 116.425781 C 107.179688 115.800781 107.226562 115.183594 107.332031 114.570312 C 107.4375 113.960938 107.601562 113.367188 107.828125 112.789062 C 108.050781 112.214844 108.332031 111.667969 108.664062 111.152344 C 109 110.636719 109.382812 110.15625 109.8125 109.71875 C 110.242188 109.28125 110.714844 108.890625 111.226562 108.546875 C 111.734375 108.207031 112.277344 107.917969 112.847656 107.683594 C 113.417969 107.449219 114.011719 107.273438 114.621094 107.15625 C 115.230469 107.039062 115.847656 106.984375 116.472656 106.988281 C 117.097656 106.996094 117.71875 107.0625 118.335938 107.1875 C 118.949219 107.316406 119.550781 107.5 120.132812 107.746094 C 120.71875 107.988281 121.273438 108.285156 121.804688 108.636719 C 122.332031 108.988281 122.824219 109.386719 123.277344 109.832031 Z M 123.277344 109.832031 " fill-opacity="0.6" fill-rule="nonzero"/><path fill="#ffffff" d="M 148.082031 175.777344 L 89.386719 175.777344 L 88.988281 164.113281 L 147.6875 164.113281 Z M 148.082031 175.777344 " fill-opacity="1" fill-rule="nonzero"/><path fill="#ffffff" d="M 148.792969 196.621094 L 90.089844 196.621094 L 89.695312 184.957031 L 148.398438 184.957031 Z M 148.792969 196.621094 " fill-opacity="1" fill-rule="nonzero"/><path fill="#2e4063" d="M 126.140625 186.566406 L 111.992188 188.507812 C 111.855469 188.523438 111.730469 188.566406 111.609375 188.636719 C 111.492188 188.707031 111.390625 188.796875 111.3125 188.90625 C 111.230469 189.015625 111.175781 189.140625 111.144531 189.273438 C 111.113281 189.40625 111.113281 189.542969 111.136719 189.675781 L 113 199.15625 C 113.0625 199.445312 113.214844 199.675781 113.453125 199.84375 C 113.695312 200.015625 113.960938 200.082031 114.253906 200.042969 L 128.402344 198.101562 C 128.539062 198.082031 128.664062 198.039062 128.78125 197.96875 C 128.898438 197.898438 129 197.808594 129.078125 197.699219 C 129.160156 197.585938 129.214844 197.464844 129.246094 197.332031 C 129.273438 197.195312 129.277344 197.0625 129.25 196.925781 L 127.398438 187.445312 C 127.332031 187.160156 127.179688 186.929688 126.941406 186.761719 C 126.699219 186.59375 126.433594 186.527344 126.140625 186.566406 Z M 122.078125 196.167969 L 119.484375 196.511719 L 119.230469 193.453125 C 118.65625 193.203125 118.304688 192.773438 118.175781 192.15625 C 118.128906 191.933594 118.125 191.710938 118.171875 191.488281 C 118.21875 191.265625 118.308594 191.058594 118.445312 190.875 C 118.578125 190.691406 118.742188 190.539062 118.9375 190.425781 C 119.136719 190.308594 119.347656 190.238281 119.574219 190.214844 C 119.804688 190.183594 120.035156 190.199219 120.257812 190.253906 C 120.484375 190.308594 120.691406 190.402344 120.878906 190.539062 C 121.070312 190.671875 121.230469 190.835938 121.355469 191.027344 C 121.484375 191.222656 121.574219 191.433594 121.625 191.660156 C 121.679688 191.9375 121.664062 192.210938 121.574219 192.480469 C 121.484375 192.75 121.332031 192.980469 121.117188 193.167969 Z M 122.078125 196.167969 " fill-opacity="1" fill-rule="nonzero"/><path fill="#2e4063" d="M 124.738281 186.054688 C 124.480469 186.085938 124.246094 186.027344 124.03125 185.878906 C 123.816406 185.726562 123.683594 185.523438 123.625 185.269531 L 123.445312 184.34375 C 123.316406 183.710938 123.078125 183.121094 122.734375 182.574219 C 122.390625 182.027344 121.960938 181.558594 121.449219 181.167969 C 120.933594 180.777344 120.371094 180.488281 119.75 180.304688 C 119.132812 180.121094 118.503906 180.046875 117.859375 180.09375 C 117.535156 180.109375 117.214844 180.164062 116.902344 180.25 C 116.585938 180.339844 116.285156 180.457031 116 180.609375 C 115.710938 180.761719 115.441406 180.941406 115.195312 181.152344 C 114.945312 181.363281 114.722656 181.59375 114.523438 181.851562 C 114.324219 182.113281 114.15625 182.386719 114.015625 182.683594 C 113.875 182.976562 113.769531 183.28125 113.695312 183.597656 C 113.625 183.914062 113.585938 184.238281 113.582031 184.5625 C 113.578125 184.886719 113.605469 185.210938 113.671875 185.527344 L 113.878906 186.597656 C 113.902344 186.71875 113.902344 186.835938 113.878906 186.957031 C 113.851562 187.078125 113.800781 187.183594 113.730469 187.285156 C 113.65625 187.382812 113.570312 187.460938 113.460938 187.523438 C 113.355469 187.585938 113.242188 187.621094 113.121094 187.636719 C 112.863281 187.671875 112.625 187.613281 112.410156 187.460938 C 112.195312 187.3125 112.058594 187.109375 112.007812 186.851562 L 111.832031 185.949219 C 111.742188 185.527344 111.695312 185.105469 111.695312 184.671875 C 111.691406 184.242188 111.730469 183.816406 111.816406 183.394531 C 111.898438 182.972656 112.023438 182.5625 112.1875 182.167969 C 112.355469 181.769531 112.558594 181.394531 112.800781 181.039062 C 113.042969 180.683594 113.316406 180.355469 113.625 180.054688 C 113.933594 179.753906 114.269531 179.488281 114.632812 179.257812 C 114.996094 179.023438 115.375 178.832031 115.777344 178.675781 C 116.179688 178.519531 116.589844 178.40625 117.015625 178.335938 C 117.472656 178.257812 117.929688 178.226562 118.390625 178.238281 C 118.855469 178.25 119.3125 178.304688 119.761719 178.402344 C 120.214844 178.5 120.652344 178.640625 121.078125 178.824219 C 121.5 179.003906 121.90625 179.226562 122.289062 179.484375 C 122.671875 179.742188 123.023438 180.035156 123.351562 180.363281 C 123.679688 180.691406 123.972656 181.046875 124.230469 181.429688 C 124.488281 181.8125 124.707031 182.214844 124.890625 182.640625 C 125.074219 183.066406 125.210938 183.503906 125.308594 183.953125 L 125.519531 185.015625 C 125.542969 185.136719 125.539062 185.257812 125.511719 185.378906 C 125.484375 185.5 125.433594 185.609375 125.359375 185.710938 C 125.285156 185.808594 125.195312 185.886719 125.085938 185.949219 C 124.980469 186.007812 124.863281 186.042969 124.738281 186.054688 Z M 124.738281 186.054688 " fill-opacity="1" fill-rule="nonzero"/><path fill="#2e4063" d="M 139.105469 212.957031 L 100.894531 212.957031 L 100.640625 205.363281 L 138.847656 205.363281 Z M 139.105469 212.957031 " fill-opacity="1" fill-rule="nonzero"/><path fill="#263238" d="M 120.671875 169.945312 C 120.683594 170.222656 120.636719 170.496094 120.539062 170.757812 C 120.4375 171.019531 120.292969 171.25 120.097656 171.453125 C 119.902344 171.652344 119.675781 171.808594 119.417969 171.917969 C 119.160156 172.023438 118.890625 172.078125 118.609375 172.078125 C 118.324219 172.074219 118.050781 172.019531 117.785156 171.910156 C 117.519531 171.804688 117.285156 171.648438 117.078125 171.453125 C 116.875 171.253906 116.710938 171.023438 116.59375 170.761719 C 116.476562 170.503906 116.414062 170.230469 116.398438 169.945312 C 116.390625 169.664062 116.433594 169.394531 116.53125 169.132812 C 116.632812 168.871094 116.777344 168.636719 116.972656 168.4375 C 117.167969 168.234375 117.394531 168.082031 117.652344 167.972656 C 117.910156 167.863281 118.179688 167.8125 118.460938 167.8125 C 118.746094 167.8125 119.023438 167.867188 119.285156 167.976562 C 119.550781 168.085938 119.789062 168.238281 119.992188 168.4375 C 120.199219 168.632812 120.359375 168.863281 120.476562 169.125 C 120.59375 169.386719 120.660156 169.660156 120.671875 169.945312 Z M 120.671875 169.945312 " fill-opacity="1" fill-rule="nonzero"/><path fill="#263238" d="M 111.457031 169.945312 C 111.46875 170.226562 111.425781 170.496094 111.324219 170.757812 C 111.226562 171.019531 111.078125 171.253906 110.882812 171.453125 C 110.691406 171.65625 110.460938 171.808594 110.203125 171.917969 C 109.945312 172.027344 109.675781 172.078125 109.394531 172.078125 C 109.109375 172.074219 108.835938 172.019531 108.570312 171.910156 C 108.308594 171.804688 108.074219 171.648438 107.867188 171.449219 C 107.664062 171.253906 107.5 171.023438 107.382812 170.761719 C 107.269531 170.503906 107.203125 170.230469 107.191406 169.945312 C 107.179688 169.664062 107.226562 169.394531 107.324219 169.132812 C 107.425781 168.871094 107.570312 168.636719 107.765625 168.4375 C 107.960938 168.234375 108.1875 168.082031 108.445312 167.972656 C 108.703125 167.863281 108.972656 167.8125 109.253906 167.8125 C 109.539062 167.8125 109.8125 167.867188 110.078125 167.976562 C 110.34375 168.085938 110.578125 168.238281 110.78125 168.4375 C 110.988281 168.632812 111.148438 168.863281 111.265625 169.125 C 111.382812 169.386719 111.445312 169.660156 111.457031 169.945312 Z M 111.457031 169.945312 " fill-opacity="1" fill-rule="nonzero"/><path fill="#263238" d="M 102.300781 169.945312 C 102.3125 170.222656 102.265625 170.496094 102.167969 170.757812 C 102.066406 171.019531 101.921875 171.25 101.726562 171.453125 C 101.53125 171.652344 101.304688 171.808594 101.046875 171.917969 C 100.789062 172.023438 100.519531 172.078125 100.238281 172.078125 C 99.953125 172.074219 99.679688 172.019531 99.414062 171.914062 C 99.148438 171.804688 98.914062 171.652344 98.710938 171.453125 C 98.503906 171.253906 98.34375 171.023438 98.226562 170.765625 C 98.109375 170.503906 98.046875 170.230469 98.035156 169.945312 C 98.023438 169.664062 98.070312 169.394531 98.167969 169.132812 C 98.269531 168.871094 98.414062 168.636719 98.609375 168.4375 C 98.804688 168.234375 99.03125 168.082031 99.289062 167.972656 C 99.546875 167.863281 99.816406 167.8125 100.097656 167.8125 C 100.382812 167.8125 100.65625 167.867188 100.921875 167.976562 C 101.1875 168.085938 101.421875 168.238281 101.625 168.4375 C 101.832031 168.632812 101.992188 168.863281 102.109375 169.125 C 102.226562 169.386719 102.289062 169.660156 102.300781 169.945312 Z M 102.300781 169.945312 " fill-opacity="1" fill-rule="nonzero"/><path fill="#263238" d="M 129.851562 169.945312 C 129.863281 170.222656 129.820312 170.496094 129.71875 170.757812 C 129.621094 171.019531 129.472656 171.25 129.277344 171.453125 C 129.085938 171.652344 128.859375 171.808594 128.601562 171.917969 C 128.339844 172.023438 128.070312 172.078125 127.792969 172.078125 C 127.507812 172.074219 127.230469 172.019531 126.96875 171.914062 C 126.703125 171.804688 126.46875 171.652344 126.261719 171.453125 C 126.058594 171.253906 125.894531 171.023438 125.78125 170.765625 C 125.664062 170.503906 125.601562 170.230469 125.589844 169.945312 C 125.578125 169.664062 125.625 169.394531 125.726562 169.136719 C 125.828125 168.875 125.972656 168.644531 126.167969 168.445312 C 126.363281 168.246094 126.59375 168.09375 126.851562 167.984375 C 127.109375 167.878906 127.375 167.828125 127.65625 167.832031 C 127.9375 167.835938 128.210938 167.890625 128.476562 167.996094 C 128.738281 168.101562 128.972656 168.253906 129.175781 168.449219 C 129.378906 168.648438 129.539062 168.875 129.65625 169.132812 C 129.773438 169.390625 129.839844 169.660156 129.851562 169.945312 Z M 129.851562 169.945312 " fill-opacity="1" fill-rule="nonzero"/><path fill="#263238" d="M 139.035156 169.945312 C 139.046875 170.226562 139.003906 170.496094 138.90625 170.757812 C 138.804688 171.019531 138.660156 171.253906 138.464844 171.453125 C 138.269531 171.65625 138.042969 171.808594 137.78125 171.917969 C 137.523438 172.027344 137.253906 172.078125 136.972656 172.078125 C 136.6875 172.074219 136.414062 172.019531 136.148438 171.910156 C 135.886719 171.804688 135.652344 171.648438 135.445312 171.449219 C 135.242188 171.253906 135.082031 171.023438 134.964844 170.761719 C 134.847656 170.503906 134.78125 170.230469 134.769531 169.945312 C 134.757812 169.664062 134.804688 169.394531 134.902344 169.132812 C 135.003906 168.871094 135.148438 168.636719 135.34375 168.4375 C 135.539062 168.234375 135.765625 168.082031 136.023438 167.972656 C 136.28125 167.863281 136.550781 167.8125 136.832031 167.8125 C 137.117188 167.8125 137.390625 167.867188 137.65625 167.976562 C 137.921875 168.085938 138.15625 168.238281 138.363281 168.4375 C 138.566406 168.632812 138.726562 168.863281 138.84375 169.125 C 138.960938 169.386719 139.023438 169.660156 139.035156 169.945312 Z M 139.035156 169.945312 " fill-opacity="1" fill-rule="nonzero"/><path fill="#ff8b7b" d="M 216.375 112.933594 C 217.234375 114.320312 217.953125 115.640625 218.695312 117.023438 C 219.433594 118.402344 220.101562 119.789062 220.753906 121.207031 C 222.089844 124.085938 223.191406 127.050781 224.058594 130.105469 C 224.175781 130.488281 224.261719 130.894531 224.355469 131.292969 L 224.5 131.894531 L 224.570312 132.191406 L 224.65625 132.683594 C 224.800781 133.8125 224.734375 134.925781 224.453125 136.027344 C 224.003906 137.730469 223.332031 139.339844 222.433594 140.855469 C 220.828125 143.605469 218.910156 146.117188 216.679688 148.390625 L 213.949219 146.332031 C 215.320312 143.8125 216.535156 141.21875 217.597656 138.554688 C 218.074219 137.378906 218.402344 136.164062 218.589844 134.90625 C 218.648438 134.519531 218.632812 134.140625 218.539062 133.761719 L 218.277344 132.96875 C 218.175781 132.644531 218.078125 132.320312 217.953125 131.992188 C 216.96875 129.316406 215.828125 126.707031 214.539062 124.164062 C 213.242188 121.570312 211.851562 118.980469 210.457031 116.503906 Z M 216.375 112.933594 " fill-opacity="1" fill-rule="nonzero"/><path fill="#ff8b7b" d="M 214.644531 145.429688 L 211.664062 147.003906 L 215.085938 151.011719 C 215.085938 151.011719 217.222656 149.566406 217.320312 147.363281 Z M 214.644531 145.429688 " fill-opacity="1" fill-rule="nonzero"/><path fill="#ff8b7b" d="M 207.664062 149.472656 L 211.324219 152.382812 L 215.085938 151.011719 L 211.664062 147.003906 Z M 207.664062 149.472656 " fill-opacity="1" fill-rule="nonzero"/><path fill="#263238" d="M 195.144531 91.730469 C 195.074219 92.09375 194.820312 92.347656 194.589844 92.300781 C 194.355469 92.253906 194.21875 91.917969 194.289062 91.5625 C 194.359375 91.207031 194.613281 90.914062 194.855469 90.992188 C 195.09375 91.070312 195.214844 91.367188 195.144531 91.730469 Z M 195.144531 91.730469 " fill-opacity="1" fill-rule="nonzero"/><path fill="#ff5652" d="M 194.855469 92.351562 C 194.199219 93.371094 193.417969 94.285156 192.507812 95.085938 C 192.960938 95.558594 193.515625 95.773438 194.167969 95.734375 Z M 194.855469 92.351562 " fill-opacity="1" fill-rule="nonzero"/><path fill="#ff8b7b" d="M 193.6875 105.066406 L 193.6875 100.816406 L 199.3125 101.464844 C 199.3125 101.464844 199.222656 105.117188 196.070312 106.195312 Z M 193.6875 105.066406 " fill-opacity="1" fill-rule="nonzero"/><path fill="#ff8b7b" d="M 195.308594 97.757812 L 199.265625 98.898438 L 199.335938 101.496094 L 193.714844 100.816406 Z M 195.308594 97.757812 " fill-opacity="1" fill-rule="nonzero"/><path fill="#000000" d="M 199.265625 98.898438 L 195.308594 97.757812 L 194.535156 99.234375 C 194.558594 99.816406 194.65625 100.386719 194.835938 100.941406 C 195.015625 101.492188 195.265625 102.011719 195.585938 102.5 C 195.910156 102.984375 196.292969 103.414062 196.734375 103.792969 C 197.175781 104.171875 197.664062 104.484375 198.191406 104.730469 C 198.886719 103.761719 199.265625 102.679688 199.335938 101.488281 Z M 199.265625 98.898438 " fill-opacity="0.2" fill-rule="nonzero"/><path fill="#263238" d="M 196.867188 90 C 196.960938 90 197.027344 89.953125 197.0625 89.871094 C 197.101562 89.785156 197.089844 89.707031 197.03125 89.636719 C 196.800781 89.378906 196.523438 89.183594 196.195312 89.058594 C 195.871094 88.933594 195.535156 88.886719 195.191406 88.925781 C 195.050781 88.949219 194.992188 89.03125 195.015625 89.171875 C 195.039062 89.3125 195.121094 89.371094 195.261719 89.351562 C 195.84375 89.296875 196.328125 89.488281 196.714844 89.929688 C 196.753906 89.976562 196.808594 90 196.867188 90 Z M 196.867188 90 " fill-opacity="1" fill-rule="nonzero"/><path fill="#ff8b7b" d="M 205.148438 98.289062 C 204.503906 101.625 204.101562 106.246094 206.445312 108.46875 C 206.445312 108.46875 205.539062 111.851562 199.316406 111.851562 C 192.507812 111.851562 196.046875 108.882812 196.046875 108.882812 C 198.878906 108.003906 198.851562 104.78125 198.203125 102.191406 Z M 205.148438 98.289062 " fill-opacity="1" fill-rule="nonzero"/><path fill="#2e4063" d="M 207.710938 110.699219 C 208.320312 109.84375 208.292969 107.128906 207.644531 106.648438 C 206.601562 105.875 202.125 105.695312 196.105469 107.082031 C 196.753906 109.714844 195.359375 111.085938 195.359375 111.085938 Z M 207.710938 110.699219 " fill-opacity="1" fill-rule="nonzero"/><path fill="#2e4063" d="M 227.964844 264.539062 C 227.578125 264.675781 227.195312 264.65625 226.824219 264.476562 C 226.671875 264.332031 226.640625 264.167969 226.722656 263.976562 C 226.765625 263.828125 226.859375 263.71875 227 263.660156 C 227.617188 263.359375 229.027344 263.9375 229.09375 263.960938 C 229.136719 263.980469 229.160156 264.011719 229.160156 264.058594 C 229.160156 264.105469 229.140625 264.140625 229.101562 264.164062 C 228.734375 264.324219 228.355469 264.449219 227.964844 264.539062 Z M 227.222656 263.808594 C 227.179688 263.816406 227.136719 263.832031 227.097656 263.851562 C 227.011719 263.882812 226.953125 263.945312 226.929688 264.035156 C 226.871094 264.226562 226.929688 264.292969 226.96875 264.3125 C 227.214844 264.519531 228.121094 264.3125 228.761719 264.074219 C 228.269531 263.867188 227.753906 263.78125 227.222656 263.808594 Z M 227.222656 263.808594 " fill-opacity="1" fill-rule="nonzero"/><path fill="#2e4063" d="M 229.074219 264.171875 L 229.023438 264.171875 C 228.503906 264.019531 227.402344 263.238281 227.390625 262.726562 C 227.386719 262.535156 227.480469 262.417969 227.667969 262.375 C 227.832031 262.3125 227.988281 262.328125 228.140625 262.414062 C 228.75 262.726562 229.140625 263.980469 229.152344 264.039062 C 229.171875 264.074219 229.171875 264.109375 229.152344 264.144531 C 229.128906 264.167969 229.105469 264.175781 229.074219 264.171875 Z M 227.777344 262.558594 L 227.726562 262.558594 C 227.597656 262.601562 227.597656 262.667969 227.597656 262.699219 C 227.597656 263.003906 228.335938 263.621094 228.894531 263.867188 C 228.757812 263.503906 228.457031 262.785156 228.0625 262.570312 C 227.972656 262.527344 227.878906 262.523438 227.785156 262.554688 Z M 227.777344 262.558594 " fill-opacity="1" fill-rule="nonzero"/><path fill="#2e4063" d="M 194.308594 265.304688 C 193.726562 265.304688 193.164062 265.21875 192.972656 264.960938 C 192.863281 264.804688 192.863281 264.644531 192.972656 264.488281 C 193.050781 264.355469 193.167969 264.269531 193.316406 264.234375 C 194.074219 264.027344 195.671875 264.933594 195.734375 264.972656 C 195.78125 264.996094 195.800781 265.035156 195.785156 265.082031 C 195.78125 265.136719 195.753906 265.164062 195.703125 265.175781 C 195.242188 265.257812 194.777344 265.300781 194.308594 265.304688 Z M 193.589844 264.417969 C 193.519531 264.40625 193.453125 264.40625 193.382812 264.417969 C 193.289062 264.433594 193.21875 264.484375 193.167969 264.566406 C 193.089844 264.703125 193.125 264.765625 193.167969 264.804688 C 193.382812 265.101562 194.53125 265.109375 195.378906 264.988281 C 194.820312 264.679688 194.222656 264.492188 193.589844 264.417969 Z M 193.589844 264.417969 " fill-opacity="1" fill-rule="nonzero"/><path fill="#2e4063" d="M 195.695312 265.175781 L 195.652344 265.175781 C 195.101562 264.929688 194.011719 263.945312 194.09375 263.425781 C 194.09375 263.300781 194.199219 263.152344 194.496094 263.125 C 194.722656 263.101562 194.921875 263.160156 195.09375 263.308594 C 195.519531 263.816406 195.757812 264.402344 195.804688 265.0625 C 195.804688 265.105469 195.789062 265.136719 195.761719 265.160156 C 195.742188 265.171875 195.71875 265.175781 195.695312 265.175781 Z M 194.582031 263.328125 L 194.515625 263.328125 C 194.320312 263.328125 194.308594 263.417969 194.308594 263.445312 C 194.257812 263.753906 194.996094 264.53125 195.558594 264.871094 C 195.507812 264.335938 195.308594 263.867188 194.957031 263.464844 C 194.847656 263.371094 194.71875 263.324219 194.574219 263.328125 Z M 194.582031 263.328125 " fill-opacity="1" fill-rule="nonzero"/><path fill="#ff8b7b" d="M 200.699219 265.070312 L 196.144531 265.070312 L 195.691406 254.515625 L 200.246094 254.515625 Z M 200.699219 265.070312 " fill-opacity="1" fill-rule="nonzero"/><path fill="#ff8b7b" d="M 234.15625 262.957031 L 229.703125 263.925781 L 225.226562 254.09375 L 229.683594 253.128906 Z M 234.15625 262.957031 " fill-opacity="1" fill-rule="nonzero"/><path fill="#263238" d="M 229.269531 263.476562 L 234.277344 262.394531 C 234.484375 262.351562 234.628906 262.425781 234.71875 262.613281 L 236.457031 266.386719 C 236.503906 266.480469 236.523438 266.578125 236.523438 266.679688 C 236.523438 266.785156 236.5 266.882812 236.453125 266.976562 C 236.40625 267.066406 236.339844 267.144531 236.257812 267.203125 C 236.171875 267.265625 236.078125 267.304688 235.976562 267.320312 C 234.226562 267.664062 233.351562 267.746094 231.15625 268.21875 C 229.800781 268.519531 226.742188 269.261719 224.867188 269.664062 C 222.996094 270.066406 222.355469 268.273438 223.085938 267.941406 C 226.359375 266.445312 227.71875 265.128906 228.609375 263.90625 C 228.773438 263.679688 228.996094 263.535156 229.269531 263.476562 Z M 229.269531 263.476562 " fill-opacity="1" fill-rule="nonzero"/><path fill="#263238" d="M 196.175781 264.539062 L 201.152344 264.539062 C 201.363281 264.539062 201.492188 264.644531 201.539062 264.851562 L 202.441406 268.902344 C 202.46875 269 202.472656 269.101562 202.449219 269.199219 C 202.429688 269.300781 202.386719 269.390625 202.324219 269.472656 C 202.257812 269.554688 202.179688 269.613281 202.085938 269.65625 C 201.996094 269.699219 201.894531 269.71875 201.792969 269.71875 C 200 269.683594 197.40625 269.582031 195.152344 269.582031 C 192.507812 269.582031 190.234375 269.722656 187.136719 269.722656 C 185.261719 269.722656 184.746094 267.832031 185.527344 267.65625 C 189.09375 266.878906 192.007812 266.792969 195.085938 264.894531 C 195.417969 264.675781 195.777344 264.554688 196.175781 264.539062 Z M 196.175781 264.539062 " fill-opacity="1" fill-rule="nonzero"/><path fill="#2e4063" d="M 214.597656 109.511719 C 218.867188 110.492188 222.375 121.394531 222.375 121.394531 L 213.839844 127.921875 C 211.585938 125.511719 210.074219 122.703125 209.304688 119.496094 C 207.792969 113.78125 210.230469 108.5 214.597656 109.511719 Z M 214.597656 109.511719 " fill-opacity="1" fill-rule="nonzero"/><path fill="#000000" d="M 214.597656 109.511719 C 218.867188 110.492188 222.375 121.394531 222.375 121.394531 L 213.839844 127.921875 C 211.585938 125.511719 210.074219 122.703125 209.304688 119.496094 C 207.792969 113.78125 210.230469 108.5 214.597656 109.511719 Z M 214.597656 109.511719 " fill-opacity="0.4" fill-rule="nonzero"/><path fill="#ff8b7b" d="M 192.132812 122.515625 C 191.070312 123.664062 190.007812 124.6875 188.890625 125.757812 C 188.339844 126.277344 187.785156 126.792969 187.214844 127.292969 L 186.351562 128.050781 L 186.136719 128.238281 L 185.769531 128.539062 C 185.386719 128.84375 184.96875 129.089844 184.519531 129.277344 C 184.011719 129.492188 183.484375 129.597656 182.9375 129.601562 C 182.46875 129.601562 182.015625 129.523438 181.574219 129.359375 C 181.089844 129.175781 180.65625 128.898438 180.28125 128.539062 C 179.796875 128.066406 179.460938 127.507812 179.269531 126.859375 C 179.171875 126.542969 179.109375 126.222656 179.082031 125.894531 C 179.046875 125.507812 179.046875 125.125 179.082031 124.738281 C 179.113281 124.429688 179.152344 124.15625 179.203125 123.902344 C 179.382812 123.019531 179.632812 122.15625 179.957031 121.3125 C 180.246094 120.511719 180.582031 119.730469 180.960938 118.964844 C 181.375 118.144531 181.769531 117.539062 182.164062 116.855469 C 183.773438 114.21875 185.597656 111.742188 187.640625 109.429688 C 189.664062 107.125 191.878906 105.027344 194.285156 103.128906 L 196.667969 105.585938 C 194.996094 107.828125 193.351562 110.230469 191.828125 112.597656 C 190.3125 114.949219 188.929688 117.378906 187.679688 119.886719 C 187.402344 120.496094 187.03125 121.183594 186.855469 121.675781 C 186.625 122.246094 186.425781 122.832031 186.253906 123.425781 C 186.089844 123.960938 185.96875 124.503906 185.886719 125.058594 C 185.882812 125.144531 185.882812 125.230469 185.886719 125.316406 C 185.886719 125.367188 185.886719 125.394531 185.886719 125.257812 C 185.875 125.113281 185.847656 124.96875 185.800781 124.832031 C 185.660156 124.363281 185.410156 123.960938 185.054688 123.625 C 184.742188 123.339844 184.386719 123.121094 183.988281 122.976562 C 183.636719 122.84375 183.273438 122.777344 182.898438 122.777344 C 182.535156 122.773438 182.1875 122.839844 181.855469 122.976562 C 181.742188 123.023438 181.632812 123.078125 181.53125 123.140625 L 181.777344 122.914062 L 182.5625 122.199219 L 184.109375 120.75 C 185.132812 119.78125 186.164062 118.753906 187.136719 117.792969 Z M 192.132812 122.515625 " fill-opacity="1" fill-rule="nonzero"/><path fill="#000000" d="M 210.9375 117.519531 C 213.257812 119.816406 214.015625 124 214.175781 127.628906 L 213.800781 127.921875 C 211.546875 125.511719 210.035156 122.703125 209.265625 119.496094 C 209.179688 119.160156 209.101562 118.851562 209.042969 118.480469 Z M 210.9375 117.519531 " fill-opacity="0.2" fill-rule="nonzero"/><path fill="#2e4063" d="M 187.601562 114.046875 C 186.667969 118.972656 186.085938 129.089844 188.789062 149.109375 L 213.191406 149.109375 C 213.359375 145.371094 211.007812 127.113281 214.617188 109.480469 C 211.917969 108.960938 209.195312 108.617188 206.453125 108.449219 C 202.996094 108.25 199.539062 108.25 196.085938 108.449219 C 194.945312 108.554688 193.816406 108.722656 192.84375 108.894531 C 192.199219 109.011719 191.582031 109.214844 191 109.515625 C 190.417969 109.816406 189.890625 110.195312 189.421875 110.65625 C 188.953125 111.117188 188.566406 111.636719 188.253906 112.214844 C 187.945312 112.792969 187.726562 113.402344 187.601562 114.046875 Z M 187.601562 114.046875 " fill-opacity="1" fill-rule="nonzero"/><path fill="#000000" d="M 187.601562 114.046875 C 186.667969 118.972656 186.085938 129.089844 188.789062 149.109375 L 213.191406 149.109375 C 213.359375 145.371094 211.007812 127.113281 214.617188 109.480469 C 211.917969 108.960938 209.195312 108.617188 206.453125 108.449219 C 202.996094 108.25 199.539062 108.25 196.085938 108.449219 C 194.945312 108.554688 193.816406 108.722656 192.84375 108.894531 C 192.199219 109.011719 191.582031 109.214844 191 109.515625 C 190.417969 109.816406 189.890625 110.195312 189.421875 110.65625 C 188.953125 111.117188 188.566406 111.636719 188.253906 112.214844 C 187.945312 112.792969 187.726562 113.402344 187.601562 114.046875 Z M 187.601562 114.046875 " fill-opacity="0.4" fill-rule="nonzero"/><path fill="#000000" d="M 191.335938 121.351562 L 186.929688 120.292969 C 186.792969 122.964844 186.78125 126.269531 186.972656 130.359375 C 189.003906 128.050781 191.59375 124.449219 191.335938 121.351562 Z M 191.335938 121.351562 " fill-opacity="0.2" fill-rule="nonzero"/><path fill="#000000" d="M 195.691406 254.515625 L 195.921875 259.957031 L 200.484375 259.957031 L 200.25 254.515625 Z M 195.691406 254.515625 " fill-opacity="0.2" fill-rule="nonzero"/><path fill="#000000" d="M 229.683594 253.128906 L 225.226562 254.09375 L 227.53125 259.160156 L 231.992188 258.195312 Z M 229.683594 253.128906 " fill-opacity="0.2" fill-rule="nonzero"/><path fill="#ff8b7b" d="M 207.316406 93.414062 C 206.148438 97.785156 205.683594 100.402344 202.984375 102.214844 C 198.9375 104.976562 193.882812 101.8125 193.753906 97.199219 C 193.609375 93.035156 195.546875 86.585938 200.230469 85.703125 C 200.488281 85.65625 200.746094 85.625 201.007812 85.609375 C 201.265625 85.59375 201.527344 85.59375 201.789062 85.613281 C 202.046875 85.628906 202.304688 85.664062 202.5625 85.714844 C 202.816406 85.765625 203.070312 85.832031 203.316406 85.914062 C 203.566406 85.996094 203.804688 86.09375 204.042969 86.207031 C 204.277344 86.320312 204.503906 86.449219 204.722656 86.589844 C 204.941406 86.730469 205.148438 86.886719 205.351562 87.054688 C 205.550781 87.222656 205.738281 87.402344 205.914062 87.59375 C 206.089844 87.785156 206.253906 87.988281 206.402344 88.203125 C 206.554688 88.414062 206.691406 88.636719 206.8125 88.867188 C 206.9375 89.097656 207.042969 89.332031 207.136719 89.578125 C 207.230469 89.820312 207.304688 90.070312 207.367188 90.324219 C 207.429688 90.578125 207.472656 90.832031 207.5 91.09375 C 207.53125 91.351562 207.542969 91.613281 207.539062 91.875 C 207.535156 92.132812 207.511719 92.394531 207.476562 92.652344 C 207.4375 92.910156 207.382812 93.164062 207.316406 93.414062 Z M 207.316406 93.414062 " fill-opacity="1" fill-rule="nonzero"/><path fill="#263238" d="M 197.089844 93.578125 C 196.867188 92.996094 195.863281 88.476562 196.8125 87.304688 C 197.757812 86.132812 208.546875 86.980469 210.140625 88.550781 C 212.789062 91.140625 210.949219 93.472656 208.054688 96.472656 C 205.875 98.730469 205.792969 101.269531 204.691406 101.660156 C 202.746094 102.304688 199.777344 101.695312 199.183594 99.644531 C 198.585938 97.589844 197.089844 93.578125 197.089844 93.578125 Z M 197.089844 93.578125 " fill-opacity="1" fill-rule="nonzero"/><path fill="#263238" d="M 208.832031 83.410156 C 205.019531 81.789062 197.875 83.585938 194.011719 82.652344 C 193.988281 83.371094 194.089844 84.070312 194.316406 84.75 C 194.546875 85.433594 194.886719 86.050781 195.339844 86.609375 C 195.792969 87.167969 196.332031 87.625 196.949219 87.988281 C 197.570312 88.351562 198.234375 88.59375 198.941406 88.71875 C 202.152344 89.328125 205.394531 89.628906 208.664062 89.617188 C 212.898438 89.425781 212.070312 84.789062 208.832031 83.410156 Z M 208.832031 83.410156 " fill-opacity="1" fill-rule="nonzero"/><path fill="#263238" d="M 209.425781 88.683594 C 210.847656 88.824219 212.195312 88.566406 213.464844 87.914062 C 214.175781 89.636719 210.257812 90.109375 209.425781 88.683594 Z M 209.425781 88.683594 " fill-opacity="1" fill-rule="nonzero"/><path fill="#ff8b7b" d="M 199.164062 93.757812 C 199.074219 94.914062 198.640625 95.921875 197.867188 96.785156 C 196.867188 97.878906 195.832031 97.195312 195.65625 95.863281 C 195.5 94.660156 195.824219 92.625 197.042969 92.042969 C 198.261719 91.457031 199.246094 92.40625 199.164062 93.757812 Z M 199.164062 93.757812 " fill-opacity="1" fill-rule="nonzero"/><path fill="#2e4063" d="M 197.4375 149.128906 C 197.4375 149.128906 202.625 183.960938 205.453125 197.011719 C 208.558594 211.300781 225.238281 258.570312 225.238281 258.570312 L 233.398438 256.800781 C 233.398438 256.800781 221.734375 218.273438 219.140625 198.292969 C 217.132812 182.949219 213.183594 149.117188 213.183594 149.117188 Z M 197.4375 149.128906 " fill-opacity="1" fill-rule="nonzero"/><path fill="#263238" d="M 223.28125 255.855469 C 223.25 255.855469 224.804688 258.8125 224.804688 258.8125 L 233.980469 256.820312 L 233.207031 254.0625 Z M 223.28125 255.855469 " fill-opacity="1" fill-rule="nonzero"/><path fill="#000000" d="M 200.710938 161.539062 C 206.691406 162.710938 206.058594 185.015625 205.339844 196.492188 C 203.613281 188.378906 201.085938 172.777344 199.363281 161.703125 C 199.792969 161.488281 200.242188 161.433594 200.710938 161.539062 Z M 200.710938 161.539062 " fill-opacity="0.3" fill-rule="nonzero"/><path fill="#2e4063" d="M 188.789062 149.128906 C 188.789062 149.128906 188.140625 183.210938 188.660156 197.082031 C 189.175781 211.539062 194.226562 258.875 194.226562 258.875 L 201.949219 258.875 C 201.949219 258.875 202.226562 212.382812 202.597656 198.183594 C 202.972656 182.710938 204.839844 149.105469 204.839844 149.105469 Z M 188.789062 149.128906 " fill-opacity="1" fill-rule="nonzero"/><path fill="#263238" d="M 192.742188 255.832031 C 192.703125 255.832031 193.175781 259.03125 193.175781 259.03125 L 202.566406 259.03125 L 202.824219 256.175781 Z M 192.742188 255.832031 " fill-opacity="1" fill-rule="nonzero"/><path fill="#2e4063" d="M 197.152344 115.5625 C 199.335938 121.453125 186.5 128.394531 186.5 128.394531 L 180.941406 121.265625 C 180.941406 121.265625 184.679688 113.867188 189.214844 110.535156 C 194.820312 106.425781 195.488281 111.082031 197.152344 115.5625 Z M 197.152344 115.5625 " fill-opacity="1" fill-rule="nonzero"/><path fill="#000000" d="M 197.152344 115.5625 C 199.335938 121.453125 186.5 128.394531 186.5 128.394531 L 180.941406 121.265625 C 180.941406 121.265625 184.679688 113.867188 189.214844 110.535156 C 194.820312 106.425781 195.488281 111.082031 197.152344 115.5625 Z M 197.152344 115.5625 " fill-opacity="0.4" fill-rule="nonzero"/><path fill="#2e4063" d="M 270.839844 55.941406 C 270.839844 56.429688 270.800781 56.917969 270.726562 57.402344 C 270.648438 57.886719 270.539062 58.371094 270.386719 58.847656 C 270.238281 59.328125 270.054688 59.800781 269.832031 60.269531 C 269.609375 60.734375 269.351562 61.195312 269.058594 61.644531 C 268.765625 62.097656 268.4375 62.535156 268.078125 62.96875 C 267.714844 63.398438 267.324219 63.816406 266.898438 64.222656 C 266.472656 64.628906 266.015625 65.019531 265.53125 65.398438 C 265.042969 65.773438 264.53125 66.136719 263.988281 66.480469 C 263.445312 66.824219 262.878906 67.152344 262.289062 67.460938 C 261.695312 67.773438 261.082031 68.0625 260.445312 68.335938 C 259.808594 68.605469 259.152344 68.855469 258.476562 69.085938 C 257.800781 69.316406 257.109375 69.523438 256.402344 69.710938 C 255.695312 69.898438 254.972656 70.0625 254.242188 70.203125 C 253.507812 70.347656 252.765625 70.464844 252.015625 70.558594 C 251.261719 70.65625 250.507812 70.726562 249.742188 70.773438 C 248.980469 70.820312 248.21875 70.847656 247.453125 70.847656 C 246.6875 70.847656 245.921875 70.820312 245.160156 70.773438 C 244.398438 70.726562 243.640625 70.65625 242.890625 70.558594 C 242.136719 70.464844 241.394531 70.347656 240.664062 70.203125 C 239.929688 70.0625 239.210938 69.898438 238.503906 69.710938 C 237.792969 69.523438 237.101562 69.316406 236.425781 69.085938 C 235.753906 68.855469 235.097656 68.605469 234.457031 68.335938 C 233.820312 68.0625 233.207031 67.773438 232.617188 67.460938 C 232.023438 67.152344 231.457031 66.824219 230.914062 66.480469 C 230.375 66.136719 229.859375 65.773438 229.375 65.398438 C 228.886719 65.019531 228.433594 64.628906 228.007812 64.222656 C 227.582031 63.816406 227.1875 63.398438 226.828125 62.96875 C 226.464844 62.535156 226.140625 62.097656 225.84375 61.644531 C 225.550781 61.195312 225.292969 60.734375 225.074219 60.269531 C 224.851562 59.800781 224.664062 59.328125 224.515625 58.847656 C 224.367188 58.371094 224.253906 57.886719 224.179688 57.402344 C 224.101562 56.917969 224.066406 56.429688 224.066406 55.941406 C 224.066406 55.453125 224.101562 54.964844 224.179688 54.480469 C 224.253906 53.996094 224.367188 53.511719 224.515625 53.035156 C 224.664062 52.554688 224.851562 52.082031 225.074219 51.617188 C 225.292969 51.148438 225.550781 50.6875 225.84375 50.238281 C 226.140625 49.789062 226.464844 49.347656 226.828125 48.917969 C 227.1875 48.484375 227.582031 48.066406 228.007812 47.660156 C 228.433594 47.253906 228.886719 46.863281 229.375 46.488281 C 229.859375 46.109375 230.375 45.75 230.914062 45.402344 C 231.457031 45.058594 232.023438 44.730469 232.617188 44.421875 C 233.207031 44.109375 233.820312 43.820312 234.460938 43.550781 C 235.097656 43.277344 235.753906 43.027344 236.425781 42.796875 C 237.101562 42.566406 237.792969 42.359375 238.503906 42.171875 C 239.210938 41.984375 239.929688 41.820312 240.664062 41.679688 C 241.394531 41.539062 242.136719 41.417969 242.890625 41.324219 C 243.640625 41.230469 244.398438 41.15625 245.160156 41.109375 C 245.921875 41.0625 246.6875 41.039062 247.453125 41.039062 C 248.21875 41.039062 248.980469 41.0625 249.742188 41.109375 C 250.507812 41.15625 251.261719 41.230469 252.015625 41.324219 C 252.765625 41.417969 253.507812 41.539062 254.242188 41.679688 C 254.972656 41.820312 255.695312 41.984375 256.402344 42.171875 C 257.109375 42.359375 257.800781 42.566406 258.476562 42.796875 C 259.152344 43.027344 259.808594 43.277344 260.445312 43.550781 C 261.082031 43.820312 261.695312 44.109375 262.289062 44.421875 C 262.878906 44.730469 263.445312 45.058594 263.988281 45.402344 C 264.53125 45.75 265.042969 46.109375 265.53125 46.488281 C 266.015625 46.863281 266.472656 47.253906 266.898438 47.660156 C 267.320312 48.066406 267.714844 48.484375 268.078125 48.917969 C 268.4375 49.347656 268.765625 49.789062 269.058594 50.238281 C 269.351562 50.6875 269.609375 51.148438 269.832031 51.617188 C 270.054688 52.082031 270.238281 52.554688 270.386719 53.035156 C 270.539062 53.511719 270.648438 53.996094 270.726562 54.480469 C 270.800781 54.964844 270.839844 55.453125 270.839844 55.941406 Z M 270.839844 55.941406 " fill-opacity="1" fill-rule="nonzero"/><path fill="#ffffff" d="M 239.015625 63.445312 C 238.246094 63.441406 237.496094 63.308594 236.773438 63.042969 C 236.050781 62.777344 235.394531 62.394531 234.808594 61.898438 C 234.21875 61.402344 233.734375 60.820312 233.351562 60.148438 C 232.96875 59.480469 232.710938 58.769531 232.582031 58.007812 C 232.515625 57.601562 232.492188 57.191406 232.503906 56.777344 C 232.515625 56.367188 232.566406 55.960938 232.65625 55.554688 C 232.746094 55.152344 232.871094 54.761719 233.03125 54.382812 C 233.195312 54.003906 233.390625 53.644531 233.617188 53.300781 C 233.847656 52.957031 234.109375 52.636719 234.398438 52.34375 C 234.6875 52.050781 235 51.785156 235.335938 51.550781 C 235.675781 51.3125 236.035156 51.109375 236.410156 50.941406 C 236.785156 50.773438 237.175781 50.640625 237.578125 50.542969 C 238.242188 50.390625 238.910156 50.34375 239.589844 50.402344 C 240.269531 50.457031 240.925781 50.617188 241.554688 50.882812 C 242.183594 51.144531 242.753906 51.496094 243.273438 51.9375 C 243.792969 52.382812 244.230469 52.894531 244.585938 53.472656 L 259.601562 50.375 C 259.890625 50.3125 260.179688 50.304688 260.472656 50.351562 C 260.765625 50.398438 261.035156 50.496094 261.292969 50.644531 C 261.546875 50.792969 261.765625 50.984375 261.949219 51.214844 C 262.128906 51.449219 262.265625 51.707031 262.347656 51.988281 C 262.429688 52.289062 262.445312 52.59375 262.398438 52.902344 C 262.355469 53.207031 262.25 53.492188 262.085938 53.757812 C 261.921875 54.023438 261.710938 54.242188 261.457031 54.421875 C 261.203125 54.597656 260.921875 54.71875 260.617188 54.78125 L 260.230469 54.859375 C 260.105469 54.882812 260.015625 54.949219 259.957031 55.0625 C 259.90625 55.171875 259.90625 55.285156 259.957031 55.398438 L 260.222656 56.085938 C 260.316406 56.3125 260.324219 56.546875 260.25 56.78125 C 260.171875 57.015625 260.03125 57.203125 259.820312 57.335938 C 259.480469 57.546875 259.289062 57.851562 259.246094 58.25 C 259.226562 58.46875 259.144531 58.660156 259 58.828125 C 258.855469 58.992188 258.675781 59.101562 258.460938 59.148438 L 258.15625 59.214844 C 257.941406 59.253906 257.734375 59.226562 257.535156 59.128906 C 257.335938 59.035156 257.183594 58.890625 257.082031 58.695312 C 256.941406 58.464844 256.75 58.292969 256.503906 58.183594 C 256.257812 58.078125 256.003906 58.050781 255.738281 58.105469 C 255.472656 58.160156 255.25 58.285156 255.066406 58.484375 C 254.882812 58.683594 254.777344 58.914062 254.742188 59.183594 C 254.722656 59.398438 254.640625 59.589844 254.5 59.757812 C 254.355469 59.921875 254.175781 60.027344 253.964844 60.074219 L 253.660156 60.140625 C 253.441406 60.179688 253.234375 60.152344 253.039062 60.054688 C 252.839844 59.960938 252.6875 59.816406 252.582031 59.621094 C 252.378906 59.28125 252.078125 59.078125 251.683594 59.011719 C 251.425781 58.980469 251.210938 58.871094 251.039062 58.675781 C 250.863281 58.480469 250.777344 58.253906 250.777344 57.996094 L 250.777344 57.257812 C 250.769531 57.132812 250.71875 57.035156 250.621094 56.960938 C 250.527344 56.882812 250.417969 56.859375 250.296875 56.882812 L 245.507812 57.867188 C 245.410156 58.53125 245.214844 59.164062 244.921875 59.765625 C 244.628906 60.371094 244.253906 60.914062 243.792969 61.402344 C 243.332031 61.886719 242.808594 62.292969 242.222656 62.621094 C 241.632812 62.945312 241.011719 63.175781 240.355469 63.308594 C 239.914062 63.398438 239.464844 63.445312 239.015625 63.445312 Z M 237.71875 51.132812 C 237.355469 51.21875 237 51.335938 236.660156 51.488281 C 236.316406 51.640625 235.992188 51.820312 235.683594 52.035156 C 235.378906 52.246094 235.09375 52.484375 234.828125 52.753906 C 234.566406 53.019531 234.332031 53.308594 234.121094 53.617188 C 233.914062 53.929688 233.734375 54.253906 233.589844 54.597656 C 233.441406 54.941406 233.328125 55.296875 233.246094 55.664062 C 233.167969 56.027344 233.121094 56.398438 233.109375 56.769531 C 233.101562 57.144531 233.125 57.515625 233.183594 57.886719 C 233.308594 58.578125 233.554688 59.230469 233.914062 59.835938 C 234.273438 60.441406 234.726562 60.964844 235.277344 61.410156 C 235.824219 61.851562 236.433594 62.1875 237.101562 62.410156 C 237.769531 62.636719 238.453125 62.738281 239.160156 62.71875 C 239.863281 62.699219 240.542969 62.558594 241.195312 62.292969 C 241.851562 62.03125 242.4375 61.660156 242.960938 61.1875 C 243.480469 60.710938 243.90625 60.164062 244.230469 59.535156 C 244.554688 58.910156 244.757812 58.25 244.847656 57.550781 L 244.847656 57.316406 L 250.128906 56.246094 C 250.28125 56.210938 250.433594 56.207031 250.589844 56.238281 C 250.746094 56.273438 250.882812 56.335938 251.011719 56.429688 C 251.136719 56.527344 251.234375 56.644531 251.308594 56.785156 C 251.378906 56.925781 251.417969 57.074219 251.425781 57.230469 L 251.425781 57.96875 C 251.425781 58.175781 251.53125 58.300781 251.734375 58.339844 C 252.339844 58.425781 252.796875 58.734375 253.101562 59.265625 C 253.179688 59.425781 253.308594 59.496094 253.484375 59.472656 L 253.78125 59.410156 C 253.957031 59.363281 254.046875 59.25 254.054688 59.070312 C 254.097656 58.65625 254.257812 58.296875 254.535156 57.988281 C 254.8125 57.675781 255.15625 57.480469 255.5625 57.394531 C 255.96875 57.308594 256.363281 57.351562 256.742188 57.519531 C 257.121094 57.691406 257.414062 57.957031 257.617188 58.320312 C 257.695312 58.480469 257.820312 58.546875 257.996094 58.527344 L 258.304688 58.460938 C 258.476562 58.414062 258.566406 58.304688 258.570312 58.125 C 258.640625 57.515625 258.9375 57.050781 259.460938 56.730469 C 259.625 56.613281 259.671875 56.457031 259.59375 56.265625 L 259.328125 55.578125 C 259.273438 55.4375 259.25 55.289062 259.261719 55.132812 C 259.269531 54.980469 259.3125 54.835938 259.386719 54.703125 C 259.460938 54.566406 259.558594 54.453125 259.683594 54.363281 C 259.804688 54.269531 259.945312 54.210938 260.09375 54.179688 L 260.488281 54.09375 C 260.707031 54.050781 260.902344 53.960938 261.085938 53.835938 C 261.265625 53.707031 261.414062 53.550781 261.53125 53.363281 C 261.648438 53.175781 261.722656 52.972656 261.757812 52.753906 C 261.792969 52.535156 261.78125 52.320312 261.726562 52.105469 C 261.664062 51.902344 261.566406 51.714844 261.433594 51.550781 C 261.300781 51.382812 261.140625 51.246094 260.953125 51.140625 C 260.769531 51.035156 260.570312 50.964844 260.359375 50.933594 C 260.148438 50.902344 259.9375 50.910156 259.730469 50.957031 L 244.296875 54.167969 L 244.179688 53.964844 C 243.871094 53.414062 243.480469 52.925781 243.011719 52.5 C 242.542969 52.074219 242.015625 51.734375 241.4375 51.480469 C 240.855469 51.226562 240.25 51.070312 239.621094 51.011719 C 238.992188 50.957031 238.367188 51 237.75 51.148438 Z M 239.015625 61.035156 C 238.191406 61.042969 237.433594 60.828125 236.742188 60.386719 C 236.472656 60.210938 236.230469 60.007812 236.011719 59.777344 C 235.792969 59.546875 235.601562 59.296875 235.4375 59.019531 C 235.277344 58.746094 235.148438 58.457031 235.054688 58.152344 C 234.960938 57.847656 234.902344 57.535156 234.878906 57.21875 C 234.855469 56.902344 234.867188 56.585938 234.917969 56.269531 C 234.964844 55.957031 235.050781 55.652344 235.171875 55.355469 C 235.289062 55.058594 235.441406 54.78125 235.625 54.519531 C 235.808594 54.261719 236.019531 54.023438 236.257812 53.8125 C 236.496094 53.601562 236.753906 53.417969 237.035156 53.265625 C 237.3125 53.113281 237.609375 52.996094 237.914062 52.910156 C 238.222656 52.824219 238.535156 52.777344 238.851562 52.765625 C 239.171875 52.75 239.488281 52.773438 239.800781 52.835938 C 240.113281 52.894531 240.414062 52.988281 240.707031 53.117188 C 240.996094 53.25 241.269531 53.410156 241.523438 53.601562 C 241.777344 53.792969 242.007812 54.011719 242.210938 54.257812 C 242.414062 54.5 242.589844 54.765625 242.730469 55.050781 C 242.875 55.335938 242.984375 55.632812 243.058594 55.941406 C 243.132812 56.253906 243.171875 56.566406 243.171875 56.886719 C 243.175781 57.203125 243.140625 57.519531 243.070312 57.828125 C 243 58.140625 242.898438 58.441406 242.757812 58.726562 C 242.617188 59.011719 242.449219 59.28125 242.25 59.527344 C 242.046875 59.777344 241.820312 59.996094 241.570312 60.191406 C 241.320312 60.390625 241.046875 60.554688 240.757812 60.6875 C 240.46875 60.820312 240.167969 60.917969 239.855469 60.984375 C 239.582031 61.035156 239.300781 61.054688 239.019531 61.046875 Z M 239.015625 53.382812 C 238.773438 53.382812 238.53125 53.40625 238.296875 53.453125 C 237.839844 53.550781 237.421875 53.730469 237.035156 53.996094 C 236.652344 54.261719 236.335938 54.585938 236.082031 54.980469 C 235.828125 55.371094 235.660156 55.792969 235.574219 56.253906 C 235.488281 56.710938 235.496094 57.167969 235.59375 57.621094 C 235.691406 58.078125 235.871094 58.5 236.132812 58.882812 C 236.398438 59.265625 236.726562 59.585938 237.117188 59.839844 C 237.507812 60.09375 237.929688 60.261719 238.390625 60.347656 C 238.847656 60.429688 239.304688 60.425781 239.761719 60.328125 C 240.453125 60.183594 241.046875 59.859375 241.542969 59.355469 C 242.039062 58.851562 242.355469 58.25 242.488281 57.554688 C 242.621094 56.863281 242.550781 56.1875 242.277344 55.535156 C 242 54.882812 241.570312 54.363281 240.976562 53.972656 C 240.390625 53.582031 239.746094 53.390625 239.039062 53.394531 Z M 239.015625 53.382812 " fill-opacity="1" fill-rule="nonzero"/><path fill="#2e4063" d="M 236.105469 74.6875 C 236.105469 75.011719 236.054688 75.328125 235.957031 75.644531 C 235.859375 75.960938 235.714844 76.265625 235.519531 76.5625 C 235.328125 76.859375 235.089844 77.144531 234.808594 77.410156 C 234.53125 77.675781 234.210938 77.925781 233.855469 78.152344 C 233.496094 78.378906 233.109375 78.582031 232.691406 78.761719 C 232.269531 78.941406 231.828125 79.089844 231.359375 79.214844 C 230.894531 79.335938 230.414062 79.429688 229.917969 79.492188 C 229.425781 79.554688 228.925781 79.585938 228.421875 79.585938 C 227.914062 79.585938 227.414062 79.554688 226.921875 79.492188 C 226.425781 79.429688 225.945312 79.335938 225.480469 79.214844 C 225.011719 79.089844 224.570312 78.941406 224.148438 78.761719 C 223.730469 78.582031 223.34375 78.378906 222.984375 78.152344 C 222.628906 77.925781 222.308594 77.675781 222.03125 77.410156 C 221.75 77.144531 221.511719 76.859375 221.320312 76.5625 C 221.125 76.265625 220.980469 75.960938 220.882812 75.644531 C 220.785156 75.328125 220.734375 75.011719 220.734375 74.6875 C 220.734375 74.367188 220.785156 74.046875 220.882812 73.734375 C 220.980469 73.417969 221.125 73.109375 221.320312 72.8125 C 221.511719 72.515625 221.75 72.234375 222.03125 71.96875 C 222.308594 71.699219 222.628906 71.453125 222.984375 71.222656 C 223.34375 70.996094 223.730469 70.792969 224.148438 70.613281 C 224.570312 70.4375 225.011719 70.285156 225.480469 70.164062 C 225.945312 70.039062 226.425781 69.945312 226.921875 69.882812 C 227.414062 69.820312 227.914062 69.789062 228.421875 69.789062 C 228.925781 69.789062 229.425781 69.820312 229.917969 69.882812 C 230.414062 69.945312 230.894531 70.039062 231.359375 70.164062 C 231.828125 70.285156 232.269531 70.4375 232.691406 70.613281 C 233.109375 70.792969 233.496094 70.996094 233.855469 71.222656 C 234.210938 71.453125 234.53125 71.699219 234.808594 71.96875 C 235.089844 72.234375 235.328125 72.515625 235.519531 72.8125 C 235.714844 73.109375 235.859375 73.417969 235.957031 73.734375 C 236.054688 74.046875 236.105469 74.367188 236.105469 74.6875 Z M 236.105469 74.6875 " fill-opacity="0.6" fill-rule="nonzero"/><path fill="#2e4063" d="M 219.347656 79.585938 C 219.347656 79.855469 219.269531 80.109375 219.109375 80.355469 C 218.949219 80.601562 218.71875 80.820312 218.421875 81.007812 C 218.128906 81.195312 217.785156 81.339844 217.398438 81.441406 C 217.011719 81.546875 216.609375 81.597656 216.191406 81.597656 C 215.773438 81.597656 215.371094 81.546875 214.984375 81.441406 C 214.597656 81.339844 214.257812 81.195312 213.960938 81.007812 C 213.664062 80.820312 213.4375 80.601562 213.277344 80.355469 C 213.117188 80.109375 213.035156 79.855469 213.035156 79.585938 C 213.035156 79.320312 213.117188 79.066406 213.277344 78.820312 C 213.4375 78.574219 213.664062 78.355469 213.960938 78.167969 C 214.257812 77.980469 214.597656 77.832031 214.984375 77.730469 C 215.371094 77.628906 215.773438 77.578125 216.191406 77.578125 C 216.609375 77.578125 217.011719 77.628906 217.398438 77.730469 C 217.785156 77.832031 218.128906 77.980469 218.421875 78.167969 C 218.71875 78.355469 218.949219 78.574219 219.109375 78.820312 C 219.269531 79.066406 219.347656 79.320312 219.347656 79.585938 Z M 219.347656 79.585938 " fill-opacity="0.3" fill-rule="nonzero"/></svg>