<svg width="67" height="49" viewBox="0 0 67 49" fill="none" xmlns="http://www.w3.org/2000/svg">
<g filter="url(#filter0_dd_2262_4239)">
<g clip-path="url(#clip0_2262_4239)">
<path d="M8.5 6.875H58.5V38.125H8.5V6.875Z" fill="white"/>
<path d="M37.2827 22.5C37.2827 28.6964 32.1308 33.7187 25.7756 33.7187C19.4205 33.7187 14.2692 28.6962 14.2692 22.5C14.2692 16.3042 19.4206 11.2812 25.7756 11.2812C32.1306 11.2812 37.2827 16.3044 37.2827 22.5Z" fill="#D9222A"/>
<path d="M41.2237 11.2812C38.2506 11.2812 35.5415 12.381 33.4994 14.1854C33.0833 14.5534 32.695 14.9502 32.3375 15.3726H34.6622C34.9806 15.7499 35.2735 16.1469 35.5395 16.5609H31.4603C31.215 16.9435 30.9936 17.3403 30.7974 17.7489H36.202C36.3875 18.1355 36.5502 18.5321 36.6892 18.9367H30.3103C30.1762 19.3264 30.0646 19.723 29.9758 20.1248H37.0233C37.1956 20.9054 37.2825 21.7017 37.2823 22.5003C37.2823 23.7461 37.0737 24.9448 36.6891 26.064H30.3101C30.4488 26.4689 30.6114 26.8656 30.797 27.2521H36.2019C36.0055 27.6609 35.784 28.0577 35.5387 28.4404H31.4601C31.7264 28.8548 32.0197 29.2516 32.3374 29.6277H34.6616C34.3045 30.0509 33.9161 30.4481 33.4994 30.8159C35.5417 32.6201 38.2506 33.7193 41.2238 33.7193C47.5788 33.7193 52.7308 28.6967 52.7308 22.5006C52.7308 16.3049 47.5789 11.2818 41.2238 11.2818" fill="#EE9F2D"/>
<path d="M51.1974 28.7533C51.1974 28.5532 51.3636 28.3907 51.569 28.3907C51.7744 28.3907 51.9405 28.5532 51.9405 28.7533C51.9405 28.9532 51.7744 29.1157 51.569 29.1157C51.3637 29.1157 51.1974 28.9534 51.1974 28.7533ZM51.569 29.0288C51.7251 29.0287 51.8515 28.9054 51.8515 28.7533C51.8515 28.6012 51.7251 28.478 51.5692 28.478H51.569C51.4133 28.4778 51.2869 28.6007 51.2867 28.7525V28.7534C51.2865 28.9054 51.4128 29.0287 51.5686 29.0289C51.5687 29.0288 51.5688 29.0288 51.569 29.0288ZM51.5188 28.9125H51.4426V28.5942H51.5804C51.6092 28.5942 51.6386 28.5942 51.664 28.61C51.6905 28.6274 51.7054 28.6582 51.7054 28.6899C51.7054 28.7255 51.6838 28.7589 51.6488 28.7719L51.7089 28.9125H51.6246L51.5746 28.7865H51.5188L51.5188 28.9125ZM51.5188 28.7319H51.561C51.5767 28.7319 51.5933 28.7332 51.6074 28.7257C51.62 28.7179 51.6264 28.7032 51.6264 28.6892C51.6264 28.677 51.6187 28.6629 51.6079 28.6569C51.5947 28.6487 51.5736 28.6506 51.5594 28.6506H51.5188V28.7319ZM23.0893 23.728C22.9582 23.7132 22.9005 23.7092 22.8104 23.7092C22.1024 23.7092 21.744 23.946 21.744 24.4134C21.744 24.7016 21.919 24.885 22.1919 24.885C22.7007 24.885 23.0674 24.4125 23.0893 23.728ZM23.9977 25.7902H22.9627L22.9865 25.3105C22.6708 25.6897 22.2495 25.8699 21.6772 25.8699C21.0001 25.8699 20.5359 25.3542 20.5359 24.6055C20.5359 23.479 21.3433 22.8218 22.7293 22.8218C22.8708 22.8218 23.0524 22.8343 23.2383 22.8574C23.2771 22.7048 23.2872 22.6395 23.2872 22.5574C23.2872 22.2506 23.0695 22.1362 22.486 22.1362C21.8749 22.1295 21.3708 22.2782 21.1638 22.3446C21.1769 22.2677 21.3369 21.3035 21.3369 21.3035C21.9595 21.1256 22.3701 21.0587 22.8321 21.0587C23.9047 21.0587 24.4729 21.5282 24.4719 22.4157C24.4739 22.6535 24.4336 22.9469 24.3706 23.3326C24.2621 24.0033 24.0296 25.44 23.9977 25.7902ZM20.0132 25.7902H18.764L19.4796 21.4154L17.8818 25.7902H17.0305L16.9254 21.4404L16.1732 25.7902H15.0038L15.9806 20.0994H17.7768L17.8858 23.2847L18.9814 20.0994H20.9793L20.0132 25.7902ZM42.7683 23.728C42.6378 23.7132 42.5797 23.7092 42.49 23.7092C41.7822 23.7092 41.4237 23.946 41.4237 24.4134C41.4237 24.7016 41.5985 24.885 41.8713 24.885C42.3803 24.885 42.7472 24.4125 42.7683 23.728ZM43.6775 25.7902H42.6426L42.666 25.3105C42.3503 25.6897 41.9288 25.8699 41.357 25.8699C40.6797 25.8699 40.216 25.3542 40.216 24.6055C40.216 23.479 41.0228 22.8218 42.409 22.8218C42.5506 22.8218 42.7319 22.8343 42.9176 22.8574C42.9563 22.7048 42.9665 22.6395 42.9665 22.5574C42.9665 22.2506 42.7491 22.1362 42.1655 22.1362C41.5544 22.1295 41.0509 22.2782 40.8431 22.3446C40.8562 22.2677 41.0167 21.3035 41.0167 21.3035C41.6394 21.1256 42.0496 21.0587 42.5111 21.0587C43.5842 21.0587 44.1524 21.5282 44.1513 22.4157C44.1534 22.6535 44.1131 22.9469 44.0501 23.3326C43.9422 24.0033 43.709 25.44 43.6775 25.7902ZM29.5499 25.7199C29.208 25.8249 28.9415 25.8699 28.6525 25.8699C28.0138 25.8699 27.6653 25.512 27.6653 24.8532C27.6562 24.6488 27.7572 24.1107 27.8365 23.6196C27.9086 23.1873 28.3781 20.4615 28.3781 20.4615H29.6199L29.4749 21.162H30.2249L30.0554 22.2743H29.3028C29.1585 23.1545 28.9531 24.2509 28.9508 24.3962C28.9508 24.6347 29.0813 24.7389 29.3783 24.7389C29.5207 24.7389 29.631 24.7247 29.7152 24.6951L29.5499 25.7199ZM33.357 25.6824C32.9305 25.8095 32.5189 25.871 32.0828 25.8699C30.6928 25.8686 29.9682 25.1608 29.9682 23.8054C29.9682 22.2234 30.89 21.0587 32.1413 21.0587C33.165 21.0587 33.8188 21.7108 33.8188 22.7335C33.8188 23.0728 33.774 23.404 33.6658 23.8717H31.1931C31.1095 24.5431 31.5501 24.8228 32.2724 24.8228C32.7169 24.8228 33.1178 24.7334 33.5635 24.5314L33.357 25.6824ZM32.6592 22.9387C32.666 22.8422 32.7908 22.1126 32.0814 22.1126C31.6858 22.1126 31.403 22.4066 31.2878 22.9387H32.6592ZM24.7476 22.6251C24.7476 23.2105 25.0387 23.6142 25.699 23.9174C26.2049 24.1492 26.2831 24.2179 26.2831 24.428C26.2831 24.7165 26.0601 24.8467 25.5657 24.8467C25.1931 24.8467 24.8465 24.79 24.4466 24.6642C24.4466 24.6642 24.2823 25.6842 24.2748 25.733C24.5588 25.7934 24.812 25.8494 25.5748 25.8699C26.8929 25.8699 27.5016 25.3806 27.5016 24.323C27.5016 23.6871 27.2468 23.3139 26.621 23.0335C26.0972 22.7991 26.0371 22.7467 26.0371 22.5306C26.0371 22.2804 26.2447 22.1527 26.6485 22.1527C26.8937 22.1527 27.2287 22.1782 27.546 22.2223L27.7238 21.1489C27.4004 21.0989 26.91 21.0587 26.6245 21.0587C25.2271 21.0587 24.7433 21.7704 24.7476 22.6251ZM39.4329 21.1804C39.7799 21.1804 40.1033 21.2691 40.5491 21.4879L40.7534 20.2527C40.5704 20.1827 39.9262 19.7715 39.3806 19.7715C38.5445 19.7715 37.8379 20.1759 37.3408 20.8434C36.6158 20.6092 36.3178 21.0824 35.9524 21.5538L35.6279 21.6275C35.6525 21.4723 35.6747 21.3181 35.6672 21.1621H34.5201C34.3633 22.5944 34.0855 24.0452 33.8681 25.4793L33.8114 25.7903H35.0612C35.2697 24.4689 35.3841 23.6227 35.4535 23.0502L35.9242 22.7949C35.9944 22.5399 36.2145 22.4538 36.656 22.4642C36.5966 22.7772 36.5669 23.0948 36.5673 23.4132C36.5673 24.9272 37.4052 25.8699 38.75 25.8699C39.0964 25.8699 39.3937 25.8254 39.8539 25.7039L40.0738 24.4064C39.6597 24.6051 39.3199 24.6986 39.0122 24.6986C38.2861 24.6986 37.8467 24.176 37.8467 23.3121C37.8466 22.059 38.5002 21.1804 39.4329 21.1804Z" fill="black"/>
<path d="M20.3725 25.4528H19.123L19.8391 21.0786L18.2413 25.4528H17.3899L17.2846 21.1036L16.5325 25.4528H15.3631L16.3399 19.7627H18.136L18.1866 23.2853L19.3984 19.7627H21.3385L20.3725 25.4528Z" fill="white"/>
<path d="M50.0077 20.0996L49.7308 21.7439C49.3891 21.3056 49.0222 20.9884 48.5377 20.9884C47.9074 20.9884 47.3336 21.4543 46.9581 22.14C46.4352 22.0342 45.8942 21.8548 45.8942 21.8548L45.894 21.859C45.9361 21.4757 45.9529 21.2418 45.9492 21.1624H44.8018C44.6456 22.5947 44.3678 24.0455 44.1507 25.4795L44.0934 25.7905H45.3429C45.5117 24.722 45.641 23.8347 45.7361 23.1311C46.1629 22.755 46.3766 22.4269 46.8079 22.4488C46.617 22.8992 46.505 23.4178 46.505 23.9499C46.505 25.1069 47.1055 25.8702 48.0136 25.8702C48.4714 25.8702 48.8226 25.7163 49.1653 25.3595L49.1068 25.7898H50.2884L51.2399 20.0996H50.0077ZM48.4455 24.721C48.0202 24.721 47.8056 24.4142 47.8056 23.8087C47.8056 22.8991 48.2075 22.254 48.7743 22.254C49.2034 22.254 49.4358 22.573 49.4358 23.1607C49.4359 24.0783 49.0275 24.721 48.4455 24.721Z" fill="black"/>
<path d="M23.4481 23.3912C23.3172 23.3765 23.2592 23.3725 23.1695 23.3725C22.4614 23.3725 22.1032 23.6092 22.1032 24.0767C22.1032 24.3644 22.2782 24.5484 22.5507 24.5484C23.0599 24.5483 23.4267 24.0759 23.4481 23.3912ZM24.357 25.4527H23.322L23.3455 24.9738C23.0301 25.3522 22.6083 25.5332 22.0365 25.5332C21.3591 25.5332 20.8952 25.0176 20.8952 24.2689C20.8952 23.1419 21.7023 22.485 23.0885 22.485C23.2301 22.485 23.4117 22.4975 23.5974 22.5207C23.6361 22.3681 23.6462 22.3027 23.6462 22.2202C23.6462 21.9134 23.4289 21.7996 22.8452 21.7996C22.2339 21.7928 21.7301 21.9416 21.5228 22.0072C21.5359 21.9306 21.6959 20.9673 21.6959 20.9673C22.3183 20.7887 22.7293 20.7217 23.1908 20.7217C24.2638 20.7217 24.8321 21.1916 24.8311 22.0782C24.833 22.317 24.7923 22.6102 24.7296 22.9954C24.6214 23.6657 24.3885 25.1032 24.357 25.4527ZM41.1121 19.9157L40.9075 21.1512C40.462 20.9327 40.1383 20.8436 39.7917 20.8436C38.8589 20.8436 38.2051 21.7222 38.2051 22.9753C38.2051 23.8391 38.6447 24.3616 39.3707 24.3616C39.6784 24.3616 40.0179 24.2684 40.4319 24.0693L40.2126 25.3662C39.7521 25.4886 39.4552 25.5332 39.1084 25.5332C37.7638 25.5332 36.9257 24.5904 36.9257 23.0764C36.9257 21.042 38.0833 19.6201 39.739 19.6201C40.2844 19.6202 40.9289 19.8457 41.1121 19.9157ZM43.1276 23.3912C42.9968 23.3765 42.9391 23.3725 42.849 23.3725C42.1412 23.3725 41.7828 23.6092 41.7828 24.0767C41.7828 24.3644 41.9577 24.5484 42.2305 24.5484C42.7392 24.5483 43.1062 24.0759 43.1276 23.3912ZM44.0365 25.4527H43.0013L43.025 24.9738C42.7094 25.3522 42.2878 25.5332 41.716 25.5332C41.0389 25.5332 40.5747 25.0176 40.5747 24.2689C40.5747 23.1419 41.3821 22.485 42.7678 22.485C42.9097 22.485 43.091 22.4975 43.2769 22.5207C43.3154 22.3681 43.3258 22.3027 43.3258 22.2202C43.3258 21.9134 43.1083 21.7996 42.5248 21.7996C41.9137 21.7928 41.4096 21.9416 41.2024 22.0072C41.2155 21.9306 41.3757 20.9673 41.3757 20.9673C41.9981 20.7887 42.4088 20.7217 42.8703 20.7217C43.9435 20.7217 44.5116 21.1916 44.5103 22.0782C44.5124 22.317 44.4721 22.6102 44.409 22.9954C44.3012 23.6657 44.0678 25.1032 44.0365 25.4527ZM29.909 25.3826C29.5668 25.4876 29.3003 25.5332 29.0115 25.5332C28.3729 25.5332 28.0244 25.1753 28.0244 24.5166C28.0155 24.3115 28.1165 23.774 28.1958 23.2829C28.2676 22.8501 28.7373 20.1246 28.7373 20.1246H29.9787L29.8339 20.8254H30.4712L30.3016 21.9371H29.6622C29.518 22.8178 29.312 23.9133 29.3099 24.0589C29.3099 24.2983 29.4408 24.4016 29.7375 24.4016C29.8798 24.4016 29.9899 24.3881 30.0743 24.3584L29.909 25.3826ZM33.7162 25.3457C33.2899 25.4727 32.8777 25.534 32.4418 25.5332C31.0518 25.5319 30.3273 24.8241 30.3273 23.4686C30.3273 21.8861 31.249 20.7217 32.5003 20.7217C33.524 20.7217 34.1779 21.3736 34.1779 22.3967C34.1779 22.7363 34.133 23.0676 34.0252 23.535H31.5524C31.4687 24.2063 31.9094 24.4863 32.6317 24.4863C33.076 24.4863 33.4771 24.3967 33.9226 24.1941L33.7162 25.3457ZM33.018 22.6012C33.0255 22.5051 33.1499 21.7751 32.4402 21.7751C32.0449 21.7751 31.7621 22.0699 31.6469 22.6012H33.018ZM25.1064 22.2884C25.1064 22.8737 25.3976 23.2769 26.0578 23.5806C26.5637 23.8124 26.6419 23.8814 26.6419 24.0912C26.6419 24.3798 26.4187 24.51 25.9248 24.51C25.5519 24.51 25.2053 24.4532 24.8051 24.3275C24.8051 24.3275 24.6414 25.3475 24.634 25.3962C24.9173 25.4567 25.1708 25.5119 25.9336 25.5332C27.252 25.5332 27.8605 25.0439 27.8605 23.9866C27.8605 23.3503 27.6059 22.9772 26.9798 22.6967C26.4563 22.4619 26.3957 22.4103 26.3957 22.1939C26.3957 21.9439 26.6037 21.8152 27.0073 21.8152C27.2523 21.8152 27.5872 21.8415 27.905 21.8856L28.0826 20.8118C27.7595 20.7618 27.2691 20.7217 26.9835 20.7217C25.5858 20.7217 25.1024 21.4329 25.1064 22.2884ZM50.6481 25.4527H49.4662L49.525 25.0219C49.1822 25.3792 48.8311 25.5332 48.3733 25.5332C47.4651 25.5332 46.8649 24.7699 46.8649 23.6129C46.8649 22.0735 47.7958 20.7758 48.8976 20.7758C49.3821 20.7758 49.7489 20.9688 50.0901 21.4068L50.3674 19.7626H51.5995L50.6481 25.4527ZM48.8055 24.3834C49.3872 24.3834 49.7958 23.7407 49.7958 22.8239C49.7958 22.2361 49.5631 21.9171 49.134 21.9171C48.5674 21.9171 48.165 22.5619 48.165 23.4717C48.1649 24.0771 48.3802 24.3834 48.8055 24.3834ZM45.1617 20.8254C45.0053 22.2577 44.7275 23.7085 44.5103 25.1418L44.4531 25.4527H45.7026C46.1494 22.6231 46.2576 22.0704 46.9582 22.1397C47.0699 21.5606 47.2776 21.0532 47.4325 20.7972C46.9092 20.691 46.6171 20.9793 46.2346 21.5269C46.2647 21.2902 46.3201 21.0603 46.3091 20.8254H45.1617ZM34.8783 20.8254C34.7215 22.2577 34.4437 23.7085 34.2266 25.1418L34.1698 25.4527H35.4198C35.866 22.6231 35.974 22.0704 36.6742 22.1397C36.7864 21.5606 36.9942 21.0532 37.1485 20.7972C36.6258 20.691 36.3334 20.9793 35.9512 21.5269C35.9814 21.2902 36.0362 21.0603 36.0257 20.8254H34.8783ZM51.1969 25.0905C51.1969 24.8896 51.3633 24.728 51.5685 24.728C51.7734 24.7278 51.9398 24.8897 51.9399 25.0896V25.0905C51.9399 25.2905 51.7736 25.4526 51.5685 25.4527C51.3633 25.4526 51.1971 25.2905 51.1969 25.0905ZM51.5685 25.3657C51.7244 25.3658 51.8507 25.2426 51.8507 25.0907V25.0906C51.8509 24.9385 51.7246 24.8152 51.5687 24.8151H51.5685C51.4124 24.8151 51.2859 24.9384 51.2858 25.0906C51.286 25.2426 51.4125 25.3657 51.5685 25.3657ZM51.5182 25.2489H51.4421V24.9311H51.5801C51.6087 24.9311 51.6383 24.9316 51.6632 24.947C51.6899 24.9647 51.7051 24.9949 51.7051 25.0266C51.7051 25.0626 51.6835 25.0962 51.6482 25.1089L51.7085 25.2487H51.624L51.574 25.1232H51.5182V25.2487V25.2489ZM51.5182 25.0689H51.5601C51.5758 25.0689 51.593 25.07 51.6069 25.0626C51.6194 25.0548 51.6258 25.0401 51.6258 25.0259C51.6252 25.0128 51.6184 25.0007 51.6074 24.9932C51.5943 24.9859 51.5726 24.9879 51.5585 24.9879H51.5181L51.5182 25.0689Z" fill="white"/>
</g>
</g>
<defs>
<filter id="filter0_dd_2262_4239" x="0.5" y="0.875" width="66" height="47.25" filterUnits="userSpaceOnUse" color-interpolation-filters="sRGB">
<feFlood flood-opacity="0" result="BackgroundImageFix"/>
<feColorMatrix in="SourceAlpha" type="matrix" values="0 0 0 0 0 0 0 0 0 0 0 0 0 0 0 0 0 0 127 0" result="hardAlpha"/>
<feMorphology radius="2" operator="dilate" in="SourceAlpha" result="effect1_dropShadow_2262_4239"/>
<feOffset dy="2"/>
<feGaussianBlur stdDeviation="3"/>
<feColorMatrix type="matrix" values="0 0 0 0 0 0 0 0 0 0 0 0 0 0 0 0 0 0 0.15 0"/>
<feBlend mode="normal" in2="BackgroundImageFix" result="effect1_dropShadow_2262_4239"/>
<feColorMatrix in="SourceAlpha" type="matrix" values="0 0 0 0 0 0 0 0 0 0 0 0 0 0 0 0 0 0 127 0" result="hardAlpha"/>
<feOffset dy="1"/>
<feGaussianBlur stdDeviation="1"/>
<feColorMatrix type="matrix" values="0 0 0 0 0 0 0 0 0 0 0 0 0 0 0 0 0 0 0.3 0"/>
<feBlend mode="normal" in2="effect1_dropShadow_2262_4239" result="effect2_dropShadow_2262_4239"/>
<feBlend mode="normal" in="SourceGraphic" in2="effect2_dropShadow_2262_4239" result="shape"/>
</filter>
<clipPath id="clip0_2262_4239">
<rect x="8.5" y="6.875" width="50" height="31.25" rx="3" fill="white"/>
</clipPath>
</defs>
</svg>
