<svg xmlns="http://www.w3.org/2000/svg" xmlns:xlink="http://www.w3.org/1999/xlink" viewBox="0 0 42 42" id="Car"><defs><linearGradient id="b" x1="949.87" x2="974.39" y1="518.014" y2="544.657" gradientTransform="translate(-1272.559 316.47) scale(1.34562)" gradientUnits="userSpaceOnUse" xlink:href="#a"></linearGradient><linearGradient id="a"><stop offset="0" stop-color="#f72424" class="stopColor24f7bc svgShape"></stop><stop offset="1" stop-color="#fc2424" class="stopColor24c4fc svgShape"></stop></linearGradient></defs><g transform="translate(0 -1010.362)" fill="#8b2828" class="color000000 svgShape"><rect width="42" height="42" y="1010.362" fill="url(#b)" rx="8.876" ry="8.876"></rect><path style="line-height:normal;text-indent:0;text-align:start;text-decoration-line:none;text-decoration-style:solid;text-decoration-color:#000;text-transform:none;block-progression:tb;isolation:auto;mix-blend-mode:normal" fill="#ffffff" d="M21 1017.362c-7.726 0-14 6.274-14 14s6.274 14 14 14 14-6.274 14-14-6.274-14-14-14zm-.45 1.022v2.498c-1.486.064-2.959.442-4.318 1.135l-1.253-2.174a12.933 12.933 0 0 1 5.572-1.46zm1 .01c2.001.084 3.885.605 5.552 1.492l-1.256 2.176a10.478 10.478 0 0 0-4.295-1.17v-2.498zm-7.439 1.957 1.252 2.166c-.36.23-.714.476-1.05.754a10.45 10.45 0 0 0-2.126 2.402l-2.167-1.25a13.03 13.03 0 0 1 4.091-4.072zm13.85.045a13.03 13.03 0 0 1 4.045 4.068l-2.166 1.252a10.457 10.457 0 0 0-2.078-2.383 10.48 10.48 0 0 0-1.053-.77l1.252-2.167zm-6.916 1.468a9.48 9.48 0 0 1 6.072 2.235 9.495 9.495 0 0 1 2.133 11.978.5.5 0 0 0 .115.631.5.5 0 0 0 .002 0 .5.5 0 0 0 .137.115l2.5 1.444c-2.299 3.659-6.359 6.098-11.004 6.098-4.628 0-8.675-2.42-10.979-6.057l2.575-1.486a.5.5 0 0 0 .142-.75.5.5 0 0 0-.031-.072 9.496 9.496 0 0 1 2.244-11.96 9.482 9.482 0 0 1 6.094-2.177zm-.545 2.502v7.092c-.579.209-1 .762-1 1.408 0 .647.421 1.198 1 1.407v1.094h1v-1.094c.579-.209 1-.76 1-1.406 0-.647-.421-1.2-1-1.409v-7.092h-1zm-10.988.916 2.174 1.256a10.523 10.523 0 0 0-1.165 4.328H8.025a12.938 12.938 0 0 1 1.487-5.584zm22.998.045a12.936 12.936 0 0 1 1.465 5.54h-2.496a10.525 10.525 0 0 0-1.141-4.286l2.172-1.254zm-24.485 6.54h2.495c.069 1.476.452 2.952 1.166 4.328l-2.174 1.256a12.937 12.937 0 0 1-1.487-5.584zm23.454 0h2.496a12.933 12.933 0 0 1-1.467 5.539l-2.172-1.254a10.448 10.448 0 0 0 1.143-4.285zm-10.479.495c.282 0 .5.218.5.5 0 .282-.218.5-.5.5a.493.493 0 0 1-.5-.5c0-.282.218-.5.5-.5zm-5.5 6a.5.5 0 0 0-.5.5v2a.5.5 0 0 0 .5.5h11a.5.5 0 0 0 .5-.5v-2a.5.5 0 0 0-.5-.5h-11zm.5 1h10v1H16v-1z" color="#000" font-family="sans-serif" font-weight="400" overflow="visible" class="colorffffff svgShape"></path></g></svg>