<svg width="67" height="49" viewBox="0 0 67 49" fill="none" xmlns="http://www.w3.org/2000/svg">
<g clip-path="url(#clip0_2262_4229)" filter="url(#filter0_dd_2262_4229)">
<path d="M11.0641 6.875H55.9359C57.352 6.875 58.5 7.99431 58.5 9.375V35.625C58.5 37.0058 57.352 38.125 55.9359 38.125H11.0641C9.64801 38.125 8.5 37.0058 8.5 35.625V9.375C8.5 7.99431 9.64801 6.875 11.0641 6.875Z" fill="white"/>
<path d="M27.2949 28.6707L29.4334 16.4357H32.8539L30.7139 28.6707H27.2949ZM43.0712 16.6994C42.3936 16.4515 41.3316 16.1855 40.0057 16.1855C36.6259 16.1855 34.2451 17.8449 34.2249 20.2232C34.2057 21.9814 35.9245 22.9621 37.2218 23.5474C38.5533 24.147 39.0008 24.5295 38.9945 25.065C38.9861 25.8851 37.9313 26.2598 36.9482 26.2598C35.5792 26.2598 34.8519 26.0744 33.7285 25.6175L33.2878 25.4232L32.8077 28.1621C33.6066 28.5036 35.084 28.7995 36.6178 28.8148C40.2134 28.8148 42.5473 27.1744 42.574 24.6347C42.5868 23.2429 41.6755 22.1837 39.7021 21.3104C38.5066 20.7445 37.7744 20.3667 37.7822 19.7937C37.7822 19.2851 38.4019 18.7412 39.741 18.7412C40.8595 18.7244 41.6698 18.9622 42.3011 19.21L42.6076 19.3512L43.0712 16.6994ZM51.8731 16.4355H49.23C48.4112 16.4355 47.7985 16.6534 47.4389 17.4501L42.3592 28.6626H45.9509C45.9509 28.6626 46.5381 27.1549 46.6709 26.824C47.0635 26.824 50.5527 26.8292 51.0516 26.8292C51.1539 27.2575 51.4676 28.6626 51.4676 28.6626H54.6416L51.8731 16.4351V16.4355ZM47.6796 24.3361C47.9625 23.6312 49.0425 20.9159 49.0425 20.9159C49.0222 20.9485 49.3232 20.2075 49.4959 19.7482L49.727 20.8031C49.727 20.8031 50.3821 23.7237 50.5189 24.3361H47.6796ZM24.3912 16.4355L21.0425 24.7792L20.6856 23.0836C20.0622 21.129 18.1199 19.0114 15.9485 17.9512L19.0105 28.6512L22.6294 28.6472L28.0143 16.4354H24.3912" fill="#0E4595"/>
<path d="M17.9179 16.4348H12.4025L12.3588 16.6894C16.6497 17.7021 19.489 20.1496 20.6678 23.09L19.4684 17.4675C19.2614 16.6928 18.6609 16.4616 17.9181 16.4346" fill="#F2AE14"/>
</g>
<defs>
<filter id="filter0_dd_2262_4229" x="0.5" y="0.875" width="66" height="47.25" filterUnits="userSpaceOnUse" color-interpolation-filters="sRGB">
<feFlood flood-opacity="0" result="BackgroundImageFix"/>
<feColorMatrix in="SourceAlpha" type="matrix" values="0 0 0 0 0 0 0 0 0 0 0 0 0 0 0 0 0 0 127 0" result="hardAlpha"/>
<feMorphology radius="2" operator="dilate" in="SourceAlpha" result="effect1_dropShadow_2262_4229"/>
<feOffset dy="2"/>
<feGaussianBlur stdDeviation="3"/>
<feColorMatrix type="matrix" values="0 0 0 0 0 0 0 0 0 0 0 0 0 0 0 0 0 0 0.15 0"/>
<feBlend mode="normal" in2="BackgroundImageFix" result="effect1_dropShadow_2262_4229"/>
<feColorMatrix in="SourceAlpha" type="matrix" values="0 0 0 0 0 0 0 0 0 0 0 0 0 0 0 0 0 0 127 0" result="hardAlpha"/>
<feOffset dy="1"/>
<feGaussianBlur stdDeviation="1"/>
<feColorMatrix type="matrix" values="0 0 0 0 0 0 0 0 0 0 0 0 0 0 0 0 0 0 0.3 0"/>
<feBlend mode="normal" in2="effect1_dropShadow_2262_4229" result="effect2_dropShadow_2262_4229"/>
<feBlend mode="normal" in="SourceGraphic" in2="effect2_dropShadow_2262_4229" result="shape"/>
</filter>
<clipPath id="clip0_2262_4229">
<rect width="50" height="31.25" fill="white" transform="translate(8.5 6.875)"/>
</clipPath>
</defs>
</svg>
