<svg width="37" height="24" viewBox="0 0 37 24" fill="none" xmlns="http://www.w3.org/2000/svg">
<path d="M10.5618 11.3845H4.37772C4.27288 11.3845 4.17234 11.3476 4.0982 11.2819C4.02407 11.2162 3.98242 11.1271 3.98242 11.0343C3.98242 10.9414 4.02407 10.8523 4.0982 10.7866C4.17234 10.721 4.27288 10.6841 4.37772 10.6841H10.5618C10.6666 10.6841 10.7672 10.721 10.8413 10.7866C10.9154 10.8523 10.9571 10.9414 10.9571 11.0343C10.9571 11.1271 10.9154 11.2162 10.8413 11.2819C10.7672 11.3476 10.6666 11.3845 10.5618 11.3845ZM12.9336 14.4662H4.37772C4.27288 14.4662 4.17234 14.4293 4.0982 14.3636C4.02407 14.2979 3.98242 14.2089 3.98242 14.116C3.98242 14.0231 4.02407 13.934 4.0982 13.8684C4.17234 13.8027 4.27288 13.7658 4.37772 13.7658H12.9336C13.0384 13.7658 13.139 13.8027 13.2131 13.8684C13.2872 13.934 13.3289 14.0231 13.3289 14.116C13.3289 14.2089 13.2872 14.2979 13.2131 14.3636C13.139 14.4293 13.0384 14.4662 12.9336 14.4662ZM29.4893 10.2554C25.3479 10.2554 21.9786 13.2402 21.9786 16.9091C21.9786 20.5779 25.3479 23.5628 29.4893 23.5628C33.6307 23.5628 36.9999 20.5779 36.9999 16.9091C36.9999 13.2402 33.6307 10.2554 29.4893 10.2554ZM32.6517 17.2593H29.8846V19.7106C29.8846 19.8035 29.8429 19.8926 29.7688 19.9582C29.6946 20.0239 29.5941 20.0608 29.4893 20.0608C29.3844 20.0608 29.2839 20.0239 29.2097 19.9582C29.1356 19.8926 29.094 19.8035 29.094 19.7106V17.2593H26.3269C26.222 17.2593 26.1215 17.2224 26.0473 17.1567C25.9732 17.091 25.9316 17.0019 25.9316 16.9091C25.9316 16.8162 25.9732 16.7271 26.0473 16.6614C26.1215 16.5958 26.222 16.5589 26.3269 16.5589H29.094V14.1075C29.094 14.0146 29.1356 13.9256 29.2097 13.8599C29.2839 13.7942 29.3844 13.7573 29.4893 13.7573C29.5941 13.7573 29.6946 13.7942 29.7688 13.8599C29.8429 13.9256 29.8846 14.0146 29.8846 14.1075V16.5589H32.6517C32.7565 16.5589 32.857 16.5958 32.9312 16.6614C33.0053 16.7271 33.047 16.8162 33.047 16.9091C33.047 17.0019 33.0053 17.091 32.9312 17.1567C32.857 17.2224 32.7565 17.2593 32.6517 17.2593Z" fill="#2E4063"/>
<path d="M28.0662 0.4375H1.9765C0.886656 0.4375 0 1.22299 0 2.18847V16.1658C0 17.1313 0.886656 17.9167 1.9765 17.9167H17.6688C17.7736 17.9167 17.8741 17.8798 17.9483 17.8142C18.0224 17.7485 18.0641 17.6594 18.0641 17.5665C18.0641 17.4737 18.0224 17.3846 17.9483 17.3189C17.8741 17.2533 17.7736 17.2164 17.6688 17.2164H1.9765C1.32259 17.2164 0.790598 16.7451 0.790598 16.1658V7.93341H29.2521V8.99617C29.2521 9.08905 29.2938 9.17813 29.3679 9.2438C29.442 9.30947 29.5426 9.34637 29.6474 9.34637C29.7523 9.34637 29.8528 9.30947 29.927 9.2438C30.0011 9.17813 30.0427 9.08905 30.0427 8.99617V2.18847C30.0427 1.22299 29.1561 0.4375 28.0662 0.4375ZM1.9765 1.13789H28.0662C28.7201 1.13789 29.2521 1.60918 29.2521 2.18847V4.08246H0.790598V2.18847C0.790598 1.60918 1.32259 1.13789 1.9765 1.13789Z" fill="#C29F67"/>
<path d="M20.0256 18.0223C20.3094 18.0223 20.5395 17.8185 20.5395 17.5671C20.5395 17.3156 20.3094 17.1118 20.0256 17.1118C19.7418 17.1118 19.5117 17.3156 19.5117 17.5671C19.5117 17.8185 19.7418 18.0223 20.0256 18.0223Z" fill="#C29F67"/>
<path d="M21.1345 14.7655H19.9698C19.3159 14.7655 18.7839 14.2942 18.7839 13.7149V11.4358C18.7839 10.8565 19.3159 10.3853 19.9698 10.3853H24.3207C24.4256 10.3853 24.5261 10.4222 24.6003 10.4878C24.6744 10.5535 24.716 10.6426 24.716 10.7354C24.716 10.8283 24.6744 10.9174 24.6003 10.9831C24.5261 11.0487 24.4256 11.0856 24.3207 11.0856H19.9698C19.7519 11.0856 19.5745 11.2427 19.5745 11.4358V13.7149C19.5745 13.908 19.7519 14.0651 19.9698 14.0651H21.1345C21.2393 14.0651 21.3398 14.102 21.414 14.1677C21.4881 14.2333 21.5298 14.3224 21.5298 14.4153C21.5298 14.5082 21.4881 14.5972 21.414 14.6629C21.3398 14.7286 21.2393 14.7655 21.1345 14.7655Z" fill="#C29F67"/>
</svg>
