<svg width="43" height="43" viewBox="0 0 43 43" fill="none" xmlns="http://www.w3.org/2000/svg">
<circle cx="21.5" cy="21.5" r="21" stroke="#3D853D"/>
<path d="M17.0309 21.0183C14.2568 21.0183 12 23.2752 12 26.0492C12 28.8232 14.2568 31.08 17.0309 31.08C19.8049 31.08 22.0617 28.8232 22.0617 26.0492C22.0617 23.2752 19.8049 21.0183 17.0309 21.0183ZM19.2521 25.4382L16.6435 28.0468C16.5344 28.156 16.3913 28.2106 16.2483 28.2106C16.1052 28.2106 15.9622 28.156 15.853 28.0468L14.7351 26.9289C14.5168 26.7106 14.5168 26.3566 14.7351 26.1383C14.9533 25.9201 15.3073 25.9201 15.5256 26.1383L16.2483 26.8611L18.4616 24.6477C18.6799 24.4295 19.0338 24.4295 19.2522 24.6477C19.4704 24.866 19.4704 25.22 19.2521 25.4382Z" fill="#3D853D"/>
<path d="M26.72 16.8445C26.4113 16.8445 26.161 16.5943 26.161 16.2855V12H18.1489C17.2242 12 16.4719 12.7523 16.4719 13.677V19.926C16.6561 19.9093 16.8425 19.9003 17.0309 19.9003C18.9362 19.9003 20.6418 20.7714 21.7706 22.1362H27.8379C28.1466 22.1362 28.3969 22.3865 28.3969 22.6952C28.3969 23.0039 28.1466 23.2542 27.8379 23.2542H22.507C22.8642 23.9511 23.0838 24.7102 23.1541 25.4902H27.8379C28.1466 25.4902 28.3969 25.7404 28.3969 26.0491C28.3969 26.3578 28.1466 26.6081 27.8379 26.6081H23.1541C22.9869 28.4542 22.0005 30.0673 20.5621 31.08H29.3286C30.2532 31.08 31.0055 30.3277 31.0055 29.403V16.8445H26.72ZM27.8379 19.9003H19.6395C19.3308 19.9003 19.0805 19.65 19.0805 19.3413C19.0805 19.0326 19.3308 18.7823 19.6395 18.7823H27.8379C28.1466 18.7823 28.3969 19.0326 28.3969 19.3413C28.3969 19.65 28.1466 19.9003 27.8379 19.9003Z" fill="#3D853D"/>
<path d="M27.2788 12.3274V15.7267H30.6778L27.2788 12.3274Z" fill="#3D853D"/>
</svg>
