<svg width="22" height="20" viewBox="0 0 22 20" fill="none" xmlns="http://www.w3.org/2000/svg">
<path d="M18.9846 1.66439C18.7461 0.960811 18.0783 0.459961 17.2913 0.459961H4.17375C3.3867 0.459961 2.73082 0.960811 2.4804 1.66439L0 8.80746V18.3475C0 19.0033 0.536625 19.54 1.1925 19.54H2.385C3.04087 19.54 3.5775 19.0033 3.5775 18.3475V17.155H17.8875V18.3475C17.8875 19.0033 18.4241 19.54 19.08 19.54H20.2725C20.9284 19.54 21.465 19.0033 21.465 18.3475V8.80746L18.9846 1.66439ZM4.17375 13.5775C3.18397 13.5775 2.385 12.7785 2.385 11.7887C2.385 10.7989 3.18397 9.99996 4.17375 9.99996C5.16353 9.99996 5.9625 10.7989 5.9625 11.7887C5.9625 12.7785 5.16353 13.5775 4.17375 13.5775ZM17.2913 13.5775C16.3015 13.5775 15.5025 12.7785 15.5025 11.7887C15.5025 10.7989 16.3015 9.99996 17.2913 9.99996C18.281 9.99996 19.08 10.7989 19.08 11.7887C19.08 12.7785 18.281 13.5775 17.2913 13.5775ZM2.385 7.61496L4.17375 2.24871H17.2913L19.08 7.61496H2.385Z" fill="#C29F67"/>
</svg>
