<svg width="25" height="30" viewBox="0 0 25 30" fill="none" xmlns="http://www.w3.org/2000/svg">
<circle cx="12.5" cy="11.235" r="7.235" fill="#C29F67"/>
<path d="M24.8859 24.8601L21.056 18.2778C21.7188 18.0756 22.4248 17.8971 22.7181 17.3906C23.207 16.5466 22.3368 15.1621 22.5653 14.2575C22.8007 13.3265 24.1902 12.5208 24.1902 11.5745C24.1902 10.6524 22.7536 9.57529 22.5181 8.64971C22.288 7.74525 23.1556 6.35925 22.6651 5.5163C22.1747 4.67327 20.541 4.74254 19.8686 4.09544C19.1766 3.42952 19.1788 1.80024 18.3442 1.35397C17.5062 0.906048 16.1444 1.8113 15.214 1.59687C14.2941 1.38489 13.4724 0 12.5116 0C11.5366 0 9.98585 1.57094 9.74264 1.62747C8.81271 1.84364 7.44909 0.940601 6.61199 1.39042C5.77821 1.83819 5.78335 3.46763 5.09269 4.13466C4.42132 4.78294 2.7876 4.71668 2.29864 5.56066C1.80976 6.40448 2.67999 7.78866 2.45156 8.69376C2.2225 9.60115 0.784555 10.5206 0.784555 11.57C0.784555 12.5164 2.17759 13.3195 2.4144 14.2501C2.64457 15.1545 1.77695 16.5404 2.26741 17.3836C2.53442 17.8426 3.14025 18.0311 3.74528 18.2122C3.81589 18.2333 3.94944 18.3123 3.85898 18.4441L0.1135 24.9084C-0.151538 25.3657 0.0636864 25.7577 0.591628 25.7799L3.17583 25.8877C3.70377 25.9099 4.36605 26.2936 4.64785 26.7405L6.02681 28.9287C6.30861 29.3757 6.75574 29.3673 7.0207 28.91C7.0207 28.91 10.879 22.2488 10.8806 22.2469C10.958 22.1565 11.0358 22.175 11.073 22.2067C11.4952 22.5661 12.0837 22.9247 12.5749 22.9247C13.0566 22.9247 13.5026 22.5871 13.9438 22.2107C13.9797 22.1801 14.0671 22.1174 14.1309 22.2475C14.132 22.2496 17.986 28.8744 17.986 28.8744C18.2517 29.3311 18.6989 29.3388 18.9798 28.8913L20.3549 26.7005C20.6359 26.2532 21.2975 25.8681 21.8254 25.8451L24.4094 25.7325C24.9371 25.7093 25.1516 25.3168 24.8859 24.8601ZM16.7824 18.8682C13.9251 20.5305 10.4955 20.3523 7.87599 18.7001C4.0376 16.2414 2.77463 11.1554 5.08209 7.17279C7.41588 3.14424 12.5461 1.72275 16.6109 3.93659C16.6323 3.94821 16.6534 3.96023 16.6746 3.97209C16.7047 3.98878 16.7348 4.0057 16.7647 4.02278C18.0188 4.74578 19.1062 5.7951 19.8849 7.13349C22.2647 11.2242 20.873 16.4884 16.7824 18.8682Z" fill="#C29F67"/>
<path d="M14.6238 10.0016L12.9465 15.313L17 10.0016H14.6238ZM9.30669 8.12277L8.01902 9.66797H10.2081L9.30669 8.12277ZM15.6933 8.12277L14.7919 9.66797H16.981L15.6933 8.12277ZM10.3762 10.0016H8L12.0535 15.313L10.3762 10.0016ZM12.9026 8L14.4665 9.56389L15.3787 8H12.9026ZM9.62127 8L10.5335 9.56389L12.0974 8H9.62127ZM10.7259 10.0016L12.5 15.6191L14.2741 10.0016H10.7259ZM12.5 8.06906L10.9011 9.66797H14.0989L12.5 8.06906Z" fill="#FAFAFA"/>
</svg>
