<svg width="43" height="43" viewBox="0 0 43 43" fill="none" xmlns="http://www.w3.org/2000/svg">
<circle cx="21.5" cy="21.5" r="21" stroke="#B02D2D"/>
<path d="M26.5154 15.2578C26.5154 14.8102 26.3407 14.3888 26.0241 14.0722L24.4432 12.4913C24.131 12.1791 23.6878 12 23.2468 12H23.1507V15.3539H26.5155L26.5154 15.2578Z" fill="#B02D2D"/>
<path d="M22.2084 23.5351C22.3154 23.2103 22.5021 22.9079 22.7456 22.6628L26.5304 18.8932V16.4719H22.6026C22.2936 16.4719 22.0617 16.2219 22.0617 15.9129V12H13.677C12.7522 12 12 12.7522 12 13.677V29.403C12 30.3278 12.7522 31.08 13.677 31.08H24.8385C25.7632 31.08 26.5304 30.3278 26.5304 29.403V25.2311L25.9161 25.8305C25.6672 26.0772 25.3757 26.2568 25.047 26.3666L23.2696 26.96L22.9989 26.9747C22.5512 26.9747 22.1276 26.7569 21.8645 26.3922C21.6036 26.0292 21.5327 25.5587 21.6746 25.1334L22.2084 23.5351ZM14.7949 22.0617H20.3666C20.6756 22.0617 20.9256 22.3117 20.9256 22.6207C20.9256 22.9297 20.6756 23.1797 20.3666 23.1797H14.7949C14.486 23.1797 14.2359 22.9297 14.2359 22.6207C14.2359 22.3117 14.486 22.0617 14.7949 22.0617ZM14.2359 20.3848C14.2359 20.0758 14.486 19.8258 14.7949 19.8258H20.3666C20.6756 19.8258 20.9256 20.0758 20.9256 20.3848C20.9256 20.6937 20.6756 20.9437 20.3666 20.9437H14.7949C14.486 20.9437 14.2359 20.6937 14.2359 20.3848ZM14.2359 24.8566C14.2359 24.5477 14.486 24.2977 14.7949 24.2977H20.3666C20.6756 24.2977 20.9256 24.5477 20.9256 24.8566C20.9256 25.1656 20.6756 25.4156 20.3666 25.4156H14.7949C14.486 25.4156 14.2359 25.1656 14.2359 24.8566ZM22.6026 27.6516C22.9115 27.6516 23.1615 27.9016 23.1615 28.2105C23.1615 28.5195 22.9116 28.7695 22.6026 28.7695H19.2486C18.9397 28.7695 18.6897 28.5195 18.6897 28.2105C18.6897 27.9016 18.9397 27.6516 19.2486 27.6516H22.6026ZM14.7949 18.7078C14.486 18.7078 14.2359 18.4578 14.2359 18.1488C14.2359 17.8399 14.486 17.5898 14.7949 17.5898H22.6026C22.9115 17.5898 23.1615 17.8399 23.1615 18.1488C23.1615 18.4578 22.9115 18.7078 22.6026 18.7078H14.7949Z" fill="#B02D2D"/>
<path d="M23.2211 24.0296L22.7348 25.4886C22.6619 25.7072 22.8699 25.9151 23.0884 25.8421L24.5466 25.3551L23.2211 24.0296ZM27.5625 19.4273L23.881 23.1087L25.4687 24.6964C26.3008 23.8642 27.9198 22.245 29.15 21.0148L27.5625 19.4273ZM30.7515 17.824C30.555 17.6264 30.2657 17.5134 29.9589 17.5134C29.6521 17.5134 29.3628 17.6264 29.1652 17.8246L28.3529 18.6369L29.9403 20.2243L30.7527 19.4119C31.1893 18.9746 31.1893 18.2623 30.7515 17.824Z" fill="#B02D2D"/>
<path d="M30.7526 19.412L30.7527 19.4119L30.7559 19.4087C30.7548 19.4098 30.7537 19.4109 30.7526 19.412ZM30.7609 19.4038C30.7645 19.4001 30.7645 19.4001 30.7609 19.4038Z" fill="#B02D2D"/>
</svg>
