<svg width="47" height="28" viewBox="0 0 47 28" fill="none" xmlns="http://www.w3.org/2000/svg">
<path fill-rule="evenodd" clip-rule="evenodd" d="M44.1307 10.103C44.1307 10.9119 44.7889 11.5621 45.5899 11.5621H46.367V10.0872H44.1466C44.1466 10.0872 44.1307 10.0872 44.1307 10.103ZM26.2327 2.19678V5.54325H32.6719L31.0938 2.19678H26.2327Z" fill="#C29F67"/>
<path fill-rule="evenodd" clip-rule="evenodd" d="M23.7426 5.28142C23.7426 5.46225 23.7069 5.6413 23.6374 5.80826C23.568 5.97523 23.4662 6.12682 23.338 6.25431C23.2098 6.38181 23.0576 6.4827 22.8902 6.55117C22.7229 6.61965 22.5436 6.65436 22.3628 6.65332H0.285591C0.247425 6.6533 0.209643 6.66094 0.174479 6.67578C0.139316 6.69062 0.107485 6.71236 0.0808695 6.73972C0.0542538 6.76707 0.0333932 6.79949 0.0195219 6.83504C0.00565054 6.8706 -0.000950016 6.90858 0.000110171 6.94673V8.97682H2.14122C2.68839 8.97682 3.12454 9.41297 3.12454 9.94428V11.7048C3.12454 11.9634 3.02178 12.2115 2.83886 12.3945C2.65593 12.5774 2.40784 12.6801 2.14915 12.6801H0.000110171V17.2796C0.000110171 17.462 0.158711 17.6206 0.341101 17.6206H1.34822C1.94435 16.1478 2.96665 14.8867 4.28411 13.9987C5.60157 13.1107 7.15418 12.6362 8.74297 12.6362C10.3318 12.6362 11.8844 13.1107 13.2018 13.9987C14.5193 14.8867 15.5416 16.1478 16.1377 17.6206H30.2532C30.8506 16.1503 31.8729 14.8916 33.1895 14.0055C34.506 13.1194 36.057 12.646 37.644 12.646C39.231 12.646 40.7819 13.1194 42.0984 14.0055C43.415 14.8916 44.4373 16.1503 45.0348 17.6206H46.026C46.2163 17.6206 46.3749 17.462 46.3749 17.2716V12.6722H45.5978C44.917 12.6701 44.2647 12.3988 43.7833 11.9174C43.3019 11.436 43.0305 10.7837 43.0285 10.1029C43.0285 9.48434 43.536 8.97682 44.1545 8.97682H46.3749V8.00935C46.3732 7.93896 46.3455 7.87169 46.2972 7.82045C46.2489 7.76922 46.1834 7.73765 46.1132 7.7318L37.3743 6.70883C37.1342 6.68172 36.9039 6.59781 36.7025 6.46406C36.5012 6.3303 36.3346 6.15053 36.2166 5.93962L33.0683 0.206204C33.0328 0.143005 32.9809 0.0905215 32.9181 0.0542485C32.8554 0.0179755 32.784 -0.000753233 32.7115 2.31956e-05H24.1471C24.0412 0.0020997 23.9403 0.0456244 23.8662 0.121246C23.792 0.196868 23.7505 0.298553 23.7505 0.404455L23.7426 5.28142ZM33.5521 6.65332H25.6775C25.5303 6.65332 25.3891 6.59483 25.285 6.49073C25.1809 6.38663 25.1224 6.24544 25.1224 6.09822V1.64154C25.1224 1.49432 25.1809 1.35312 25.285 1.24902C25.3891 1.14492 25.5303 1.08644 25.6775 1.08644H31.4506C31.5553 1.0868 31.6578 1.11678 31.7462 1.17291C31.8346 1.22904 31.9053 1.30903 31.9502 1.40364L34.0596 5.86032C34.0997 5.94478 34.1177 6.03799 34.1122 6.1313C34.1066 6.22462 34.0775 6.31502 34.0277 6.39411C33.9779 6.4732 33.9089 6.53843 33.8271 6.58375C33.7454 6.62906 33.6456 6.65299 33.5521 6.65332ZM19.4604 10.8245C19.4604 10.9717 19.4019 11.1129 19.2978 11.217C19.1937 11.3211 19.0525 11.3796 18.9053 11.3796C18.7581 11.3796 18.6169 11.3211 18.5128 11.217C18.4087 11.1129 18.3502 10.9717 18.3502 10.8245V8.76271C18.3502 8.61549 18.4087 8.47429 18.5128 8.37019C18.6169 8.26609 18.7581 8.20761 18.9053 8.20761C19.0525 8.20761 19.1937 8.26609 19.2978 8.37019C19.4019 8.47429 19.4604 8.61549 19.4604 8.76271V10.8245ZM17.0259 10.8245C17.0259 10.9717 16.9674 11.1129 16.8633 11.217C16.7592 11.3211 16.618 11.3796 16.4708 11.3796C16.3236 11.3796 16.1824 11.3211 16.0783 11.217C15.9742 11.1129 15.9157 10.9717 15.9157 10.8245V8.76271C15.9157 8.61549 15.9742 8.47429 16.0783 8.37019C16.1824 8.26609 16.3236 8.20761 16.4708 8.20761C16.618 8.20761 16.7592 8.26609 16.8633 8.37019C16.9674 8.47429 17.0259 8.61549 17.0259 8.76271V10.8245ZM14.5914 10.8245C14.5914 10.9717 14.5329 11.1129 14.4288 11.217C14.3247 11.3211 14.1835 11.3796 14.0363 11.3796C13.889 11.3796 13.7479 11.3211 13.6437 11.217C13.5396 11.1129 13.4812 10.9717 13.4812 10.8245V8.76271C13.4812 8.61549 13.5396 8.47429 13.6437 8.37019C13.7479 8.26609 13.889 8.20761 14.0363 8.20761C14.1835 8.20761 14.3247 8.26609 14.4288 8.37019C14.5329 8.47429 14.5914 8.61549 14.5914 8.76271V10.8245ZM27.5252 9.45262C27.5252 9.59984 27.4668 9.74104 27.3627 9.84514C27.2586 9.94924 27.1174 10.0077 26.9701 10.0077H25.6775C25.5303 10.0077 25.3891 9.94924 25.285 9.84514C25.1809 9.74104 25.1224 9.59984 25.1224 9.45262C25.1224 9.3054 25.1809 9.16421 25.285 9.0601C25.3891 8.956 25.5303 8.89752 25.6775 8.89752H26.9701C27.1174 8.89752 27.2586 8.956 27.3627 9.0601C27.4668 9.16421 27.5252 9.3054 27.5252 9.45262Z" fill="#C29F67"/>
<path fill-rule="evenodd" clip-rule="evenodd" d="M37.6281 17.3828C37.2084 17.3833 36.793 17.4665 36.4054 17.6276C36.0179 17.7887 35.6659 18.0245 35.3695 18.3216C35.0731 18.6188 34.8382 18.9714 34.678 19.3593C34.5179 19.7472 34.4358 20.1629 34.4363 20.5826C34.4368 21.0023 34.52 21.4177 34.6811 21.8053C34.8422 22.1928 35.078 22.5448 35.3751 22.8412C35.6722 23.1376 36.0248 23.3725 36.4128 23.5327C36.8007 23.6928 37.2164 23.7749 37.636 23.7744C38.4836 23.7744 39.2965 23.4377 39.8958 22.8384C40.4952 22.2391 40.8319 21.4262 40.8319 20.5786C40.8319 19.731 40.4952 18.9182 39.8958 18.3188C39.2965 17.7195 38.4757 17.3828 37.6281 17.3828Z" fill="#C29F67"/>
<path fill-rule="evenodd" clip-rule="evenodd" d="M38.1753 14.8846L38.1911 14.9956C38.1911 15.1428 38.1327 15.284 38.0286 15.3881C37.9245 15.4922 37.7833 15.5507 37.636 15.5507C37.5627 15.5526 37.4897 15.5391 37.4219 15.5111C37.3542 15.4831 37.2924 15.4428 37.2395 15.3921C37.1524 15.3086 37.0949 15.1989 37.0757 15.0797C37.0565 14.9605 37.0766 14.8384 37.1331 14.7317C37.1896 14.625 37.2793 14.5396 37.3887 14.4885C37.498 14.4374 37.6211 14.4233 37.7391 14.4484L37.8422 14.4802C37.9115 14.5087 37.9738 14.552 38.0246 14.607C38.0755 14.6566 38.116 14.716 38.1436 14.7815C38.157 14.8149 38.1676 14.8494 38.1753 14.8846ZM37.6281 13.7268C35.868 13.8115 34.208 14.5703 32.9923 15.846C31.7765 17.1216 31.0984 18.8162 31.0984 20.5783C31.0984 22.3405 31.7765 24.0351 32.9923 25.3107C34.208 26.5863 35.868 27.3452 37.6281 27.4299C39.3882 27.3452 41.0482 26.5863 42.264 25.3107C43.4797 24.0351 44.1578 22.3405 44.1578 20.5783C44.1578 18.8162 43.4797 17.1216 42.264 15.846C41.0482 14.5703 39.3882 13.8115 37.6281 13.7268ZM41.1173 16.9385C41.0384 16.8148 41.0107 16.6653 41.0404 16.5216C41.07 16.378 41.1545 16.2515 41.2759 16.1692C41.3333 16.1301 41.3981 16.1031 41.4662 16.0899C41.5381 16.0747 41.6122 16.0739 41.6843 16.0875C41.7565 16.1011 41.8252 16.1289 41.8865 16.1692C41.9634 16.2198 42.0266 16.2886 42.0702 16.3696C42.1139 16.4506 42.1368 16.5411 42.1368 16.6332C42.1368 16.7252 42.1139 16.8157 42.0702 16.8967C42.0266 16.9777 41.9634 17.0465 41.8865 17.0971C41.8566 17.1162 41.8247 17.1322 41.7914 17.1446C41.7237 17.173 41.6507 17.1865 41.5773 17.1843C41.4857 17.1863 41.3951 17.1656 41.3134 17.1241C41.2318 17.0826 41.1617 17.0216 41.1094 16.9464L41.1173 16.9385ZM42.6637 20.4673C42.679 20.3973 42.7058 20.3303 42.743 20.2691C42.784 20.2055 42.838 20.1514 42.9016 20.1105C42.9614 20.0705 43.0289 20.0435 43.0998 20.0312C43.1808 20.0147 43.2644 20.0164 43.3445 20.0363C43.4247 20.0562 43.4994 20.0937 43.5632 20.1461C43.627 20.1985 43.6784 20.2645 43.7134 20.3393C43.7485 20.4141 43.7664 20.4958 43.766 20.5783C43.7633 20.6542 43.7451 20.7288 43.7124 20.7973C43.6798 20.8659 43.6334 20.9271 43.5762 20.977C43.519 21.0269 43.4522 21.0646 43.3798 21.0877C43.3074 21.1107 43.2311 21.1187 43.1556 21.1111C43.08 21.1035 43.0068 21.0804 42.9405 21.0434C42.8742 21.0064 42.8162 20.9561 42.7701 20.8958C42.724 20.8355 42.6908 20.7663 42.6725 20.6926C42.6542 20.6189 42.6512 20.5422 42.6637 20.4673ZM37.6281 16.2644C38.1946 16.2644 38.7556 16.376 39.279 16.5928C39.8024 16.8096 40.2779 17.1273 40.6785 17.5279C41.0791 17.9285 41.3969 18.4041 41.6137 18.9275C41.8305 19.4509 41.942 20.0118 41.942 20.5783C41.942 21.1449 41.8305 21.7058 41.6137 22.2292C41.3969 22.7526 41.0791 23.2282 40.6785 23.6288C40.2779 24.0293 39.8024 24.3471 39.279 24.5639C38.7556 24.7807 38.1946 24.8923 37.6281 24.8923C36.517 24.8446 35.4673 24.3697 34.6979 23.5666C33.9286 22.7636 33.4991 21.6944 33.4991 20.5823C33.4991 19.4702 33.9286 18.401 34.6979 17.598C35.4673 16.7949 36.517 16.32 37.6281 16.2723V16.2644ZM41.1808 24.1231C41.2726 24.0319 41.3933 23.9757 41.5222 23.9641C41.6511 23.9525 41.7799 23.9863 41.8865 24.0596C41.9488 24.0993 42.0021 24.1515 42.0431 24.213C42.0841 24.2744 42.1118 24.3437 42.1244 24.4165C42.1378 24.4872 42.1378 24.5598 42.1244 24.6306C42.1094 24.7007 42.0826 24.7677 42.0451 24.8288C42.0044 24.8925 41.9502 24.9467 41.8865 24.9874C41.7925 25.0488 41.6816 25.0793 41.5693 25.0747C41.4591 25.0747 41.3513 25.0419 41.2597 24.9804C41.1682 24.9189 41.097 24.8315 41.0553 24.7294C41.0137 24.6273 41.0033 24.5151 41.0257 24.4071C41.048 24.2991 41.102 24.2002 41.1808 24.1231ZM37.2395 25.7646C37.2911 25.713 37.3523 25.6721 37.4196 25.6442C37.487 25.6163 37.5592 25.602 37.6321 25.602C37.705 25.602 37.7772 25.6163 37.8445 25.6442C37.9119 25.6721 37.9731 25.713 38.0246 25.7646C38.1011 25.8427 38.1529 25.9416 38.1734 26.0489C38.1939 26.1563 38.1822 26.2673 38.1399 26.3681C38.0975 26.4689 38.0264 26.5549 37.9353 26.6154C37.8443 26.6759 37.7374 26.7082 37.6281 26.7082C37.5188 26.7082 37.4119 26.6759 37.3209 26.6154C37.2299 26.5549 37.1587 26.4689 37.1164 26.3681C37.074 26.2673 37.0624 26.1563 37.0829 26.0489C37.1034 25.9416 37.1551 25.8427 37.2316 25.7646H37.2395ZM34.0834 24.1231C34.1849 24.2302 34.2416 24.372 34.242 24.5196C34.2442 24.5929 34.2307 24.6659 34.2023 24.7337C34.1764 24.8024 34.1358 24.8646 34.0834 24.9161C34.0315 24.9679 33.9694 25.0084 33.901 25.035C33.8329 25.0622 33.7602 25.0757 33.6869 25.0747C33.5397 25.0747 33.3985 25.0162 33.2944 24.9121C33.1903 24.808 33.1318 24.6668 33.1318 24.5196C33.1296 24.4462 33.1431 24.3732 33.1714 24.3055C33.2206 24.1855 33.3101 24.0866 33.4245 24.0258C33.5389 23.9649 33.671 23.9461 33.7979 23.9724C33.868 23.9876 33.935 24.0144 33.9962 24.0517C34.0253 24.0753 34.0519 24.1018 34.0755 24.131L34.0834 24.1231ZM32.6084 20.5783C32.6089 20.6609 32.5909 20.7426 32.5559 20.8174C32.5208 20.8921 32.4695 20.9581 32.4057 21.0106C32.3418 21.063 32.2671 21.1005 32.187 21.1204C32.1068 21.1403 32.0232 21.142 31.9423 21.1255C31.8723 21.1102 31.8053 21.0834 31.744 21.0462C31.6757 21.0003 31.6185 20.9397 31.5765 20.8689C31.5345 20.7981 31.5087 20.7188 31.5011 20.6368C31.4935 20.5548 31.5043 20.4722 31.5326 20.3949C31.5609 20.3175 31.606 20.2475 31.6647 20.1898C31.7136 20.136 31.773 20.0928 31.8392 20.0629C31.9402 20.0212 32.0513 20.0102 32.1585 20.0314C32.2657 20.0526 32.3643 20.1049 32.4419 20.1818C32.5238 20.2577 32.5794 20.3577 32.6005 20.4673L32.6084 20.5783ZM34.0834 17.0257C34.0051 17.1042 33.9051 17.1575 33.7963 17.1787C33.6875 17.1999 33.5748 17.1881 33.4728 17.1446C33.3715 17.1029 33.2857 17.0309 33.2269 16.9385C33.187 16.8786 33.16 16.8111 33.1476 16.7402C33.1309 16.6503 33.1366 16.5577 33.1643 16.4705C33.1919 16.3834 33.2407 16.3044 33.3062 16.2406C33.3639 16.1847 33.4329 16.142 33.5086 16.1154C33.5843 16.0888 33.6649 16.0789 33.7448 16.0865C33.8247 16.094 33.902 16.1188 33.9714 16.1591C34.0408 16.1994 34.1007 16.2543 34.1468 16.3199C34.1883 16.3819 34.2154 16.4523 34.2261 16.5261C34.2414 16.5967 34.2414 16.6697 34.2261 16.7402C34.2143 16.8112 34.1872 16.8789 34.1468 16.9385C34.128 16.9667 34.1068 16.9932 34.0834 17.0178V17.0257ZM2.01435 10.0869H0.00012207V11.5619H2.01435V10.0869ZM8.73108 17.3825C8.31141 17.3831 7.89594 17.4662 7.50841 17.6273C7.12087 17.7884 6.76886 18.0242 6.47247 18.3214C6.17608 18.6185 5.94112 18.9711 5.781 19.359C5.62087 19.747 5.53873 20.1626 5.53925 20.5823C5.53977 21.002 5.62295 21.4175 5.78403 21.805C5.94512 22.1925 6.18095 22.5445 6.47808 22.8409C6.77521 23.1373 7.1278 23.3723 7.51573 23.5324C7.90366 23.6925 8.31934 23.7747 8.73901 23.7741C9.58659 23.7741 10.3995 23.4374 10.9988 22.8381C11.5981 22.2388 11.9348 21.4259 11.9348 20.5783C11.9348 19.7308 11.5981 18.9179 10.9988 18.3186C10.3995 17.7192 9.58659 17.3825 8.73901 17.3825H8.73108Z" fill="#C29F67"/>
<path fill-rule="evenodd" clip-rule="evenodd" d="M9.29407 14.9959C9.29438 15.1087 9.26127 15.219 9.19891 15.3131C9.1561 15.3729 9.10227 15.424 9.04031 15.4637C8.93232 15.5346 8.80326 15.5662 8.67477 15.5532C8.54627 15.5402 8.42614 15.4834 8.33453 15.3924C8.24336 15.3005 8.18713 15.1798 8.17554 15.0509C8.16396 14.922 8.19776 14.7932 8.27109 14.6866C8.3319 14.5929 8.4207 14.5207 8.52485 14.4804C8.60923 14.4445 8.7012 14.43 8.79253 14.4383C8.88386 14.4466 8.97172 14.4774 9.04824 14.528C9.10796 14.5709 9.15907 14.6247 9.19891 14.6866C9.23932 14.7462 9.26637 14.8138 9.27821 14.8848L9.29407 14.9959ZM8.73896 13.7271C6.97884 13.8118 5.31883 14.5706 4.10311 15.8462C2.88739 17.1219 2.20923 18.8164 2.20923 20.5786C2.20923 22.3408 2.88739 24.0353 4.10311 25.311C5.31883 26.5866 6.97884 27.3454 8.73896 27.4301C10.4991 27.3454 12.1591 26.5866 13.3748 25.311C14.5905 24.0353 15.2687 22.3408 15.2687 20.5786C15.2687 18.8164 14.5905 17.1219 13.3748 15.8462C12.1591 14.5706 10.4991 13.8118 8.73896 13.7271ZM12.3709 17.0973C12.342 17.0735 12.3155 17.0469 12.2916 17.018C12.2141 16.942 12.1592 16.8459 12.133 16.7405C12.1087 16.6148 12.1286 16.4845 12.1893 16.3718C12.25 16.2591 12.3477 16.1708 12.4661 16.1219C12.5505 16.086 12.6424 16.0715 12.7338 16.0798C12.8251 16.0882 12.9129 16.119 12.9895 16.1695C13.0504 16.2096 13.1029 16.2613 13.1438 16.3216C13.1848 16.382 13.2134 16.4498 13.2282 16.5212C13.2429 16.5927 13.2434 16.6663 13.2297 16.7379C13.2159 16.8096 13.1882 16.8778 13.1481 16.9387C13.076 17.0447 12.9699 17.1228 12.8473 17.1603C12.7247 17.1978 12.5931 17.1924 12.474 17.1449C12.4381 17.1327 12.4035 17.1168 12.3709 17.0973ZM8.73103 16.2726C9.31258 16.2476 9.89316 16.3406 10.4378 16.546C10.9825 16.7513 11.4799 17.0648 11.9003 17.4675C12.3206 17.8701 12.6551 18.3537 12.8836 18.8891C13.1121 19.4244 13.2299 20.0005 13.2299 20.5826C13.2299 21.1646 13.1121 21.7407 12.8836 22.2761C12.6551 22.8114 12.3206 23.295 11.9003 23.6977C11.4799 24.1003 10.9825 24.4138 10.4378 24.6191C9.89316 24.8245 9.31258 24.9175 8.73103 24.8925C7.61994 24.8449 6.57019 24.3699 5.80084 23.5669C5.0315 22.7638 4.60201 21.6947 4.60201 20.5826C4.60201 19.4705 5.0315 18.4013 5.80084 17.5982C6.57019 16.7952 7.61994 16.3203 8.73103 16.2726ZM13.7666 20.4676C13.7845 20.378 13.8243 20.2941 13.8824 20.2236C13.9405 20.153 14.0151 20.0979 14.0997 20.0631C14.2007 20.0215 14.3117 20.0105 14.419 20.0317C14.5262 20.0528 14.6248 20.1051 14.7023 20.1821C14.8074 20.2875 14.8672 20.4298 14.8689 20.5786C14.8689 20.7258 14.8104 20.867 14.7063 20.9711C14.6022 21.0752 14.461 21.1337 14.3138 21.1337C14.2406 21.134 14.1679 21.1205 14.0997 21.094C14.032 21.0625 13.9703 21.0196 13.9173 20.9672C13.8531 20.9026 13.8058 20.8233 13.7796 20.7362C13.7533 20.6491 13.7488 20.5568 13.7666 20.4676ZM12.2837 24.1233C12.3356 24.0715 12.3977 24.031 12.4661 24.0044C12.5671 23.9627 12.6782 23.9517 12.7854 23.9729C12.8926 23.994 12.9912 24.0464 13.0688 24.1233C13.1503 24.1995 13.2058 24.2994 13.2274 24.4088C13.2435 24.4819 13.2435 24.5577 13.2274 24.6308C13.2089 24.7193 13.1688 24.8018 13.1107 24.871C13.0526 24.9402 12.9782 24.9939 12.8943 25.0273C12.8267 25.0571 12.754 25.0733 12.6802 25.0749C12.533 25.0749 12.3918 25.0164 12.2877 24.9123C12.1836 24.8082 12.1251 24.667 12.1251 24.5198C12.1231 24.4465 12.1367 24.3735 12.1647 24.3057C12.1918 24.2376 12.2322 24.1755 12.2837 24.1233ZM8.62794 25.6062C8.70953 25.5896 8.79382 25.5915 8.87458 25.6118C8.95533 25.6321 9.03047 25.6704 9.09445 25.7237C9.15842 25.777 9.20958 25.844 9.24413 25.9198C9.27869 25.9955 9.29575 26.0781 9.29407 26.1613C9.29195 26.2659 9.26036 26.3677 9.20292 26.455C9.14549 26.5424 9.06455 26.6118 8.96943 26.6552C8.8743 26.6985 8.76886 26.7142 8.66524 26.7003C8.56162 26.6864 8.46403 26.6435 8.38371 26.5765C8.30339 26.5096 8.24361 26.4214 8.21124 26.3219C8.17888 26.2225 8.17525 26.116 8.20077 26.0146C8.22629 25.9132 8.27992 25.8211 8.3555 25.7489C8.43107 25.6766 8.52551 25.6272 8.62794 25.6062ZM5.18631 24.1233C5.23831 24.1751 5.27884 24.2372 5.30526 24.3057C5.33057 24.3743 5.34398 24.4467 5.34491 24.5198C5.34517 24.593 5.33172 24.6657 5.30526 24.7339C5.27768 24.8018 5.23729 24.8637 5.18631 24.9163C5.10823 24.9928 5.00931 25.0446 4.90195 25.0651C4.79458 25.0856 4.68355 25.0739 4.58278 25.0316C4.48201 24.9892 4.39598 24.9181 4.33548 24.827C4.27499 24.736 4.24272 24.6291 4.24272 24.5198C4.24272 24.4105 4.27499 24.3036 4.33548 24.2126C4.39598 24.1216 4.48201 24.0504 4.58278 24.0081C4.68355 23.9657 4.79458 23.9541 4.90195 23.9746C5.00931 23.9951 5.10823 24.0468 5.18631 24.1233ZM3.71132 20.5865C3.71132 20.7338 3.65284 20.8749 3.54874 20.979C3.44464 21.0831 3.30344 21.1416 3.15622 21.1416C3.009 21.1416 2.86781 21.0831 2.76371 20.979C2.6596 20.8749 2.60112 20.7338 2.60112 20.5865C2.60112 20.4393 2.6596 20.2981 2.76371 20.194C2.86781 20.0899 3.009 20.0314 3.15622 20.0314C3.30344 20.0314 3.44464 20.0899 3.54874 20.194C3.65284 20.2981 3.71132 20.4393 3.71132 20.5865ZM5.18631 17.0339C5.13463 17.0866 5.07294 17.1285 5.00485 17.1571C4.93677 17.1857 4.86366 17.2005 4.78981 17.2005C4.71596 17.2005 4.64285 17.1857 4.57477 17.1571C4.50668 17.1285 4.44499 17.0866 4.39331 17.0339C4.34149 16.9819 4.30099 16.9198 4.27436 16.8515C4.24808 16.7832 4.23463 16.7106 4.23471 16.6374C4.23603 16.5467 4.25955 16.4577 4.30322 16.3782C4.34688 16.2987 4.40937 16.2311 4.4852 16.1813C4.56103 16.1316 4.64791 16.1012 4.73822 16.0927C4.82853 16.0843 4.91953 16.0982 5.00325 16.133C5.08698 16.1679 5.16088 16.2228 5.21849 16.2929C5.2761 16.3629 5.31567 16.446 5.33373 16.5349C5.3518 16.6238 5.3478 16.7157 5.3221 16.8027C5.2964 16.8897 5.24978 16.9691 5.18631 17.0339Z" fill="#C29F67"/>
</svg>
