<svg width="19" height="20" viewBox="0 0 19 20" fill="none" xmlns="http://www.w3.org/2000/svg">
<path d="M12.6316 9.47368V3.15789L9.47368 0L6.31579 3.15789V5.26316H0V20H18.9474V9.47368H12.6316ZM4.21053 17.8947H2.10526V15.7895H4.21053V17.8947ZM4.21053 13.6842H2.10526V11.5789H4.21053V13.6842ZM4.21053 9.47368H2.10526V7.36842H4.21053V9.47368ZM10.5263 17.8947H8.42105V15.7895H10.5263V17.8947ZM10.5263 13.6842H8.42105V11.5789H10.5263V13.6842ZM10.5263 9.47368H8.42105V7.36842H10.5263V9.47368ZM10.5263 5.26316H8.42105V3.15789H10.5263V5.26316ZM16.8421 17.8947H14.7368V15.7895H16.8421V17.8947ZM16.8421 13.6842H14.7368V11.5789H16.8421V13.6842Z" fill="#C29F67"/>
</svg>
