<svg width="24" height="24" viewBox="0 0 24 24" fill="none" xmlns="http://www.w3.org/2000/svg">
<path fill-rule="evenodd" clip-rule="evenodd" d="M6.94355 23.3333H17.0546C21.01 23.3333 23.6663 20.5589 23.6663 16.4305V6.90284C23.6663 2.77447 21.01 0 17.0558 0H6.94355C2.98939 0 0.333008 2.77447 0.333008 6.90284V16.4305C0.333008 20.5589 2.98939 23.3333 6.94355 23.3333ZM7.91436 10.5001C6.30594 10.5001 4.99902 9.19138 4.99902 7.58339C4.99902 5.97541 6.30594 4.66673 7.91436 4.66673C9.52161 4.66673 10.8297 5.97541 10.8297 7.58339C10.8297 9.19138 9.52161 10.5001 7.91436 10.5001ZM21.1234 15.0897C21.5141 16.0914 21.3111 17.2954 20.8935 18.2875C20.3984 19.4674 19.4505 20.3607 18.2562 20.7508C17.7259 20.9242 17.1698 21.0001 16.6149 21.0001H6.78256C5.80414 21.0001 4.93833 20.7653 4.22856 20.3282C3.78393 20.0537 3.70533 19.4204 4.03499 19.0099C4.58638 18.3236 5.13073 17.6349 5.67978 16.9402C6.72625 15.611 7.43133 15.2257 8.21501 15.5641C8.53294 15.7037 8.85204 15.9132 9.18053 16.1347C10.0557 16.7295 11.2723 17.547 12.8748 16.6597C13.9715 16.0455 14.6076 14.9919 15.1615 14.0744L15.1707 14.0591C15.21 13.9947 15.2489 13.9303 15.2877 13.8661L15.2877 13.8661C15.4739 13.5581 15.6575 13.2542 15.8653 12.9743C16.1257 12.6239 17.0912 11.5283 18.3418 12.3085C19.1384 12.7997 19.8083 13.4643 20.5251 14.1758C20.7985 14.448 20.9932 14.7574 21.1234 15.0897Z" fill="#9E9E9E"/>
</svg>
