<svg width="27" height="25" viewBox="0 0 27 25" fill="none" xmlns="http://www.w3.org/2000/svg">
<path d="M8.61856 17.3469H26.5938V17.7324H8.61856V17.3469ZM23.8388 9.2004L23.8494 9.22845L23.8676 9.27663H25.6744C25.7885 9.27656 25.8978 9.23122 25.9784 9.15057C26.0591 9.06992 26.1044 8.96057 26.1044 8.84653V8.41634C26.1044 8.17879 25.9117 7.98615 25.6744 7.98615H24.3839C24.2698 7.98617 24.1604 8.0315 24.0797 8.11218C23.999 8.19285 23.9537 8.30225 23.9537 8.41634V8.63144H23.6239C23.702 8.83883 23.7649 9.00516 23.8019 9.10307L23.8388 9.2004ZM17.4653 6.33061H16.4618C16.3952 6.33061 16.3314 6.35705 16.2844 6.4041C16.2373 6.45115 16.2109 6.51497 16.2109 6.58151C16.2109 6.64805 16.2373 6.71187 16.2844 6.75892C16.3314 6.80598 16.3952 6.83241 16.4618 6.83241H17.4653C17.4987 6.83306 17.5318 6.82706 17.5628 6.81474C17.5938 6.80243 17.6221 6.78405 17.6459 6.76069C17.6697 6.73733 17.6887 6.70945 17.7016 6.67868C17.7145 6.64791 17.7212 6.61488 17.7212 6.58151C17.7212 6.54814 17.7145 6.51511 17.7016 6.48434C17.6887 6.45358 17.6697 6.4257 17.6459 6.40234C17.6221 6.37897 17.5938 6.3606 17.5628 6.34828C17.5318 6.33597 17.4987 6.32996 17.4653 6.33061ZM10.7734 14.7013C10.7318 15.4137 10.1404 15.9719 9.42701 15.9719C9.35795 15.972 9.289 15.9667 9.22077 15.956V16.7543C9.22074 16.8108 9.23183 16.8668 9.25343 16.919C9.27503 16.9712 9.30671 17.0187 9.34665 17.0586C9.38659 17.0986 9.43402 17.1303 9.48622 17.1519C9.53842 17.1735 9.59437 17.1846 9.65087 17.1846H11.3716C11.4856 17.1846 11.595 17.1392 11.6757 17.0585C11.7563 16.9778 11.8016 16.8684 11.8016 16.7543V15.8939H22.3876V16.7828C22.3875 16.8355 22.3979 16.8878 22.4181 16.9366C22.4383 16.9853 22.4679 17.0296 22.5052 17.0669C22.5425 17.1043 22.5868 17.1339 22.6355 17.1541C22.6843 17.1743 22.7366 17.1846 22.7893 17.1846H24.3967C24.6183 17.1846 24.7985 17.0047 24.7985 16.7828V15.1773H24.85C25.5666 15.1773 25.5666 14.062 25.5666 14.062H10.8041C10.7959 14.2752 10.7856 14.4883 10.7734 14.7013Z" fill="#C29F67"/>
<path d="M14.4898 13.7932V11.6425H15.1352V13.7932H15.5653V11.6425H16.2106V13.7932H16.6408V11.6425H17.286V13.7932H17.716V11.6425H18.3614V13.7932H18.7914V11.6425H19.4366V13.7932H25.3275V11.2123C25.3275 10.2748 24.2492 9.63177 23.7843 9.39798L23.7256 9.24311C23.7246 9.24013 22.6095 6.29199 22.4533 5.82431C22.3582 5.52546 22.1087 5.35981 21.8178 5.28859C21.5239 5.21226 21.1623 5.19405 20.7204 5.15695C19.7581 5.07657 18.0063 4.99707 16.9632 4.99707C15.9196 4.99707 14.1682 5.07657 13.2059 5.15695C12.7642 5.19405 12.4026 5.21226 12.1083 5.28859C11.8177 5.35971 11.5677 5.52546 11.4728 5.82431C11.3566 6.17307 10.7068 7.90097 10.3833 8.75838C10.5394 9.32416 10.6538 9.96396 10.7279 10.6802C10.8631 10.6213 11.009 10.591 11.1564 10.591C11.75 10.591 12.2315 11.0723 12.2315 11.6663C12.2315 12.2603 11.75 12.7418 11.1564 12.7418C11.0424 12.7418 10.9328 12.7239 10.8297 12.691C10.83 12.7346 10.8311 12.7766 10.8311 12.8205C10.8306 13.1448 10.825 13.4691 10.8141 13.7932H14.4898ZM22.7708 12.7419C22.1766 12.7419 21.6951 12.2603 21.6951 11.6664C21.6951 11.0724 22.1766 10.5911 22.7708 10.5911C23.3644 10.5911 23.846 11.0724 23.846 11.6664C23.846 12.2603 23.3644 12.7419 22.7708 12.7419ZM11.7793 6.55691C11.8434 6.37785 11.9464 6.30182 12.1906 6.23166C12.4317 6.16767 12.7868 6.14618 13.2328 6.10908C14.1819 6.02996 15.935 5.95045 16.9633 5.95045C17.9913 5.95045 19.7447 6.02986 20.6935 6.10908C21.1396 6.14628 21.4951 6.16767 21.7357 6.23166C21.9799 6.30182 22.0832 6.37785 22.1473 6.55691C22.2832 6.96397 23.0804 8.44807 23.3412 9.13894H10.585C10.846 8.44807 11.6436 6.96397 11.7793 6.55691Z" fill="#C29F67"/>
<path d="M11.9943 11.6662C11.9943 11.2043 11.619 10.8296 11.158 10.8296C11.0169 10.8295 10.8782 10.8652 10.7547 10.9334C10.7959 11.4015 10.8201 11.9025 10.8286 12.4345C10.9298 12.4779 11.0411 12.5022 11.1581 12.5022C11.619 12.5022 11.9943 12.1274 11.9943 11.6662Z" fill="#C29F67"/>
<path d="M22.7722 12.502C23.2341 12.502 23.6084 12.1276 23.6084 11.6658C23.6084 11.204 23.2341 10.8296 22.7722 10.8296C22.3104 10.8296 21.936 11.204 21.936 11.6658C21.936 12.1276 22.3104 12.502 22.7722 12.502Z" fill="#C29F67"/>
<path d="M4.04823 1.44294C4.08225 1.50365 4.10846 1.56649 4.12821 1.63038C4.48835 1.54056 4.94167 1.48689 5.43479 1.48689C6.60568 1.48689 7.55492 1.78901 7.55492 2.16147C7.55492 2.21679 7.53353 2.27066 7.49392 2.32212C7.26736 2.02704 6.43164 1.80818 5.43479 1.80818C4.96046 1.80818 4.52265 1.85781 4.16946 1.94146C4.15944 2.26873 3.98443 2.58338 3.67865 2.75482C3.55867 2.82189 3.43989 2.8911 3.32237 2.9624C3.28535 3.12244 3.2666 3.28615 3.26648 3.45042C3.26648 4.52831 4.05305 5.42185 5.08324 5.58992C5.19772 5.60852 5.3151 5.61873 5.43479 5.61873C5.55458 5.61873 5.67186 5.60861 5.78635 5.58992C6.81654 5.42185 7.60311 4.52821 7.60311 3.45042C7.60311 3.17923 7.5529 2.9199 7.46193 2.68062C7.51368 2.62694 7.54471 2.57047 7.55252 2.51197C7.80481 2.52084 7.9988 2.48017 8.08448 2.34506C8.37185 1.89193 7.63501 0 5.4347 0C4.37029 0 3.64935 0.442915 3.22012 0.951168C3.38915 0.953372 3.55462 0.999965 3.69996 1.08628C3.8453 1.17259 3.9654 1.29559 4.04823 1.44294Z" fill="#C29F67"/>
<path d="M5.21129 14.2487H5.65796V22.9481C5.65796 23.6063 6.19156 24.1395 6.84938 24.1395C7.50739 24.1395 8.04099 23.6063 8.04099 22.9481V8.49655C8.10531 8.62954 8.16257 8.76584 8.21253 8.90486C8.4841 9.6578 8.71259 10.8931 8.71182 12.8213C8.71182 13.3528 8.69486 13.9365 8.65727 14.5776C8.64536 14.7817 8.71503 14.9822 8.85096 15.135C8.98688 15.2877 9.17793 15.3803 9.38207 15.3922C9.58621 15.4041 9.78672 15.3344 9.93948 15.1985C10.0923 15.0626 10.1848 14.8715 10.1967 14.6674C10.2355 13.9992 10.2534 13.3857 10.2537 12.8214C10.2498 9.91279 9.78499 8.30284 9.15174 7.33491C8.83507 6.8545 8.46473 6.54622 8.12242 6.37545C7.79255 6.20921 7.50257 6.17192 7.3292 6.16999C7.31812 6.16951 7.30733 6.16826 7.29615 6.16826H6.46949C6.60007 6.91464 6.91636 9.09221 6.24601 9.52491C6.13403 9.59718 6.03862 9.65857 5.95333 9.7109L5.72388 7.41615C5.62944 7.44178 5.53239 7.45556 5.43535 7.45556H5.43448C5.33687 7.4553 5.23972 7.44211 5.14556 7.41634L4.91601 9.711C4.81768 9.65004 4.72002 9.58801 4.62305 9.52491C3.95299 9.09221 4.26908 6.91464 4.39966 6.16826H3.71293C3.48521 6.0902 2.9388 5.88435 2.45521 5.58686C2.17112 5.41436 1.91371 5.21005 1.75615 5.01915C1.59512 4.82303 1.5425 4.67588 1.54211 4.53932C1.54356 4.40305 1.59078 4.1894 1.88904 3.84276C2.18413 3.5019 2.72524 3.06699 3.58438 2.58668C3.67412 2.53796 3.75329 2.47189 3.81729 2.39232C3.88129 2.31274 3.92884 2.22125 3.95719 2.12315C3.98553 2.02504 3.99411 1.92228 3.98241 1.82084C3.97072 1.71939 3.93898 1.62128 3.88906 1.5322C3.83913 1.44313 3.772 1.36485 3.69157 1.30193C3.61115 1.23901 3.51902 1.19269 3.42054 1.16567C3.32207 1.13864 3.2192 1.13145 3.11793 1.14451C3.01665 1.15758 2.91897 1.19063 2.83057 1.24175C1.87247 1.77997 1.19518 2.29449 0.726536 2.82982C0.260686 3.35918 -0.0014396 3.94906 5.94726e-06 4.53942C5.94726e-06 5.17122 0.292199 5.69797 0.637009 6.08229C1.16136 6.66398 1.83218 7.03173 2.37937 7.29038C2.52715 7.35892 2.67677 7.42342 2.82807 7.4838V22.9482C2.82807 23.6064 3.36167 24.1396 4.01949 24.1396C4.52861 24.1396 4.96198 23.8199 5.13265 23.3706C5.18429 23.2358 5.21087 23.0926 5.2111 22.9482V14.2487H5.21129Z" fill="#C29F67"/>
<path d="M5.84036 6.93273L5.70544 6.20996H5.16577L5.03085 6.93273L5.10708 7.09598C5.21048 7.14173 5.32225 7.16549 5.43532 7.16575C5.54865 7.16546 5.66068 7.14164 5.76432 7.09579L5.84036 6.93273Z" fill="#C29F67"/>
</svg>
