<svg width="19" height="20" viewBox="0 0 19 20" fill="none" xmlns="http://www.w3.org/2000/svg">
<path d="M15.915 4.30777C14.4723 2.81543 12.6051 1.86648 10.5787 1.57781L11.1563 1.00023C11.3851 0.771398 11.3851 0.400421 11.1563 0.171592C10.9275 -0.0571974 10.5565 -0.0571974 10.3276 0.171592L8.84377 1.65542C8.61494 1.88421 8.61494 2.25523 8.84377 2.48406L10.3276 3.96789C10.442 4.0823 10.592 4.13953 10.7419 4.13953C10.8918 4.13953 11.0418 4.0823 11.1562 3.96789C11.385 3.7391 11.385 3.36808 11.1562 3.13926L10.8244 2.80742C12.4342 3.12246 13.9108 3.92066 15.0724 5.12223C16.5374 6.6377 17.3443 8.63349 17.3443 10.7419C17.3443 15.2007 13.7168 18.8281 9.25811 18.8281C4.79939 18.8281 1.17188 15.2007 1.17188 10.7419C1.17188 9.04056 1.69403 7.41306 2.68192 6.0354C3.64931 4.68629 4.9829 3.67961 6.53865 3.12422C6.84342 3.01539 7.00224 2.68015 6.89345 2.37535C6.78467 2.07058 6.44935 1.91175 6.14459 2.02054C4.36321 2.65652 2.83653 3.80871 1.72954 5.3525C0.598048 6.93048 0 8.79411 0 10.742C0 13.2149 0.96301 15.5398 2.71165 17.2884C4.46028 19.037 6.78517 20 9.25811 20C11.731 20 14.0559 19.037 15.8046 17.2884C17.5532 15.5398 18.5162 13.2149 18.5162 10.7419C18.5162 8.32794 17.5924 6.0429 15.915 4.30777Z" fill="#EB9800"/>
<path d="M3.23792 10.7419C3.23792 14.0614 5.93855 16.762 9.25809 16.762C12.5776 16.762 15.2782 14.0614 15.2782 10.7419C15.2782 7.42239 12.5776 4.72168 9.25809 4.72168C5.93851 4.72168 3.23792 7.42235 3.23792 10.7419ZM9.61777 11.2634C8.77434 10.9652 8.28566 10.7302 7.93113 10.4522C7.4948 10.1099 7.29507 9.51888 7.40984 8.9097C7.53437 8.24884 7.99523 7.72274 8.61262 7.53676C8.62117 7.53419 8.62957 7.53212 8.63808 7.52962V7.29368C8.63808 6.97008 8.90043 6.70774 9.22402 6.70774C9.54762 6.70774 9.80996 6.97008 9.80996 7.29368V7.49231C10.2191 7.58813 10.5046 7.77512 10.62 7.86141C10.8792 8.0552 10.9323 8.42235 10.7385 8.68157C10.5447 8.94079 10.1777 8.99376 9.91836 8.80005C9.7943 8.70731 9.45188 8.50778 8.95062 8.6588C8.65449 8.74802 8.57789 9.03946 8.56144 9.12669C8.52898 9.29896 8.56629 9.4611 8.6543 9.53009C8.96082 9.77044 9.51074 9.98267 10.0083 10.1585C10.9184 10.4802 11.4245 11.3234 11.2677 12.2566C11.1906 12.7147 10.9602 13.1399 10.6186 13.4537C10.3837 13.6695 10.11 13.8229 9.80996 13.9095V14.19C9.80996 14.5136 9.54762 14.776 9.22402 14.776C8.90043 14.776 8.63808 14.5136 8.63808 14.19V13.9671C8.24828 13.9213 7.923 13.8012 7.48554 13.5151C7.21472 13.3379 7.13882 12.9747 7.31597 12.7039C7.49312 12.4331 7.85632 12.3572 8.12711 12.5344C8.53269 12.7997 8.68605 12.8241 9.22012 12.8204C9.74594 12.8169 10.051 12.4249 10.112 12.0623C10.1418 11.8852 10.1533 11.4527 9.61777 11.2634Z" fill="#EB9800"/>
</svg>
