<svg width="48" height="28" viewBox="0 0 48 28" fill="none" xmlns="http://www.w3.org/2000/svg">
<path d="M45.2791 12.8041C45.7383 12.7662 46.2126 13.1894 46.4794 13.8737C46.8499 14.8058 46.7213 15.9266 46.1933 16.3719C45.6623 16.8225 44.9364 16.4275 44.5659 15.4901C44.1948 14.5527 44.3239 13.4284 44.8519 12.9831C44.9804 12.8764 45.1253 12.812 45.2791 12.8041ZM20.8106 2.66399H22.0645C24.2616 2.66399 25.874 3.6093 27.5835 4.95056C28.5641 5.72215 29.5664 6.6225 30.6568 7.50873C31.358 8.07398 31.656 9.38172 30.2482 9.38172H20.8106C20.3833 9.38172 20.0382 8.87732 20.0382 8.25299V3.7936C20.0382 3.1631 20.3833 2.66399 20.8106 2.66399ZM15.921 2.66399H17.4446C17.8718 2.66399 18.2176 3.1631 18.2176 3.7936V8.25299C18.2176 8.40129 18.1976 8.54813 18.1588 8.68514C18.1199 8.82214 18.063 8.94661 17.9912 9.05143C17.9194 9.15625 17.8342 9.23938 17.7404 9.29605C17.6466 9.35273 17.5461 9.38183 17.4446 9.38172H10.1008C8.6146 9.38172 8.25254 7.10926 9.94396 5.80064L13.1584 3.31036C13.9978 2.78303 14.9404 2.66399 15.921 2.66399ZM16.4484 0C11.9136 0 8.83726 4.09078 5.58476 5.49288L1.61901 7.19656C0.318009 7.7574 0 8.59249 0 10.1083V18.2229C0 20.4733 0.710843 21.7819 2.39804 21.7819H5.69157C5.69173 19.8344 6.22116 17.9668 7.16343 16.5896C8.10571 15.2125 9.38369 14.4386 10.7163 14.4381C12.0483 14.4396 13.3256 15.2127 14.2682 16.588C15.2108 17.9656 15.7408 19.8337 15.7417 21.7819H32.1931C32.1933 19.8344 32.7227 17.9668 33.665 16.5896C34.6072 15.2125 35.8852 14.4386 37.2179 14.4381C38.5503 14.4397 39.8278 15.214 40.7699 16.5909C41.712 17.9678 42.2417 19.8348 42.2427 21.7819H45.926C47.0755 21.7819 48 20.1938 48 18.2282V15.9989C48 12.849 46.8686 11.3843 45.3853 10.8552L33.9243 6.76888C29.9743 4.69747 27.2124 0 22.0645 0H16.4484Z" fill="#C29F67"/>
<path d="M10.7165 27.4299C8.58281 27.4299 6.85156 24.899 6.85156 21.7809C6.85156 18.6628 8.58281 16.1328 10.7165 16.1328C11.7416 16.1333 12.7245 16.7285 13.4494 17.7876C14.1742 18.8467 14.5817 20.283 14.5821 21.7809C14.582 23.279 14.1747 24.7157 13.4497 25.7751C12.7248 26.8344 11.7417 27.4296 10.7165 27.4299ZM10.7165 23.8981C11.1007 23.8981 11.4692 23.6751 11.7408 23.2781C12.0125 22.8812 12.1651 22.3427 12.1651 21.7813C12.1651 21.2199 12.0125 20.6815 11.7408 20.2845C11.4692 19.8875 11.1007 19.6645 10.7165 19.6645C10.5262 19.6642 10.3376 19.7186 10.1616 19.8248C9.98561 19.931 9.82566 20.0868 9.69089 20.2833C9.55612 20.4799 9.44917 20.7133 9.37614 20.9702C9.30312 21.2272 9.26545 21.5027 9.26529 21.7809C9.26593 22.3427 9.41911 22.8813 9.69121 23.2782C9.9633 23.6752 10.3321 23.8981 10.7165 23.8981ZM37.2181 27.4299C35.0813 27.4299 33.3531 24.899 33.3531 21.7809C33.353 20.6641 33.5796 19.5723 34.0041 18.6437C34.4286 17.715 35.032 16.9912 35.738 16.5636C36.444 16.136 37.2209 16.024 37.9705 16.2416C38.7201 16.4592 39.4087 16.9968 39.9492 17.7862C40.6747 18.8455 41.0827 20.2823 41.0837 21.7809C41.083 23.2788 40.6755 24.7151 39.9507 25.7743C39.2259 26.8335 38.2431 27.4289 37.2181 27.4299ZM37.2181 23.8981C37.6022 23.8981 37.9707 23.6751 38.2423 23.2781C38.514 22.8812 38.6666 22.3427 38.6666 21.7813C38.6666 21.2199 38.514 20.6815 38.2423 20.2845C37.9707 19.8875 37.6022 19.6645 37.2181 19.6645C37.0254 19.6588 36.8338 19.7093 36.6546 19.8131C36.4754 19.9169 36.3122 20.0719 36.1745 20.269C36.0368 20.4661 35.9275 20.7014 35.8528 20.9611C35.7781 21.2208 35.7397 21.4997 35.7397 21.7813C35.7397 22.063 35.7781 22.3419 35.8528 22.6015C35.9275 22.8612 36.0368 23.0965 36.1745 23.2937C36.3122 23.4908 36.4754 23.6458 36.6546 23.7496C36.8338 23.8534 37.0254 23.9039 37.2181 23.8981Z" fill="#C29F67"/>
</svg>
