<svg width="208" height="208" viewBox="0 0 208 208" fill="none" xmlns="http://www.w3.org/2000/svg">
<path d="M207.5 104C207.5 161.161 161.161 207.5 104 207.5C46.8385 207.5 0.5 161.161 0.5 104C0.5 46.8385 46.8385 0.5 104 0.5C161.161 0.5 207.5 46.8385 207.5 104Z" fill="#25B093" stroke="#25B093"/>
<path d="M93.6173 144C91.2566 144.004 88.9586 143.238 87.0698 141.819L86.9527 141.731L62.2914 122.82C61.1492 121.943 60.1907 120.848 59.4706 119.599C58.7505 118.35 58.2828 116.971 58.0944 115.541C57.9059 114.11 58.0003 112.657 58.3722 111.263C58.7441 109.87 59.3862 108.563 60.2618 107.418C61.1375 106.273 62.2295 105.312 63.4756 104.591C64.7216 103.869 66.0973 103.4 67.5241 103.211C68.9509 103.022 70.4009 103.117 71.7912 103.49C73.1815 103.862 74.485 104.506 75.6271 105.384L91.6007 117.662L129.347 68.2999C130.222 67.1555 131.314 66.1951 132.56 65.4735C133.805 64.752 135.18 64.2834 136.606 64.0946C138.033 63.9057 139.482 64.0003 140.872 64.373C142.261 64.7456 143.564 65.389 144.706 66.2664L144.709 66.2688L144.475 66.5948L144.716 66.2688C147.019 68.0432 148.526 70.6612 148.906 73.5481C149.286 76.4351 148.507 79.3552 146.742 81.6676L102.344 139.703C101.317 141.04 99.9961 142.122 98.4844 142.865C96.9727 143.608 95.3106 143.992 93.627 143.987L93.6173 144Z" fill="white"/>
</svg>
