<svg width="58" height="24" viewBox="0 0 58 24" fill="none" xmlns="http://www.w3.org/2000/svg">
<path d="M1.22849 18.1305L3.80379 18.1949C3.75836 18.4949 3.73555 18.7979 3.73555 19.1014V19.643H4.81875V19.1014C4.81875 16.3679 7.04255 14.1441 9.776 14.1441C12.5094 14.1441 14.7332 16.3679 14.7332 19.1014V19.643H15.8164V19.1014C15.8164 18.8967 15.806 18.6943 15.7859 18.4946L41.5985 19.1402V19.643H42.6817V19.1014C42.6817 16.3679 44.9055 14.1441 47.6391 14.1441C50.3726 14.1441 52.5964 16.3679 52.5964 19.1014V19.643H53.6796V19.4424L57.0933 19.5278C57.9508 19.5493 58.0245 16.6084 57.1668 16.5869L57.1175 16.5857L57.6815 12.8116C57.7238 12.5574 57.6937 12.2964 57.5947 12.0585C57.4956 11.8206 57.3315 11.6155 57.1213 11.4665L56.181 10.8005C56.181 10.8005 54.7617 8.66117 54.2472 8.57704L42.1399 5.75621C41.7894 5.69898 41.453 5.57533 41.1488 5.3919L35.1199 1.75705C33.2788 0.646962 31.1685 0.0630639 29.0186 0.0688908L7.33303 0.128106C7.28913 0.128263 7.24581 0.138063 7.20611 0.15681L6.6378 0.425985C6.3948 0.541165 6.4161 0.893745 6.6712 0.978776C6.89686 1.05406 6.94813 1.35013 6.76074 1.4969L2.15986 5.10016C1.96229 5.25489 1.80507 5.4551 1.70162 5.68373C1.59816 5.91236 1.55154 6.16263 1.56573 6.41317L1.72496 9.22732L1.53666 9.34918C1.24312 9.5391 1.00763 9.80627 0.856054 10.1213C0.704482 10.4364 0.642703 10.7871 0.677508 11.135L1.05572 15.2782C0.439926 15.7628 0.462132 18.1113 1.22849 18.1305ZM25.7132 8.69457L25.7367 8.09899L28.9793 8.22699L28.9558 8.82256L25.7132 8.69457ZM11.6869 8.15622L11.7104 7.56064L14.953 7.68864L14.9295 8.28421L11.6869 8.15622ZM10.9641 6.21206L11.3528 1.20047L23.0573 1.16852L23.4882 6.72568L10.9641 6.21206ZM29.0506 1.15209C30.9925 1.15217 32.8976 1.68204 34.5606 2.68463L39.5348 5.68382L40.1477 6.84537C40.0562 7.01073 39.9205 7.14742 39.7558 7.24018C39.5911 7.33294 39.4038 7.37813 39.2149 7.37072L25.0567 6.79013L24.0755 1.16581L29.0506 1.15209ZM7.42853 2.34974C7.60071 2.21521 7.73846 2.04168 7.83043 1.84347C7.9224 1.64525 7.96595 1.42802 7.95749 1.20968L10.3306 1.20318L9.46729 6.15068L5.38165 5.98314C5.18279 5.97533 4.99055 5.90954 4.8286 5.79387C4.66665 5.6782 4.54205 5.51771 4.47014 5.33214L4.27228 4.8216L7.42853 2.34974Z" fill="#C29F67"/>
<path d="M9.77633 14.8418C7.55649 14.8418 5.73438 16.5393 5.53525 18.707C5.52276 18.8381 5.51637 18.9698 5.51611 19.1015C5.51611 21.4538 7.42308 23.361 9.77614 23.361C12.1285 23.361 14.0353 21.4538 14.0353 19.1015C14.0353 18.9682 14.0284 18.8368 14.0167 18.707C13.8177 16.5393 11.9958 14.8418 9.77633 14.8418ZM9.77633 21.8667C8.25118 21.8667 7.01056 20.6261 7.01056 19.1013C7.01056 19.0206 7.01472 18.9365 7.0232 18.844C7.15445 17.4138 8.33802 16.3359 9.77633 16.3359C11.2141 16.3359 12.3975 17.414 12.5291 18.8437C12.5372 18.9339 12.5414 19.0186 12.5414 19.1013C12.5414 20.6262 11.3011 21.8667 9.77633 21.8667Z" fill="#C29F67"/>
<path d="M9.77643 17.8297C9.45936 17.8279 9.15323 17.9454 8.91881 18.159C8.6844 18.3725 8.53885 18.6663 8.51108 18.9822C8.50718 19.0217 8.50507 19.0613 8.50476 19.101C8.50476 19.802 9.07524 20.3723 9.77643 20.3723C10.4771 20.3723 11.0472 19.802 11.0472 19.101C11.0472 19.0642 11.0452 19.0239 11.0412 18.98C10.9809 18.3243 10.4372 17.8297 9.77643 17.8297ZM51.8989 19.101C51.8989 18.9677 51.8922 18.8363 51.8803 18.7065C51.681 16.539 49.859 14.8413 47.6398 14.8413C45.4199 14.8413 43.5978 16.5389 43.3987 18.7065C43.3862 18.8376 43.3798 18.9693 43.3795 19.101C43.3795 21.4533 45.2865 23.3605 47.6396 23.3605C49.9921 23.3607 51.8989 21.4533 51.8989 19.101ZM47.6398 21.8664C46.1146 21.8664 44.874 20.6258 44.874 19.101C44.874 19.0203 44.8781 18.9362 44.8866 18.8437C45.0179 17.4135 46.2014 16.3356 47.6398 16.3356C49.0777 16.3356 50.2611 17.4137 50.3925 18.8434C50.4006 18.9336 50.4048 19.0183 50.4048 19.101C50.4046 20.6259 49.1643 21.8664 47.6398 21.8664Z" fill="#C29F67"/>
<path d="M48.9105 19.1014C48.9105 19.0646 48.9085 19.0243 48.9045 18.9805C48.8442 18.3246 48.3005 17.8301 47.6397 17.8301C47.3226 17.8283 47.0165 17.9459 46.7821 18.1594C46.5477 18.3729 46.4021 18.6668 46.3744 18.9826C46.3705 19.0221 46.3684 19.0617 46.368 19.1014C46.368 19.8024 46.9385 20.3727 47.6397 20.3727C48.3404 20.3727 48.9105 19.8024 48.9105 19.1014Z" fill="#C29F67"/>
</svg>
