<svg width="36" height="36" viewBox="0 0 36 36" fill="none" xmlns="http://www.w3.org/2000/svg">
<circle cx="18" cy="18" r="18" fill="#C29F67"/>
<rect width="20" height="20" transform="translate(8 8)" fill="#C29F67"/>
<path d="M26.0667 8H23.2667C22.0572 8 21.3334 8.72381 21.3334 9.93333V12.7333C21.3334 13.9429 22.0572 14.6667 23.2667 14.6667H26.0667C27.2762 14.6667 28 13.9429 28 12.7333V9.93333C28 8.72381 27.2762 8 26.0667 8ZM26.2762 11.1524C26.1619 11.2667 26.0095 11.3238 25.8572 11.3238C25.7048 11.3238 25.5524 11.2667 25.4381 11.1524L25.2667 10.981V13.1143C25.2667 13.4476 25 13.7143 24.6667 13.7143C24.3334 13.7143 24.0667 13.4476 24.0667 13.1143V10.981L23.8953 11.1524C23.6667 11.381 23.2857 11.381 23.0572 11.1524C22.8286 10.9238 22.8286 10.5429 23.0572 10.3143L24.2476 9.12381C24.2953 9.07619 24.3619 9.0381 24.4286 9.00952C24.4476 9 24.4667 9 24.4857 8.99048C24.5334 8.97143 24.581 8.9619 24.6381 8.9619H24.6953C24.7619 8.9619 24.8191 8.97143 24.8857 9H24.9048C24.9715 9.02857 25.0286 9.06667 25.0762 9.11429C25.0857 9.12381 25.0857 9.12381 25.0953 9.12381L26.2857 10.3143C26.5143 10.5429 26.5143 10.9238 26.2762 11.1524ZM14.6667 16.9333C15.2678 16.9333 15.8444 16.6945 16.2695 16.2694C16.6945 15.8444 16.9334 15.2678 16.9334 14.6667C16.9334 14.0655 16.6945 13.489 16.2695 13.0639C15.8444 12.6388 15.2678 12.4 14.6667 12.4C14.0655 12.4 13.489 12.6388 13.0639 13.0639C12.6388 13.489 12.4 14.0655 12.4 14.6667C12.4 15.2678 12.6388 15.8444 13.0639 16.2694C13.489 16.6945 14.0655 16.9333 14.6667 16.9333Z" fill="white"/>
<path d="M26.0667 14.6664H25.619V19.0569L25.4952 18.9521C24.7524 18.3141 23.5524 18.3141 22.8095 18.9521L18.8476 22.3521C18.1048 22.9902 16.9048 22.9902 16.1619 22.3521L15.8381 22.0855C15.1619 21.495 14.0857 21.4379 13.3238 21.9521L9.7619 24.3426C9.55238 23.8093 9.42857 23.1902 9.42857 22.4664V14.4855C9.42857 11.7998 10.8476 10.3807 13.5333 10.3807H21.3333V9.9331C21.3333 9.55215 21.4 9.22834 21.5524 8.95215H13.5333C10.0667 8.95215 8 11.0188 8 14.4855V22.4664C8 23.5045 8.18095 24.4093 8.53333 25.1712C9.35238 26.9807 11.1048 27.9998 13.5333 27.9998H21.5143C24.981 27.9998 27.0476 25.9331 27.0476 22.4664V14.4474C26.7714 14.5998 26.4476 14.6664 26.0667 14.6664Z" fill="white"/>
</svg>
