<svg width="43" height="43" viewBox="0 0 43 43" fill="none" xmlns="http://www.w3.org/2000/svg">
<circle cx="21.5" cy="21.5" r="21" stroke="#ADB4BE"/>
<path d="M15.677 31.08H26.8566C27.7814 31.08 28.5336 30.3278 28.5336 29.403V17.5898H24.6207C23.696 17.5898 22.9438 16.8376 22.9438 15.9129V12H15.677C14.7522 12 14 12.7522 14 13.677V29.403C14 30.3278 14.7522 31.08 15.677 31.08ZM17.9129 19.863H24.6207C24.9297 19.863 25.1797 20.1131 25.1797 20.422C25.1797 20.731 24.9297 20.981 24.6207 20.981H17.9129C17.6039 20.981 17.3539 20.731 17.3539 20.422C17.3539 20.1131 17.6039 19.863 17.9129 19.863ZM17.9129 22.099H24.6207C24.9297 22.099 25.1797 22.349 25.1797 22.658C25.1797 22.9669 24.9297 23.217 24.6207 23.217H17.9129C17.6039 23.217 17.3539 22.9669 17.3539 22.658C17.3539 22.349 17.6039 22.099 17.9129 22.099ZM17.9129 24.3349H24.6207C24.9297 24.3349 25.1797 24.5849 25.1797 24.8939C25.1797 25.2029 24.9297 25.4529 24.6207 25.4529H17.9129C17.6039 25.4529 17.3539 25.2029 17.3539 24.8939C17.3539 24.5849 17.6039 24.3349 17.9129 24.3349ZM17.9129 26.5709H22.3848C22.6937 26.5709 22.9438 26.8209 22.9438 27.1298C22.9438 27.4388 22.6937 27.6888 22.3848 27.6888H17.9129C17.6039 27.6888 17.3539 27.4388 17.3539 27.1298C17.3539 26.8209 17.6039 26.5709 17.9129 26.5709Z" fill="#ADB4BE"/>
<path d="M24.6208 16.472H28.2061L24.0618 12.3276V15.913C24.0618 16.2214 24.3123 16.472 24.6208 16.472Z" fill="#ADB4BE"/>
</svg>
